<svg width="603" height="432" viewBox="0 0 603 432" fill="none" xmlns="http://www.w3.org/2000/svg">
<g style="mix-blend-mode:multiply" opacity="0.2">
<path d="M312.385 431.815C306.904 431.815 300.356 430.485 291.637 427.472C268.498 419.303 244.771 394.767 219.719 368.82C205.924 354.571 191.688 339.833 177.377 327.755C156.483 305.933 121.057 290.897 86.7717 276.322C61.72 265.683 38.0661 255.613 19.7463 243.183L19.7095 243.155C5.95125 233.493 -0.486421 224.156 0.0285933 214.63C1.02184 196.038 28.5015 179.482 60.3589 160.32L63.4121 158.474C87.0292 144.198 116.679 125.091 159.609 96.5651L163.251 94.231C201.657 69.5866 249.479 38.917 311.428 20.3251C435.51 -22.7481 544.104 10.6085 578.39 46.7608C614.146 89.0198 611.056 133.884 566.618 218.321C520.083 306.34 417.006 374.384 374.849 399.544C357.596 407.849 346.78 415.204 338.908 420.578C328.902 427.364 322.391 431.815 312.385 431.815ZM22.9835 240.577C40.8987 252.736 64.3318 262.697 89.1261 273.255C123.816 287.993 159.72 303.246 181.056 325.556C195.403 337.634 209.713 352.454 223.545 366.757C248.266 392.324 271.625 416.48 293.624 424.27C315.365 431.733 320.478 428.259 335.671 417.946C343.69 412.49 354.69 404.999 372.053 396.64C413.695 371.751 516.036 304.223 562.167 216.991C605.98 133.776 609.18 89.7255 574.417 48.6607C541.125 13.5941 435.069 -18.7584 313.341 23.5007C252.018 41.9296 204.526 72.3822 166.378 96.8365L162.773 99.1707C119.806 127.723 90.1193 146.858 66.4286 161.161L63.3754 163.007C32.4009 181.626 5.69376 197.721 4.77409 214.711C4.33265 223.207 10.2921 231.647 22.9835 240.577Z" fill="#CCCCCC"/>
<path d="M305.245 407.225C297.667 407.225 289.647 405.433 278.611 402.258L278.391 402.204C257.201 394.36 240.427 375.442 222.696 355.439C210.593 341.76 198.048 327.646 182.966 315.351C161.703 295.402 134.959 279.878 109.135 264.868C91.7715 254.799 75.3646 245.272 61.0546 234.742L60.7971 234.524C31.662 205.239 52.5568 192.32 90.4472 168.842C94.5673 166.291 98.9081 163.604 103.433 160.727C112.335 155.869 121.826 150.441 131.906 144.687C176.675 119.092 238.036 84.0528 324.595 55.6087C430.393 25.7261 512.134 47.3306 546.272 81.9901C580.483 118.115 567.203 161.596 528.761 234.226C486.64 307.67 409.756 355.222 368.445 380.762L363.846 383.612C333.129 400.439 319.96 407.225 305.245 407.225ZM280.451 399.001C310.579 407.632 315.692 405.569 360.903 380.87L365.391 378.102C406.372 352.752 482.667 305.553 524.347 232.95C562.164 161.541 575.37 118.875 542.409 84.08C509.375 50.5333 429.768 29.7159 326.434 58.8928C240.5 87.1198 179.434 122.024 134.812 147.482C124.732 153.236 115.241 158.664 106.413 163.496C101.998 166.291 97.6574 168.978 93.5373 171.557C55.6101 195.061 38.2468 205.809 64.5493 232.353C78.6386 242.694 94.8984 252.112 112.078 262.1C138.16 277.218 165.087 292.878 186.608 313.071C201.837 325.475 214.492 339.724 226.705 353.512C244.032 373.054 260.439 391.537 280.451 399.001Z" fill="#CCCCCC"/>
<path d="M299.076 386.706C289.401 386.706 280.425 384.155 269.242 379.812C250.554 371.507 235.545 354.326 219.653 336.169C210.236 325.366 200.45 314.211 189.267 303.979C173.633 287.911 155.092 274.178 137.214 260.879C122.536 249.968 108.667 239.681 97.7417 229.069L97.5946 228.906C75.449 201.385 98.3303 188.547 139.899 165.233L140.378 164.961L148.066 161.08C191.842 139.068 251.805 108.914 333.949 87.0655C430.919 64.2397 492.647 87.4998 516.081 114.315C541.132 142.922 534.989 181.327 494.891 246.874C465.683 292.553 418.007 333.617 353.226 368.928C328.174 381.468 312.907 386.706 299.076 386.706ZM101.604 226.979C112.346 237.374 126.068 247.579 140.598 258.354C158.624 271.735 177.275 285.604 193.056 301.808C204.35 312.094 214.172 323.358 223.663 334.242C239.224 352.074 253.938 368.901 271.596 376.745C297.052 386.679 309.744 386.489 350.467 366.051C414.549 331.093 461.71 290.49 490.551 245.381C529.876 181.083 536.129 143.655 512.071 116.188C487.755 88.3683 423.746 69.5865 335.458 90.3496C253.975 112.036 194.307 142.027 150.751 163.957L142.769 168.001C100.905 191.478 81.7395 202.226 101.604 226.979Z" fill="#CCCCCC"/>
<path d="M295.62 368.033C284.805 368.033 274.651 365.292 263.321 359.918L263.248 359.891C246.179 351.26 232.42 335.029 217.853 317.876C211.121 309.924 204.131 301.727 196.553 293.91C186.437 282.457 175.217 271.872 164.365 261.666C151.048 249.127 138.43 237.266 130.19 225.758C115.806 201.467 136.848 188.765 173.194 170.662C210.643 153.562 268.508 129.19 339.433 114.805C407.157 104.518 457.886 112.769 482.423 138.01C508.909 165.206 502.325 208.334 464.361 256.347C424.594 312.855 361.726 345.994 343.406 354.788C323.909 363.691 309.231 368.033 295.62 368.033ZM265.896 356.96C287.085 366.975 303.713 368.766 340.831 351.803C358.856 343.145 420.916 310.439 460.167 254.637C497.174 207.818 503.87 166.075 478.524 140.073C455.127 116.026 406.127 108.291 340.5 118.252C270.311 132.501 212.85 156.684 175.732 173.647C138.32 192.266 122.023 203.34 134.42 224.266C142.403 235.366 154.874 247.091 168.08 259.522C179.006 269.809 190.299 280.421 200.453 291.956C208.067 299.773 215.057 308.051 221.826 316.03C236.173 332.831 249.673 348.736 265.896 356.96Z" fill="#CCCCCC"/>
<path d="M293.336 350.987C281.859 350.987 271.301 348.083 260.338 342.275L260.044 342.085C218.07 310.737 168.445 238.948 158.917 224.889L158.77 224.563C151.339 204.424 168.114 192.591 201.627 177.798C233.19 164.716 283.036 147.454 341.453 139.393C395.235 133.151 435.517 141.565 454.94 163.088C476.497 186.999 469.912 223.342 436.915 262.805C407.853 300.857 365.033 328.243 334.648 341.162C318.756 347.73 305.512 350.987 293.336 350.987ZM263.281 339.507C284.287 350.553 303.011 350.173 332.256 338.095C362.091 325.42 404.138 298.496 432.795 261.014C464.358 223.26 471.126 187.406 450.967 165.042C432.647 144.713 394.021 136.815 342.262 142.868C284.544 150.847 235.25 167.946 204.018 180.865C171.94 195.006 156.82 205.51 163.295 223.504C190.664 263.891 231.24 315.514 263.281 339.507Z" fill="#CCCCCC"/>
<path d="M291.657 335.274C279.37 335.274 268.739 332.261 260.683 326.425C228.457 303.383 194.908 254.772 185.012 225.541C183.394 218.783 185.711 212.188 191.818 205.891C210.653 186.485 266.458 169.739 341.135 161.108C383.256 158.095 414.672 166.427 429.681 184.585C446.676 205.158 440.57 235.095 412.943 266.687C377.002 306.667 333.999 332.179 297.911 335.002C295.777 335.192 293.68 335.274 291.657 335.274ZM357.542 164.012C352.465 164.012 347.205 164.202 341.761 164.609C268.481 173.077 213.816 189.28 195.754 207.954C190.383 213.49 188.36 219.163 189.721 224.835C199.433 253.47 232.393 301.293 264.067 323.929C272.417 329.954 283.969 332.587 297.432 331.528C332.122 328.814 373.839 303.871 408.97 264.788C435.162 234.823 441.416 205.538 425.634 186.431C413.531 171.801 389.657 164.012 357.542 164.012Z" fill="#CCCCCC"/>
<path d="M292.64 320.345C281.236 320.345 271.193 317.631 263.357 312.366C235.399 293.665 209.538 254.12 208.067 227.766V227.712C207.883 203.42 262.622 183.472 338.182 180.323C370.37 179.753 394.245 187.678 405.465 202.715C418.34 219.95 413.043 243.861 390.934 268.343C363.601 298.089 329.39 317.414 299.372 320.047C297.054 320.237 294.81 320.345 292.64 320.345ZM212.849 227.658C214.321 253.225 239.409 291.603 266.595 309.76C274.872 315.324 285.981 317.658 298.783 316.546C327.44 314.021 360.401 295.267 386.961 266.361C408.04 243.02 413.263 220.411 401.271 204.37C390.934 190.555 368.641 183.227 338.366 183.797C266.705 186.81 212.702 205.673 212.849 227.658Z" fill="#CCCCCC"/>
<path d="M293.461 306.205C283.492 306.205 274.59 303.952 267.416 299.528C242.217 284.085 224.302 252.818 228.238 231.213C232.506 210.477 278.379 195.604 332.529 197.314C356.293 198.318 373.803 205.538 381.896 217.615C391.167 231.458 386.936 249.832 370.235 267.99C350.517 289.241 324.509 303.382 300.671 305.825C298.207 306.096 295.816 306.205 293.461 306.205ZM323.957 200.706C275.914 200.706 236.662 213.816 232.984 231.729C229.305 251.895 246.816 282.32 270.469 296.841C278.268 301.618 288.458 303.518 300.009 302.351C322.559 300.044 347.317 286.446 366.299 266.008C382.007 248.937 386.127 231.865 377.629 219.162C370.345 208.279 354.233 201.765 332.308 200.815C329.512 200.761 326.716 200.706 323.957 200.706Z" fill="#CCCCCC"/>
<path d="M295.712 292.689C287.692 292.689 280.409 290.979 274.302 287.641C253.15 276.051 241.268 252.737 247.816 235.665C254.474 218.783 289.053 208.632 326.466 212.541C343.056 214.359 355.233 220.439 360.751 229.667C367.005 240.116 363.914 253.361 352.29 266.009C338.936 280.448 321.021 290.002 303.143 292.201C300.641 292.526 298.14 292.689 295.712 292.689ZM252.414 236.642C246.454 252.14 257.785 274.206 277.135 284.818C284.014 288.591 292.732 289.948 302.37 288.754C318.74 286.718 335.957 277.49 348.39 264.055C359.059 252.438 361.965 240.442 356.41 231.105C351.591 223.017 340.702 217.67 325.803 216.042C291.261 212.405 258.337 221.66 252.414 236.642Z" fill="#CCCCCC"/>
<path d="M297.559 279.606C292.004 279.606 286.634 278.548 281.925 276.268C266.18 268.75 258.823 252.79 265.481 240.713C272.176 228.689 296.051 222.202 318.748 226.273C329.233 228.146 336.884 232.733 340.305 239.138C344.058 246.195 342.145 254.772 335.082 262.643C325.333 273.445 310.876 279.606 297.559 279.606ZM284.5 273.336C298.074 279.823 318.969 274.178 331.109 260.716C337.289 253.822 339.055 246.412 335.854 240.441C333.022 235.121 326.547 231.295 317.608 229.693C297.118 226.029 275.708 231.566 269.896 242.043C264.046 252.655 270.594 266.687 284.5 273.336Z" fill="#CCCCCC"/>
<path d="M298.944 266.769C295.927 266.769 292.984 266.253 290.299 265.167C281.102 261.449 277.387 252.899 282.059 246.087C286.657 239.356 299.275 236.126 310.127 238.895C315.351 240.224 319.176 242.884 320.832 246.413C322.598 250.131 321.752 254.474 318.478 258.301C313.806 263.702 306.264 266.769 298.944 266.769ZM301.887 241.419C295.228 241.419 288.938 243.78 286.252 247.688C282.758 252.818 285.553 259.278 292.543 262.073C299.496 264.896 309.318 262.345 314.394 256.401C316.932 253.442 317.595 250.321 316.27 247.553C315.093 245.056 312.334 243.156 308.508 242.179C306.338 241.663 304.094 241.419 301.887 241.419Z" fill="#CCCCCC"/>
</g>
</svg>
