<svg width="603" height="432" viewBox="0 0 603 432" fill="none" xmlns="http://www.w3.org/2000/svg">
<g style="mix-blend-mode:multiply" opacity="0.2">
<path d="M312.385 432C306.904 432 300.356 430.67 291.637 427.657C268.498 419.488 244.771 394.952 219.719 369.005C205.924 354.756 191.688 340.018 177.377 327.94C156.483 306.118 121.057 291.082 86.7717 276.507C61.72 265.868 38.0661 255.798 19.7463 243.368L19.7095 243.341C5.95125 233.678 -0.486421 224.342 0.0285933 214.815C1.02184 196.223 28.5015 179.667 60.3589 160.505L63.4121 158.66C87.0292 144.383 116.679 125.276 159.609 96.7503L163.251 94.4161C201.657 69.7718 249.479 39.1021 311.428 20.5103C435.51 -22.563 544.104 10.7937 578.39 46.946C614.146 89.205 611.056 134.07 566.618 218.506C520.083 306.526 417.006 374.569 374.849 399.729C357.596 408.034 346.78 415.389 338.908 420.763C328.902 427.549 322.391 432 312.385 432ZM22.9835 240.762C40.8987 252.921 64.3318 262.882 89.1261 273.44C123.816 288.178 159.72 303.431 181.056 325.742C195.403 337.82 209.713 352.639 223.545 366.942C248.266 392.509 271.625 416.665 293.624 424.455C315.365 431.919 320.478 428.444 335.671 418.131C343.69 412.675 354.69 405.184 372.053 396.825C413.695 371.936 516.036 304.409 562.167 217.176C605.98 133.961 609.18 89.9107 574.417 48.8459C541.125 13.7793 435.069 -18.5732 313.341 23.6859C252.018 42.1148 204.526 72.5674 166.378 97.0217L162.773 99.3559C119.806 127.909 90.1193 147.043 66.4286 161.347L63.3754 163.192C32.4009 181.811 5.69376 197.906 4.77409 214.896C4.33265 223.392 10.2921 231.833 22.9835 240.762Z" fill="#CCCCCC"/>
<path d="M305.245 407.41C297.667 407.41 289.647 405.619 278.611 402.443L278.391 402.389C257.201 394.545 240.427 375.627 222.696 355.624C210.593 341.945 198.048 327.832 182.966 315.536C161.703 295.588 134.959 280.063 109.135 265.054C91.7715 254.984 75.3646 245.458 61.0546 234.927L60.7971 234.71C31.662 205.424 52.5568 192.505 90.4472 169.028C94.5673 166.476 98.9081 163.789 103.433 160.912C112.335 156.054 121.826 150.626 131.906 144.872C176.675 119.277 238.036 84.2381 324.595 55.7939C430.393 25.9113 512.134 47.5158 546.272 82.1753C580.483 118.3 567.203 161.781 528.761 234.411C486.64 307.855 409.756 355.407 368.445 380.947L363.846 383.797C333.129 400.625 319.96 407.41 305.245 407.41ZM280.451 399.186C310.579 407.817 315.692 405.754 360.903 381.056L365.391 378.287C406.372 352.937 482.667 305.738 524.347 233.135C562.164 161.727 575.37 119.06 542.409 84.2652C509.375 50.7185 429.768 29.9011 326.434 59.078C240.5 87.305 179.434 122.209 134.812 147.667C124.732 153.421 115.241 158.85 106.413 163.681C101.998 166.476 97.6574 169.163 93.5373 171.742C55.6101 195.246 38.2468 205.994 64.5493 232.538C78.6386 242.879 94.8984 252.297 112.078 262.285C138.16 277.403 165.087 293.063 186.608 313.257C201.837 325.66 214.492 339.909 226.705 353.697C244.032 373.239 260.439 391.722 280.451 399.186Z" fill="#CCCCCC"/>
<path d="M299.076 386.891C289.401 386.891 280.425 384.34 269.242 379.997C250.554 371.692 235.545 354.511 219.653 336.354C210.236 325.552 200.45 314.396 189.267 304.164C173.633 288.097 155.092 274.363 137.214 261.064C122.536 250.153 108.667 239.866 97.7417 229.254L97.5946 229.091C75.449 201.57 98.3303 188.732 139.899 165.418L140.378 165.146L148.066 161.265C191.842 139.253 251.805 109.099 333.949 87.2507C430.919 64.4248 492.647 87.685 516.081 114.501C541.132 143.108 534.989 181.513 494.891 247.059C465.683 292.738 418.007 333.803 353.226 369.113C328.174 381.653 312.907 386.891 299.076 386.891ZM101.604 227.164C112.346 237.559 126.068 247.765 140.598 258.54C158.624 271.92 177.275 285.79 193.056 301.993C204.35 312.279 214.172 323.543 223.663 334.427C239.224 352.259 253.938 369.086 271.596 376.93C297.052 386.864 309.744 386.674 350.467 366.236C414.549 331.278 461.71 290.675 490.551 245.566C529.876 181.268 536.129 143.84 512.071 116.373C487.755 88.5535 423.746 69.7717 335.458 90.5348C253.975 112.221 194.307 142.212 150.751 164.142L142.769 168.186C100.905 191.663 81.7395 202.411 101.604 227.164Z" fill="#CCCCCC"/>
<path d="M295.62 368.218C284.805 368.218 274.651 365.477 263.321 360.103L263.248 360.076C246.179 351.445 232.42 335.215 217.853 318.061C211.121 310.109 204.131 301.912 196.553 294.095C186.437 282.642 175.217 272.057 164.365 261.852C151.048 249.312 138.43 237.451 130.19 225.944C115.806 201.652 136.848 188.95 173.194 170.847C210.643 153.748 268.508 129.375 339.433 114.99C407.157 104.703 457.886 112.954 482.423 138.196C508.909 165.391 502.325 208.519 464.361 256.532C424.594 313.04 361.726 346.18 343.406 354.973C323.909 363.876 309.231 368.218 295.62 368.218ZM265.896 357.145C287.085 367.16 303.713 368.951 340.831 351.988C358.856 343.33 420.916 310.624 460.167 254.822C497.174 208.003 503.87 166.26 478.524 140.258C455.127 116.211 406.127 108.476 340.5 118.437C270.311 132.686 212.85 156.869 175.732 173.832C138.32 192.451 122.023 203.525 134.42 224.451C142.403 235.552 154.874 247.277 168.08 259.707C179.006 269.994 190.299 280.606 200.453 292.141C208.067 299.958 215.057 308.236 221.826 316.216C236.173 333.016 249.673 348.921 265.896 357.145Z" fill="#CCCCCC"/>
<path d="M293.336 351.173C281.859 351.173 271.301 348.268 260.338 342.46L260.044 342.27C218.07 310.922 168.445 239.133 158.917 225.074L158.77 224.748C151.339 204.609 168.114 192.776 201.627 177.984C233.19 164.902 283.036 147.64 341.453 139.579C395.235 133.336 435.517 141.75 454.94 163.273C476.497 187.185 469.912 223.527 436.915 262.99C407.853 301.042 365.033 328.428 334.648 341.347C318.756 347.916 305.512 351.173 293.336 351.173ZM263.281 339.692C284.287 350.738 303.011 350.358 332.256 338.28C362.091 325.605 404.138 298.681 432.795 261.199C464.358 223.445 471.126 187.592 450.967 165.227C432.647 144.898 394.021 137 342.262 143.053C284.544 151.032 235.25 168.131 204.018 181.051C171.94 195.191 156.82 205.695 163.295 223.69C190.664 264.076 231.24 315.699 263.281 339.692Z" fill="#CCCCCC"/>
<path d="M291.657 335.459C279.37 335.459 268.739 332.446 260.683 326.611C228.457 303.568 194.908 254.958 185.012 225.726C183.394 218.968 185.711 212.373 191.818 206.076C210.653 186.67 266.458 169.924 341.135 161.293C383.256 158.28 414.672 166.612 429.681 184.77C446.676 205.343 440.57 235.28 412.943 266.873C377.002 306.852 333.999 332.365 297.911 335.187C295.777 335.377 293.68 335.459 291.657 335.459ZM357.542 164.197C352.465 164.197 347.205 164.387 341.761 164.794C268.481 173.262 213.816 189.465 195.754 208.139C190.383 213.676 188.36 219.348 189.721 225.021C199.433 253.655 232.393 301.478 264.067 324.114C272.417 330.139 283.969 332.772 297.432 331.713C332.122 328.999 373.839 304.056 408.97 264.973C435.162 235.009 441.416 205.723 425.634 186.616C413.531 171.986 389.657 164.197 357.542 164.197Z" fill="#CCCCCC"/>
<path d="M292.64 320.53C281.236 320.53 271.193 317.816 263.357 312.551C235.399 293.851 209.538 254.306 208.067 227.951V227.897C207.883 203.606 262.622 183.657 338.182 180.508C370.37 179.938 394.245 187.864 405.465 202.9C418.34 220.135 413.043 244.046 390.934 268.528C363.601 298.275 329.39 317.599 299.372 320.232C297.054 320.422 294.81 320.53 292.64 320.53ZM212.849 227.843C214.321 253.41 239.409 291.788 266.595 309.945C274.872 315.509 285.981 317.843 298.783 316.731C327.44 314.207 360.401 295.452 386.961 266.546C408.04 243.205 413.263 220.596 401.271 204.556C390.934 190.741 368.641 183.412 338.366 183.982C266.705 186.995 212.702 205.858 212.849 227.843Z" fill="#CCCCCC"/>
<path d="M293.461 306.39C283.492 306.39 274.59 304.137 267.416 299.713C242.217 284.27 224.302 253.003 228.238 231.398C232.506 210.662 278.379 195.789 332.529 197.499C356.293 198.503 373.803 205.723 381.896 217.801C391.167 231.643 386.936 250.017 370.235 268.175C350.517 289.427 324.509 303.567 300.671 306.01C298.207 306.281 295.816 306.39 293.461 306.39ZM323.957 200.892C275.914 200.892 236.662 214.001 232.984 231.914C229.305 252.08 246.816 282.506 270.469 297.026C278.268 301.803 288.458 303.703 300.009 302.536C322.559 300.229 347.317 286.631 366.299 266.194C382.007 249.122 386.127 232.05 377.629 219.348C370.345 208.464 354.233 201.95 332.308 201C329.512 200.946 326.716 200.892 323.957 200.892Z" fill="#CCCCCC"/>
<path d="M295.712 292.874C287.692 292.874 280.409 291.164 274.302 287.826C253.15 276.237 241.268 252.922 247.816 235.85C254.474 218.968 289.053 208.817 326.466 212.726C343.056 214.544 355.233 220.624 360.751 229.852C367.005 240.301 363.914 253.546 352.29 266.194C338.936 280.633 321.021 290.187 303.143 292.386C300.641 292.711 298.14 292.874 295.712 292.874ZM252.414 236.827C246.454 252.325 257.785 274.391 277.135 285.003C284.014 288.776 292.732 290.133 302.37 288.939C318.74 286.903 335.957 277.675 348.39 264.24C359.059 252.624 361.965 240.627 356.41 231.291C351.591 223.202 340.702 217.856 325.803 216.227C291.261 212.59 258.337 221.845 252.414 236.827Z" fill="#CCCCCC"/>
<path d="M297.559 279.791C292.004 279.791 286.634 278.733 281.925 276.453C266.18 268.935 258.823 252.976 265.481 240.898C272.176 228.874 296.051 222.387 318.748 226.459C329.233 228.331 336.884 232.918 340.305 239.324C344.058 246.38 342.145 254.957 335.082 262.828C325.333 273.63 310.876 279.791 297.559 279.791ZM284.5 273.522C298.074 280.008 318.969 274.363 331.109 260.901C337.289 254.007 339.055 246.597 335.854 240.626C333.022 235.307 326.547 231.48 317.608 229.878C297.118 226.214 275.708 231.751 269.896 242.228C264.046 252.84 270.594 266.872 284.5 273.522Z" fill="#CCCCCC"/>
<path d="M298.944 266.954C295.927 266.954 292.984 266.438 290.299 265.352C281.102 261.634 277.387 253.085 282.059 246.272C286.657 239.541 299.275 236.311 310.127 239.08C315.351 240.41 319.176 243.069 320.832 246.598C322.598 250.316 321.752 254.659 318.478 258.486C313.806 263.887 306.264 266.954 298.944 266.954ZM301.887 241.604C295.228 241.604 288.938 243.965 286.252 247.874C282.758 253.003 285.553 259.463 292.543 262.258C299.496 265.081 309.318 262.53 314.394 256.586C316.932 253.627 317.595 250.506 316.27 247.738C315.093 245.241 312.334 243.341 308.508 242.364C306.338 241.848 304.094 241.604 301.887 241.604Z" fill="#CCCCCC"/>
</g>
</svg>
