<svg width="10" height="77" viewBox="0 0 10 77" fill="none" xmlns="http://www.w3.org/2000/svg">
<path fill-rule="evenodd" clip-rule="evenodd" d="M0 75.6685C0 71.9667 2.18136 70.1108 4.10339 68.4733C5.87458 66.9664 7.27458 65.7772 7.27458 63.2862C7.27458 60.7935 5.87458 59.6026 4.10339 58.094C2.18136 56.4565 0 54.6007 0 50.8989C0 47.1987 2.18136 45.3445 4.10339 43.7053C5.87458 42.2001 7.27458 41.0092 7.27458 38.5198C7.27458 36.0272 5.87458 34.8346 4.10339 33.3261C2.18136 31.6886 0 29.831 0 26.1293C0 22.4241 2.17966 20.5666 4.1017 18.9275C5.87458 17.4173 7.27458 16.2247 7.27458 13.7304C7.27458 11.2344 5.87458 10.0435 4.10339 8.53332C2.17966 6.89414 0 5.03497 0 1.33152C0 0.595463 0.61017 0 1.36271 0C2.11695 0 2.72712 0.595463 2.72712 1.33152C2.72712 3.82585 4.12712 5.01843 5.8983 6.52859C7.82203 8.16777 10 10.0253 10 13.7304C10 17.4338 7.82203 19.293 5.89661 20.9322C4.12712 22.4423 2.72712 23.6349 2.72712 26.1293C2.72712 28.6219 4.12712 29.8129 5.89661 31.3214C7.82203 32.9589 10 34.8164 10 38.5198C10 42.22 7.82034 44.0742 5.89661 45.7134C4.12542 47.2202 2.72712 48.4095 2.72712 50.8989C2.72712 53.3899 4.12542 54.5808 5.89661 56.0893C7.82034 57.7268 10 59.5844 10 63.2862C10 66.9863 7.82034 68.8438 5.89661 70.4797C4.12542 71.9865 2.72712 73.1775 2.72712 75.6685C2.72712 76.4029 2.11695 77 1.36271 77C0.61017 77 0 76.4029 0 75.6685Z" fill="#006EFF"/>
</svg>
