<svg width="11" height="78" viewBox="0 0 11 78" fill="none" xmlns="http://www.w3.org/2000/svg">
<mask id="mask0_2_105" style="mask-type:luminance" maskUnits="userSpaceOnUse" x="0" y="0" width="11" height="78">
<path fill-rule="evenodd" clip-rule="evenodd" d="M0.0917969 0.737549H10.2078V77.354H0.0917969V0.737549Z" fill="white"/>
</mask>
<g mask="url(#mask0_2_105)">
<path fill-rule="evenodd" clip-rule="evenodd" d="M0.0917969 76.0295C0.0917969 72.3478 2.29808 70.5011 4.24208 68.8701C6.03523 67.3708 7.44951 66.1874 7.44951 63.7088C7.44951 61.2285 6.03523 60.0452 4.24208 58.5425C2.29808 56.9131 0.0917969 55.0665 0.0917969 51.3831C0.0917969 47.703 2.29808 45.8564 4.24208 44.227C6.03523 42.7277 7.44951 41.5427 7.44951 39.0657C7.44951 36.5854 6.03523 35.4004 4.24208 33.8994C2.29808 32.2684 0.0917969 30.4218 0.0917969 26.7368C0.0917969 23.0518 2.29637 21.2018 4.24208 19.5708C6.03351 18.0698 7.44951 16.8815 7.44951 14.3996C7.44951 11.9177 6.03351 10.731 4.24208 9.23005C2.29637 7.59738 0.0917969 5.74911 0.0917969 2.06244C0.0917969 1.33169 0.70894 0.737549 1.4718 0.737549C2.23294 0.737549 2.85008 1.33169 2.85008 2.06244C2.85008 4.54601 4.26608 5.73265 6.05751 7.23365C8.00323 8.86467 10.2078 10.7129 10.2078 14.3996C10.2078 18.0846 8.00323 19.9345 6.0558 21.5656C4.26608 23.0682 2.85008 24.2549 2.85008 26.7368C2.85008 29.217 4.26608 30.4037 6.0558 31.903C8.00323 33.5341 10.2078 35.3807 10.2078 39.0657C10.2078 42.7474 8.00151 44.5941 6.0558 46.2234C4.26608 47.7228 2.85008 48.9078 2.85008 51.3831C2.85008 53.8634 4.26608 55.0468 6.0558 56.5478C8.00151 58.1771 10.2078 60.0254 10.2078 63.7088C10.2078 67.3905 8.00151 69.2388 6.0558 70.8682C4.26608 72.3675 2.85008 73.5525 2.85008 76.0295C2.85008 76.7602 2.23294 77.3544 1.4718 77.3544C0.70894 77.3544 0.0917969 76.7602 0.0917969 76.0295Z" fill="#006EFF"/>
</g>
</svg>
