<svg width="2042" height="701" viewBox="0 0 2042 701" fill="none" xmlns="http://www.w3.org/2000/svg">
<g opacity="0.3">
<path d="M780.984 700.402C773.694 700.402 766.598 699.83 759.779 698.688C745.478 696.292 732.266 691.374 720.508 684.068C707.871 676.218 696.788 665.521 687.563 652.276C669.023 625.653 659.748 593.771 650.777 562.937C649.014 556.883 647.193 550.622 645.343 544.548C632.72 503.147 616.718 466.882 596.427 433.68C555.949 367.45 499.024 310.926 431.803 270.222C354.062 223.15 270.478 199.701 196.446 204.197C152.934 206.841 95.4423 231.98 69.7479 274.915C54.4992 300.396 53.2697 328.673 66.1945 356.685L65.9378 356.803C59.161 342.112 56.2083 327.385 57.1643 313.029C58.0414 299.86 62.1926 286.987 69.5053 274.768C81.1357 255.333 100.316 238.108 124.972 224.953C147.756 212.799 173.132 205.327 196.429 203.912C235.173 201.561 276.378 206.779 318.901 219.423C357.447 230.887 395.482 247.895 431.949 269.976C499.21 310.704 556.169 367.258 596.669 433.528C616.972 466.752 632.982 503.037 645.613 544.461C647.466 550.535 649.288 556.798 651.048 562.853C660.01 593.664 669.28 625.523 687.794 652.107C705.7 677.819 729.936 693.395 759.827 698.401C801.221 705.335 851.488 690.832 894.287 659.604C955.964 614.604 998.768 549.103 1040.16 485.761C1047.42 474.659 1054.92 463.178 1062.35 452.092C1081.64 423.305 1107.75 386.002 1138.79 352.77C1170.52 318.802 1202.76 293.845 1237.36 276.471C1258.53 265.836 1280.98 258.671 1304.06 255.175C1325.38 251.945 1347.95 251.745 1371.14 254.575C1410.92 259.432 1453.78 273.15 1502.16 296.512C1597.43 342.515 1692.59 398.354 1785.01 462.479C1872.85 523.428 1959 592.395 2041.06 667.46L2040.87 667.668C1870.75 512.063 1689.46 387.273 1502.04 296.765C1396.15 245.631 1312.08 239.261 1237.48 276.722C1161.59 314.83 1108.57 383.604 1062.59 452.247C1055.16 463.33 1047.66 474.811 1040.4 485.914C998.993 549.278 956.175 614.798 894.456 659.83C874.512 674.383 852.074 685.733 829.572 692.653C817.685 696.309 805.869 698.699 794.447 699.759C789.896 700.191 785.403 700.402 780.984 700.402Z" fill="#A1A1A1"/>
<path d="M788.111 684.615C769.52 684.615 752.3 681.077 736.911 674.095C719.75 666.31 704.942 654.246 692.894 638.242C691.828 636.824 690.77 635.358 689.749 633.881C671.407 607.374 661.72 575.906 652.354 545.473C650.459 539.323 648.502 532.961 646.516 526.788C634.691 490.032 620.452 457.637 602.982 427.756C600.83 424.077 598.602 420.391 596.354 416.8C555.281 351.138 497.894 295.331 430.396 255.41C352.094 209.141 268.274 186.662 194.374 192.116C151.178 195.338 93.9509 220.889 68.1465 263.494C52.6948 289.006 50.9463 317.339 63.0843 345.433L62.8248 345.546C56.4625 330.821 53.8483 316.065 55.0581 301.693C56.1693 288.493 60.4897 275.592 67.9039 263.347C79.6527 243.946 98.7762 226.701 123.202 213.479C145.777 201.257 171.043 193.57 194.349 191.834C233.044 188.979 274.295 193.697 316.952 205.857C355.591 216.873 393.807 233.463 430.537 255.167C498.074 295.111 555.493 350.952 596.591 416.65C598.839 420.244 601.069 423.934 603.221 427.615C620.703 457.516 634.951 489.928 646.781 526.703C648.77 532.876 650.727 539.238 652.622 545.391C661.985 575.805 671.664 607.25 689.981 633.721C690.999 635.192 692.056 636.658 693.12 638.073C718.016 671.156 752.224 684.615 788.198 684.615C788.396 684.615 788.59 684.615 788.788 684.615C788.562 684.612 788.337 684.615 788.111 684.615ZM795.785 684.418C829.229 682.701 863.739 669.856 893.345 650.748C957.208 609.361 1003.11 545.439 1047.5 483.622C1049.32 481.074 1051.15 478.532 1052.98 475.989C1056.99 470.408 1061.75 463.801 1066.6 457.141C1088.39 427.271 1114.76 392.517 1145.12 361.235C1177.43 327.949 1209.71 303.249 1243.79 285.719C1264.74 274.96 1286.87 267.381 1309.58 263.192C1330.63 259.311 1352.86 258.214 1375.67 259.931C1415.07 262.899 1457.43 274.151 1505.18 294.333C1551.74 313.979 1590.01 332.473 1625.62 352.533C1676.07 380.98 1724.12 413.755 1764.47 442.064C1858.29 508.066 1950.34 583.012 2038.07 664.822L2037.88 665.028C1950.16 583.229 1858.12 508.289 1764.31 442.295C1723.96 413.989 1675.92 381.219 1625.48 352.782C1589.88 332.727 1551.62 314.239 1505.08 294.598C1401.06 250.632 1318.07 247.89 1243.92 285.973C1166.97 325.542 1112.16 395.161 1066.83 457.31C1061.97 463.97 1057.22 470.575 1053.21 476.158C1051.38 478.698 1049.55 481.243 1047.72 483.791C1003.32 545.628 957.405 609.573 893.497 650.991C877.651 661.217 860.789 669.34 843.378 675.133C827.17 680.519 811.194 683.634 795.785 684.418Z" fill="#A1A1A1"/>
<path d="M795.969 669.189C793.733 669.189 791.51 669.141 789.305 669.042C770.731 668.222 753.542 663.963 738.218 656.378C721.458 648.082 706.937 635.796 695.061 619.856C694.006 618.435 692.954 616.967 691.939 615.49C673.802 589.112 663.712 558.064 653.957 528.043C651.924 521.785 649.82 515.313 647.688 509.033C635.279 472.402 620.665 440.266 603.005 410.788C600.82 407.143 598.558 403.487 596.276 399.925C554.608 334.835 496.758 279.744 428.984 240.607C350.124 195.141 266.067 173.629 192.297 180.041C150.761 183.708 93.7012 207.803 66.5712 252.034C50.8968 277.588 48.6153 305.997 59.9721 334.19L59.7098 334.294C53.7593 319.524 51.489 304.735 52.9555 290.337C54.3035 277.095 58.8045 264.16 66.3315 251.887C78.2044 232.531 97.2659 215.281 121.457 201.996C143.821 189.715 168.971 181.82 192.271 179.762C230.922 176.405 272.217 180.622 315.008 192.297C353.742 202.867 392.136 219.038 429.125 240.364C496.939 279.527 554.82 334.649 596.513 399.775C598.795 403.341 601.059 406.997 603.245 410.647C620.913 440.142 635.536 472.297 647.95 508.949C650.082 515.232 652.186 521.703 654.219 527.961C663.971 557.966 674.053 588.991 692.167 615.337C693.183 616.814 694.229 618.28 695.284 619.695C743.539 684.463 829.058 677.509 892.402 641.89C958.929 604.15 1008.37 541.426 1056.18 480.767L1056.67 480.145C1061.3 474.265 1066.09 468.188 1070.86 462.187C1121.15 398.879 1176.43 333.818 1250.23 294.962C1270.95 284.076 1292.78 276.083 1315.11 271.203C1335.88 266.665 1357.78 264.673 1380.2 265.281C1419.28 266.341 1461.16 275.13 1508.21 292.149C1557.67 309.972 1594.88 326.354 1628.88 345.27C1677.33 372.276 1724.25 406.402 1765.65 436.511C1857.83 503.909 1948.48 579.833 2035.08 662.17L2034.88 662.373C1948.29 580.045 1857.65 504.129 1765.48 436.737C1724.09 406.633 1677.17 372.513 1628.75 345.515C1594.76 326.605 1557.56 310.228 1508.12 292.411C1406.12 255.52 1324.21 256.408 1250.36 295.207C1176.61 334.038 1121.35 399.071 1071.08 462.356C1066.31 468.357 1061.52 474.437 1056.89 480.314L1056.4 480.937C1032.57 511.164 1007.94 542.421 981.333 570.34C951.433 601.715 922.388 625.197 892.537 642.129C861.306 659.69 827.287 669.189 795.969 669.189Z" fill="#A1A1A1"/>
<path d="M2031.9 659.715C1946.43 576.857 1857.19 499.965 1766.66 431.178C1762.83 428.286 1758.99 425.38 1755.13 422.465C1715.92 392.807 1675.38 362.14 1632.02 338.249C1589.96 315.135 1547.33 301.002 1511.17 290.227C1411.38 260.298 1330.55 264.816 1256.81 304.441C1181.12 345.239 1122.46 412.975 1075.34 467.404C1072.51 470.671 1069.68 473.943 1066.86 477.219C1064.77 479.637 1062.68 482.055 1060.59 484.471C1033.76 515.494 1009.35 543.23 982.378 568.539C951.568 597.45 921.871 618.624 891.586 633.273C863.204 647.002 832.884 654.266 804.682 654.269C799.544 654.269 794.482 654.029 789.507 653.542C771.345 651.763 754.532 646.766 739.534 638.687C723.169 629.873 708.935 617.353 697.223 601.472C696.177 600.049 695.133 598.577 694.124 597.098C676.202 570.858 665.719 540.247 655.583 510.645C653.401 504.27 651.142 497.674 648.857 491.273C635.856 454.756 620.864 422.877 603.03 393.811C600.81 390.194 598.512 386.572 596.199 383.04C553.934 318.523 495.624 264.148 427.576 225.791C348.158 181.129 263.866 160.589 190.226 167.952C139.883 173.085 88.4041 202.923 65.0362 240.51C49.1164 266.118 46.2934 294.618 56.8662 322.929L56.6011 323.028C51.0652 308.204 49.1361 293.369 50.8677 278.935C52.4611 265.645 57.1482 252.667 64.7965 240.361C76.7935 221.061 95.7929 203.811 119.742 190.479C141.891 178.147 166.912 170.046 190.198 167.673C228.803 163.811 270.141 167.529 313.064 178.719C351.892 188.844 390.469 204.598 427.717 225.543C495.807 263.923 554.148 318.329 596.439 382.885C598.754 386.42 601.053 390.045 603.272 393.661C621.118 422.745 636.116 454.641 649.125 491.174C651.41 497.578 653.669 504.171 655.851 510.55C665.981 540.135 676.458 570.726 694.358 596.934C695.367 598.411 696.408 599.88 697.452 601.3C747.828 669.608 833.451 661.076 891.464 633.016C960.68 599.536 1013.65 538.308 1060.38 484.285C1062.47 481.867 1064.55 479.448 1066.64 477.033C1069.47 473.757 1072.3 470.485 1075.12 467.218C1102.03 436.15 1128.59 405.959 1157.8 378.139C1191.38 346.144 1223.73 321.957 1256.68 304.193C1277.19 293.175 1298.71 284.767 1320.65 279.205C1341.16 274.005 1362.72 271.119 1384.74 270.623C1423.58 269.749 1464.96 276.074 1511.26 289.956C1547.42 300.737 1590.07 314.876 1632.16 338.003C1675.53 361.903 1716.09 392.579 1755.31 422.243C1759.16 425.157 1763 428.063 1766.84 430.955C1857.37 499.748 1946.62 576.648 2032.1 659.515L2031.9 659.715Z" fill="#A1A1A1"/>
<path d="M2028.91 657.06C1942.95 572.087 1855.12 494.218 1767.84 425.62C1762.62 421.516 1757.28 417.285 1752.11 413.195C1715.11 383.903 1676.84 353.613 1635.29 330.982C1593.79 308.464 1550.8 296.636 1514.22 288.039C1416.85 264.934 1337.11 273.08 1263.26 313.675C1192.82 352.537 1137.64 410.974 1084.28 467.486L1078.41 473.69C1073.79 478.591 1069 483.656 1064.28 488.626C1010.86 544.814 957.388 597.475 890.632 624.411C874.433 630.947 857.799 635.477 841.189 637.881C823.351 640.46 806.024 640.497 789.687 637.988C771.943 635.263 755.509 629.538 740.845 620.972C724.885 611.65 710.937 598.902 699.391 583.083C698.35 581.651 697.315 580.177 696.314 578.7C678.612 552.616 667.752 522.456 657.249 493.288C654.906 486.78 652.481 480.049 650.033 473.512C636.428 437.109 621.064 405.486 603.06 376.837C600.81 373.257 598.477 369.663 596.128 366.159C553.267 302.214 494.498 248.555 426.171 210.979C346.191 167.126 261.663 147.553 188.15 155.871C138.267 161.635 87.0215 191.682 63.5352 228.943C47.3503 254.615 43.9689 283.225 53.7549 311.68L53.4869 311.773C48.3655 296.884 46.7834 281.993 48.7829 267.516C50.6273 254.17 55.509 241.142 63.2926 228.796C75.4193 209.561 94.3511 192.328 118.046 178.956C139.976 166.579 164.861 158.284 188.116 155.595C226.676 151.231 268.056 154.447 311.114 165.153C350.038 174.832 388.793 190.166 426.304 210.734C494.67 248.33 553.473 302.023 596.359 366.004C598.708 369.511 601.044 373.107 603.294 376.687C621.309 405.35 636.682 436.99 650.292 473.413C652.74 479.95 655.165 486.684 657.509 493.192C668.005 522.343 678.86 552.489 696.543 578.542C697.541 580.014 698.576 581.485 699.614 582.917C748.778 650.275 830.466 648.384 890.522 624.151C957.224 597.238 1010.68 544.597 1064.07 488.434C1068.79 483.465 1073.58 478.4 1078.21 473.498L1084.07 467.294C1110.26 439.555 1137.35 410.869 1166.76 384.185C1200.08 353.963 1231.6 330.819 1263.12 313.427C1283.41 302.271 1304.63 293.448 1326.17 287.208C1346.43 281.339 1367.66 277.557 1389.27 275.964C1427.93 273.114 1468.82 276.976 1514.28 287.763C1550.88 296.366 1593.89 308.196 1635.42 330.734C1677 353.374 1715.27 383.672 1752.28 412.972C1757.45 417.062 1762.79 421.29 1768.01 425.397C1855.3 494.001 1943.14 571.876 2029.1 656.857L2028.91 657.06Z" fill="#A1A1A1"/>
<path d="M2025.92 654.404C1940.7 568.488 1854.27 489.643 1769.02 420.064C1762.61 414.835 1756.04 409.398 1749.69 404.141C1714.68 375.165 1678.48 345.202 1638.55 323.721C1597.25 301.588 1554.07 292.16 1517.27 285.857C1422.6 269.393 1343.93 281.17 1269.7 322.915C1204.92 359.498 1151.74 411.345 1100.3 461.484C1094.89 466.761 1089.29 472.215 1083.84 477.5C1077.43 483.707 1072.54 488.423 1067.98 492.786C1043.52 516.142 1014.41 543.035 983.852 565.404C951.474 589.106 920.67 605.511 889.676 615.557C873.378 620.839 856.815 624.171 840.444 625.456C822.866 626.837 805.847 625.823 789.862 622.437C772.543 618.77 756.494 612.318 742.153 603.262C726.603 593.441 712.945 580.464 701.557 564.696C700.531 563.267 699.501 561.79 698.503 560.308C681.035 534.398 669.811 504.703 658.953 475.987C656.435 469.326 653.832 462.44 651.206 455.751C636.99 419.449 621.25 388.086 603.086 359.862C600.801 356.313 598.435 352.753 596.052 349.278C552.596 285.905 493.364 232.962 424.761 196.167C344.226 153.12 259.46 134.519 186.077 143.787C144.322 149.176 89.7855 174.003 62.0746 217.315C45.5992 243.067 41.6453 271.806 50.6444 300.424L50.3765 300.509C45.6697 285.544 44.4401 270.588 46.7188 256.055C48.8226 242.641 53.9074 229.557 61.8376 217.163C74.0941 198.007 92.9553 180.802 116.388 167.402C138.098 154.988 162.833 146.504 186.043 143.508C224.558 138.643 265.983 141.357 309.171 151.578C348.188 160.812 387.123 175.728 424.894 195.919C493.537 232.733 552.802 285.708 596.283 349.117C598.666 352.593 601.035 356.158 603.32 359.71C621.493 387.948 637.241 419.328 651.466 455.647C654.094 462.338 656.697 469.224 659.215 475.885C670.064 504.588 681.286 534.266 698.734 560.147C699.733 561.627 700.759 563.101 701.786 564.527C742.686 621.166 812.894 640.141 889.589 615.283C959.044 592.773 1015.7 542.322 1067.78 492.577C1072.35 488.214 1077.24 483.498 1083.64 477.292C1089.1 472.007 1094.69 466.552 1100.11 461.276C1125.43 436.592 1151.61 411.069 1179.54 387.17C1211.12 360.141 1240.57 339.04 1269.57 322.664C1289.67 311.361 1310.57 302.124 1331.71 295.213C1351.73 288.665 1372.62 283.989 1393.81 281.308C1432.37 276.432 1472.78 277.827 1517.32 285.573C1554.13 291.881 1597.35 301.312 1638.69 323.464C1678.64 344.96 1714.85 374.931 1749.87 403.915C1756.22 409.172 1762.79 414.609 1769.19 419.838C1854.45 489.426 1940.89 568.276 2026.12 654.198L2025.92 654.404Z" fill="#A1A1A1"/>
<path d="M2022.93 651.749C1938.45 564.883 1853.42 485.06 1770.19 414.506C1763.11 408.505 1755.84 402.205 1748.8 396.114C1715.3 367.098 1680.66 337.096 1641.82 316.455C1600.49 294.587 1557.2 287.611 1520.32 283.67C1429.94 273.757 1350.07 289.615 1276.15 332.149C1217.29 366.171 1166.83 411.684 1118.04 455.701C1108.18 464.591 1097.99 473.786 1088.08 482.549C1082.02 487.913 1076.65 492.623 1071.66 496.947C1048.45 517.033 1017.57 542.787 984.577 563.834C951.423 584.98 920.065 599.003 888.714 606.701C854.519 615.098 820.393 615.16 790.025 606.884C773.141 602.281 757.472 595.105 743.453 585.552C728.317 575.239 714.95 562.036 703.717 546.316C702.699 544.884 701.678 543.404 700.685 541.922C683.465 516.21 671.891 487.002 660.701 458.759C657.994 451.927 655.196 444.863 652.373 437.999C637.533 401.793 621.419 370.683 603.108 342.897C600.79 339.379 598.39 335.85 595.973 332.406C551.922 269.605 492.23 217.375 423.351 181.366C342.26 139.128 257.257 121.497 184.001 131.715C134.355 138.79 84.7848 168.499 60.6556 205.638C43.8643 231.482 39.3267 260.371 47.5333 289.181L47.2626 289.257C42.9732 274.202 42.0989 259.168 44.6624 244.572C47.0313 231.082 52.3333 217.93 60.4187 205.483C72.8048 186.417 91.5927 169.251 114.752 155.84C136.233 143.401 160.814 134.731 183.961 131.433C222.431 126.066 263.902 128.282 307.222 138.015C346.335 146.803 385.451 161.303 423.48 181.112C492.399 217.144 552.125 269.402 596.204 332.242C598.621 335.687 601.021 339.218 603.342 342.739C621.661 370.543 637.784 401.667 652.633 437.89C655.456 444.753 658.253 451.82 660.96 458.652C672.145 486.881 683.714 516.074 700.917 541.761C701.909 543.244 702.927 544.718 703.945 546.15C744.144 602.422 813.19 624.955 888.646 606.428C957.435 589.535 1017.17 543.723 1071.48 496.735C1076.47 492.411 1081.84 487.704 1087.9 482.34C1097.8 473.577 1107.99 464.385 1117.85 455.495C1166.65 411.47 1217.12 365.945 1276 331.91C1295.93 320.446 1316.53 310.798 1337.23 303.227C1357.04 295.988 1377.6 290.416 1398.33 286.664C1436.89 279.688 1476.8 278.619 1520.34 283.394C1557.26 287.338 1600.57 294.317 1641.95 316.209C1680.82 336.865 1715.47 366.878 1748.99 395.905C1756.02 401.996 1763.29 408.293 1770.37 414.294C1853.61 484.855 1938.65 564.683 2023.13 651.555L2022.93 651.749Z" fill="#A1A1A1"/>
<path d="M2019.94 649.094C1936.21 561.269 1852.58 480.474 1771.36 408.95C1763.9 402.376 1756.22 395.417 1748.8 388.686C1716.52 359.425 1683.14 329.167 1645.08 309.19C1603.58 287.509 1560.26 283.019 1523.36 281.486C1436.4 277.607 1357.64 297.2 1282.59 341.386C1229.96 372.521 1183.04 411.926 1137.66 450.032C1122.06 463.136 1107.32 475.513 1092.33 487.597C1086.24 492.515 1080.68 496.935 1075.35 501.104C1040.96 527.98 1012.35 547.412 985.304 562.255C951.375 580.879 919.468 592.52 887.758 597.841C875.456 599.905 863.2 600.934 851.166 600.934C829.834 600.934 809.194 597.709 790.191 591.322C755.802 579.762 727.437 558.433 705.883 527.927C704.868 526.481 703.855 525.001 702.874 523.524C685.916 498.034 674.018 469.346 662.512 441.599C659.596 434.569 656.584 427.302 653.546 420.236C638.072 384.114 621.58 353.264 603.136 325.919C600.784 322.433 598.35 318.935 595.899 315.521C551.253 253.293 491.099 201.779 421.943 166.551C340.297 125.124 255.06 108.46 181.931 119.628C132.079 127.399 83.9387 156.544 59.2933 193.881C42.1608 219.832 37.0225 248.893 44.4282 277.923L44.1547 277.993C40.2882 262.834 39.775 247.709 42.6318 233.038C45.2771 219.457 50.8018 206.232 59.0592 193.726C71.5751 174.764 90.2812 157.655 113.158 144.243C134.408 131.785 158.817 122.945 181.889 119.349C220.313 113.48 261.829 115.194 305.279 124.442C344.488 132.788 383.781 146.871 422.073 166.297C491.269 201.547 551.456 253.09 596.131 315.355C598.581 318.771 601.015 322.269 603.37 325.759C621.825 353.117 638.326 383.984 653.806 420.12C656.843 427.187 659.858 434.456 662.771 441.486C674.272 469.219 686.164 497.896 703.108 523.363C704.089 524.837 705.099 526.317 706.114 527.76C746.363 584.732 812.553 610.173 887.71 597.56C959.254 585.552 1022.62 541.95 1075.18 500.878C1080.51 496.71 1086.06 492.293 1092.16 487.374C1107.14 475.29 1121.88 462.916 1137.48 449.812C1182.86 411.698 1229.8 372.287 1282.45 341.14C1302.22 329.499 1322.51 319.436 1342.77 311.228C1362.39 303.28 1382.61 296.811 1402.87 292.005C1441.5 282.841 1480.92 279.307 1523.37 281.201C1560.3 282.734 1603.66 287.23 1645.21 308.937C1683.31 328.927 1716.7 359.2 1748.99 388.472C1756.41 395.203 1764.09 402.162 1771.55 408.733C1852.77 480.263 1936.41 561.066 2020.14 648.896L2019.94 649.094Z" fill="#A1A1A1"/>
<path d="M2016.95 646.439C1932.81 556.399 1852.86 476.897 1772.54 403.392C1764.88 396.379 1757.33 389.216 1749.34 381.634C1718.12 351.993 1685.82 321.345 1648.35 301.927C1606.32 280.254 1561.11 278.45 1526.41 279.301C1443.41 281.072 1365.76 304.402 1289.04 350.626C1243 378.494 1200.5 411.96 1159.4 444.327C1137.79 461.338 1117.39 477.402 1096.58 492.648C1090.41 497.178 1084.67 501.304 1079.04 505.265C1044.18 529.776 1014.63 547.382 986.027 560.675C951.311 576.809 918.854 586.068 886.8 588.983C870.33 590.479 853.973 590.197 838.183 588.145C821.465 585.972 805.373 581.803 790.356 575.757C757.069 562.354 729.378 540.078 708.049 509.543C707.043 508.095 706.039 506.612 705.063 505.135C688.39 479.908 676.193 451.766 664.396 424.551C661.249 417.291 657.994 409.782 654.72 402.481C638.597 366.439 621.733 335.844 603.162 308.951C600.773 305.496 598.306 302.029 595.827 298.646C550.586 236.99 489.972 186.192 420.54 151.744C356.454 120.082 290.367 103.562 229.764 103.562C212.632 103.562 195.951 104.881 179.862 107.55C130.61 115.882 82.7719 145.132 57.9827 182.068C40.4865 208.141 34.7249 237.399 41.3212 266.677L41.0448 266.739C37.6014 251.461 37.4576 236.232 40.6162 221.476C43.5435 207.797 49.3079 194.484 57.7458 181.91C70.3914 163.067 89.0101 146.028 111.594 132.631C132.912 119.983 156.502 111.214 179.811 107.274C218.19 100.904 259.751 102.119 303.334 110.879C342.636 118.777 382.112 132.439 420.664 151.488C490.136 185.955 550.786 236.782 596.055 298.474C598.537 301.857 601.007 305.326 603.396 308.785C621.975 335.692 638.848 366.3 654.98 402.36C658.254 409.66 661.511 417.169 664.658 424.433C676.45 451.636 688.641 479.767 705.3 504.974C706.276 506.449 707.279 507.931 708.283 509.377C748.169 566.475 813.224 595.384 886.777 588.698C961.204 581.93 1028.54 540.428 1078.89 505.028C1084.51 501.068 1090.25 496.941 1096.42 492.414C1117.23 477.174 1137.63 461.107 1159.23 444.099C1200.34 411.729 1242.84 378.254 1288.9 350.378C1328.4 326.579 1367.16 309.236 1407.4 297.352C1446.22 285.892 1485.14 279.893 1526.41 279.014C1549.95 278.436 1569.16 279.44 1586.86 282.168C1609.71 285.691 1629.87 292.07 1648.49 301.671C1685.99 321.105 1718.3 351.77 1749.54 381.426C1757.53 389.008 1765.08 396.167 1772.74 403.18C1853.06 476.689 1933.01 556.196 2017.16 646.242L2016.95 646.439Z" fill="#A1A1A1"/>
<path d="M2013.96 643.783C1930.59 552.756 1852 472.308 1773.71 397.833C1765.97 390.464 1758.33 382.874 1750.25 374.838C1719.95 344.728 1688.63 313.59 1651.62 294.66C1609.24 273.088 1564.07 273.951 1529.46 277.111C1451.13 284.014 1374.59 311.082 1295.48 359.856C1256.5 384.004 1219.39 411.638 1183.49 438.365C1155.12 459.491 1128.32 479.448 1100.83 497.687C1094.62 501.814 1088.53 505.76 1082.73 509.413C1047.81 531.41 1016.41 547.654 986.749 559.076C951.234 572.752 918.227 579.635 885.84 580.114C869.362 580.357 853.07 578.869 837.427 575.686C821.028 572.349 805.246 567.132 790.519 560.175C758.375 544.991 731.355 521.768 710.212 491.148C709.219 489.702 708.221 488.217 707.248 486.731C690.888 461.811 678.426 434.264 666.373 407.625C662.963 400.087 659.435 392.291 655.89 384.711C639.107 348.737 621.868 318.402 603.187 291.968C600.765 288.543 598.263 285.107 595.75 281.756C549.914 220.672 488.838 170.59 419.129 136.923C336.375 97.1232 250.661 82.3983 177.786 95.4602C129.172 104.325 81.6521 133.651 56.7247 170.167C38.8336 196.378 32.4319 225.856 38.2076 255.418L37.9312 255.472C34.9192 240.062 35.1505 224.714 38.6221 209.857C41.8456 196.065 47.8553 182.656 56.4906 170.006C69.2603 151.298 87.7859 134.344 110.065 120.975C131.137 108.33 154.536 99.412 177.735 95.1811C216.072 88.312 257.675 89.0223 301.388 97.298C340.785 104.756 380.44 118.001 419.251 136.667C489.002 170.35 550.112 220.464 595.973 281.584C598.489 284.935 600.993 288.374 603.416 291.802C622.108 318.25 639.353 348.598 656.144 384.587C659.692 392.167 663.217 399.963 666.629 407.503C678.677 434.132 691.134 461.667 707.482 486.571C708.455 488.053 709.453 489.539 710.443 490.982C750.749 549.351 813.038 580.909 885.835 579.827C944.903 578.953 1007.42 556.5 1082.58 509.168C1088.37 505.515 1094.46 501.572 1100.67 497.445C1128.16 479.208 1154.95 459.257 1183.32 438.131C1219.22 411.402 1256.34 383.762 1295.33 359.608C1335.22 335.015 1373.36 316.4 1411.93 302.693C1451.01 288.808 1489.44 280.344 1529.43 276.82C1564.09 273.655 1609.31 272.795 1651.75 294.401C1688.8 313.354 1720.14 344.506 1750.45 374.629C1758.53 382.665 1766.17 390.253 1773.91 397.618C1852.2 472.097 1930.79 552.551 2014.16 643.583L2013.96 643.783Z" fill="#A1A1A1"/>
<path d="M2010.97 641.128C1928.37 549.112 1851.16 467.711 1774.89 392.277C1767.15 384.619 1759.51 376.661 1751.42 368.236C1721.98 337.589 1691.54 305.898 1654.89 287.396C1612.11 265.904 1567.02 269.441 1532.51 274.924C1458.81 286.41 1385.54 316.333 1301.93 369.093C1270.57 388.971 1239.92 410.776 1210.28 431.863C1174.29 457.473 1140.29 481.666 1105.08 502.736C1098.74 506.535 1092.46 510.183 1086.42 513.571C1050.87 533.51 1018.5 547.874 987.473 557.48C970.093 562.861 952.935 566.76 936.476 569.068C918.921 571.529 901.563 572.264 884.884 571.255C851.045 569.206 819.352 560.237 790.688 544.599C759.731 527.709 733.385 503.542 712.384 472.762C711.396 471.305 710.407 469.816 709.439 468.339C693.429 443.786 680.744 416.893 668.479 390.887C664.765 383.015 660.927 374.874 657.066 366.954C639.607 331.038 621.992 300.96 603.215 274.997C600.759 271.6 598.221 268.195 595.677 264.878C549.246 204.363 487.71 154.997 417.725 122.117C334.417 83.1313 248.47 69.3761 175.716 83.3822C97.8142 98.6115 21.904 164.414 35.1023 244.169L34.8231 244.214C31.5207 224.263 33.4554 204.608 40.5706 185.791C47.0683 168.605 57.7313 152.432 72.2636 137.724C85.775 124.047 101.985 112.24 120.44 102.628C137.993 93.4872 157.088 86.7336 175.659 83.1031C213.951 75.7322 255.599 75.9436 299.444 83.7345C338.938 90.7502 378.773 103.578 417.843 121.863C487.868 154.766 549.44 204.16 595.9 264.709C598.446 268.029 600.984 271.434 603.444 274.833C622.229 300.808 639.852 330.903 657.32 366.833C661.181 374.753 665.019 382.893 668.733 390.769C680.995 416.766 693.675 443.648 709.676 468.187C710.641 469.664 711.628 471.152 712.615 472.607C752.98 531.76 814.166 566.692 884.901 570.976C944.784 574.598 1010.66 555.744 1086.29 513.328C1092.32 509.94 1098.6 506.296 1104.94 502.496C1140.13 481.432 1174.13 457.242 1210.12 431.634C1239.76 410.545 1270.41 388.737 1301.77 368.856C1385.43 316.074 1458.73 286.139 1532.47 274.644C1555.65 270.96 1574.85 269.782 1592.89 270.941C1615.94 272.421 1636.26 277.72 1655.01 287.143C1691.7 305.664 1722.16 337.374 1751.62 368.039C1759.71 376.461 1767.35 384.418 1775.09 392.074C1851.36 467.513 1928.58 548.917 2011.17 640.939L2010.97 641.128Z" fill="#A1A1A1"/>
<path d="M2007.98 638.473C1926.17 545.453 1850.31 463.105 1776.07 386.719C1768.39 378.815 1760.8 370.537 1752.76 361.768C1724.12 330.534 1694.5 298.234 1658.15 280.13C1614.45 258.457 1567.26 265.529 1535.56 272.734C1449.53 292.047 1372.44 336.949 1308.37 378.33C1285.35 393.264 1262.38 409.082 1240.17 424.379C1195.6 455.066 1153.52 484.051 1109.34 507.784C1102.84 511.277 1096.37 514.623 1090.12 517.732C1053.87 535.712 1020.53 548.193 988.204 555.883C951.553 564.601 916.473 566.794 883.932 562.397C850.501 557.878 819.186 546.648 790.861 529.018C761.15 510.527 735.478 485.415 714.553 454.379C713.577 452.921 712.593 451.43 711.631 449.948C696.019 425.845 683.176 399.69 670.753 374.395C666.683 366.106 662.473 357.537 658.243 349.196C639.841 312.83 622.364 283.862 603.247 258.026C600.756 254.66 598.187 251.289 595.607 248C548.575 188.06 486.577 139.41 416.315 107.307C332.455 69.1396 246.271 56.3512 173.64 71.3015C95.4597 87.6077 21.1006 152.517 31.992 232.92L31.7128 232.956C29.0111 213.008 31.349 193.373 38.6589 174.598C45.3596 157.396 56.0846 141.205 70.5408 126.48C84.0212 112.748 100.147 100.853 118.472 91.1198C135.921 81.8519 154.979 74.9038 173.584 71.0225C211.834 63.1499 253.524 62.8624 297.499 70.1656C337.088 76.7388 377.104 89.1495 416.434 107.051C486.737 139.17 548.77 187.849 595.824 247.825C598.404 251.117 600.976 254.491 603.469 257.857C622.599 283.704 640.081 312.689 658.491 349.07C662.721 357.41 666.931 365.982 671.001 374.271C683.421 399.558 696.261 425.704 711.862 449.795C712.824 451.278 713.805 452.766 714.781 454.224C755.459 514.555 815.543 552.872 883.965 562.118C945.332 570.41 1012.72 555.806 1089.99 517.478C1096.24 514.372 1102.71 511.029 1109.2 507.536C1153.37 483.809 1195.45 454.83 1240.01 424.145C1262.22 408.848 1285.19 393.027 1308.22 378.091C1351.3 350.267 1387.14 329.711 1421 313.399C1460.86 294.198 1498.31 280.806 1535.5 272.457C1558.16 267.305 1577.92 264.971 1595.9 265.326C1619.05 265.783 1639.45 270.541 1658.28 279.876C1694.68 298.003 1724.31 330.322 1752.96 361.576C1761 370.342 1768.59 378.621 1776.27 386.519C1850.52 462.908 1926.38 545.262 2008.19 638.284L2007.98 638.473Z" fill="#A1A1A1"/>
<path d="M2004.99 635.814C1923.97 541.789 1849.48 458.491 1777.25 381.157C1769.67 373.048 1762.17 364.482 1754.24 355.411C1726.36 323.549 1697.53 290.601 1661.42 272.863C1617.24 251.241 1570.17 261.182 1538.61 270.543C1460.67 293.462 1391.15 337.101 1314.82 387.564C1301.06 396.699 1287.13 406.128 1273.67 415.249C1221.88 450.325 1168.33 486.593 1113.59 512.829C1106.94 516.02 1100.28 519.067 1093.81 521.886C1057.32 537.761 1022.03 548.658 988.929 554.275C951.432 560.64 915.785 560.389 882.97 553.534C850.008 546.648 819.074 533.155 791.024 513.43C762.639 493.468 737.636 467.415 716.71 435.995C715.743 434.535 714.767 433.041 713.811 431.558C698.67 408.019 685.745 382.716 673.246 358.247C668.742 349.43 664.086 340.314 659.407 331.444C640.287 295.114 622.446 266.394 603.264 241.06C600.745 237.734 598.139 234.391 595.522 231.126C547.904 171.751 485.449 123.816 414.905 92.4976C330.495 55.1471 244.077 43.3283 171.565 59.2201C95.866 75.9913 20.1334 138.623 28.8788 221.667L28.5996 221.695C26.4985 201.747 29.2397 182.135 36.7442 163.402C43.6451 146.18 54.435 129.975 68.8122 115.233C95.3387 88.0384 132.768 67.5212 171.503 58.9411C209.707 50.5696 251.443 49.7803 295.55 56.5959C335.236 62.7294 375.429 74.7201 415.018 92.2383C485.601 123.574 548.093 171.539 595.742 230.943C598.362 234.21 600.968 237.553 603.489 240.882C622.68 266.23 640.529 294.961 659.656 331.306C664.334 340.179 668.993 349.294 673.497 358.111C685.993 382.575 698.915 407.873 714.048 431.4C715.001 432.883 715.977 434.374 716.944 435.834C758.81 498.696 816.239 539.3 883.024 553.255C944.864 566.176 1015.74 555.535 1093.69 521.626C1100.16 518.808 1106.81 515.764 1113.46 512.576C1168.18 486.348 1221.72 450.085 1273.5 415.015C1286.97 405.894 1300.89 396.465 1314.66 387.33C1348.07 365.24 1386.94 339.903 1425.53 318.748C1465.89 296.622 1502.85 280.766 1538.52 270.275C1560.98 263.615 1580.74 260.159 1598.91 259.714C1621.83 259.15 1642.9 263.491 1661.54 272.612C1677.71 280.558 1693.99 292.416 1711.3 308.866C1726.59 323.391 1740.75 339.576 1754.44 355.225C1762.38 364.293 1769.87 372.859 1777.45 380.965C1849.68 458.302 1924.18 541.603 2005.2 635.631L2004.99 635.814Z" fill="#A1A1A1"/>
<path d="M2002 633.159C1921.77 538.119 1848.64 453.871 1778.42 375.602C1770.98 367.315 1763.62 358.489 1755.82 349.148C1728.66 316.623 1700.59 282.991 1664.69 265.602C1631.14 249.403 1590.9 250.305 1541.66 268.359C1472.81 293.459 1411.27 335.444 1346.11 379.897C1338 385.433 1329.61 391.155 1321.27 396.807C1318 399.025 1314.73 401.249 1311.46 403.47C1249.37 445.663 1185.18 489.293 1117.84 517.881C1111.03 520.773 1104.19 523.521 1097.5 526.046C1060.21 540.12 1023.92 549.078 989.666 552.669C951.303 556.688 915.084 553.999 882.02 544.675C849.571 535.523 819.018 519.766 791.208 497.843C764.253 476.592 739.921 449.601 718.885 417.611C717.926 416.148 716.959 414.652 716.009 413.166C701.442 390.366 688.56 366.083 676.098 342.6C671.052 333.09 665.832 323.256 660.59 313.683C640.73 277.379 622.529 248.907 603.301 224.086C600.746 220.788 598.109 217.479 595.458 214.246C547.236 155.445 484.318 108.223 413.498 77.6884C328.541 41.1582 241.883 30.3062 169.492 47.1395C95.184 64.5618 19.5586 127.706 25.7714 210.418L25.4894 210.44C23.9918 190.49 27.1335 170.9 34.8325 152.215C41.9365 134.973 52.7885 118.748 67.0895 103.995C93.5032 76.7442 130.803 55.9225 169.428 46.866C207.59 37.9928 249.368 36.7019 293.605 43.0326C333.386 48.7208 373.762 60.2943 413.611 77.4291C484.471 107.984 547.428 155.231 595.669 214.062C598.32 217.295 600.963 220.61 603.518 223.908C622.754 248.744 640.967 277.224 660.832 313.542C666.078 323.115 671.295 332.952 676.343 342.462C688.8 365.939 701.682 390.216 716.243 413.008C717.193 414.494 718.158 415.988 719.116 417.451C761.89 482.495 818.245 526.39 882.093 544.396C945.121 562.171 1017.56 555.905 1097.4 525.776C1104.08 523.25 1110.92 520.505 1117.72 517.616C1185.04 489.04 1249.23 445.418 1311.3 403.23C1314.57 401.006 1317.84 398.785 1321.1 396.567C1329.45 390.916 1337.84 385.194 1345.95 379.66C1411.12 335.198 1472.68 293.203 1541.56 268.091C1563.81 259.934 1583.55 255.359 1601.93 254.099C1624.94 252.523 1646.09 256.309 1664.81 265.346C1680.89 273.134 1696.96 285.046 1713.95 301.763C1728.94 316.513 1742.72 333.011 1756.04 348.965C1763.83 358.303 1771.2 367.126 1778.63 375.41C1848.86 453.682 1921.99 537.933 2002.21 632.976L2002 633.159Z" fill="#A1A1A1"/>
<path d="M1999.01 630.504C1925.79 541.941 1851.97 454.308 1779.6 370.043C1772.23 361.514 1764.93 352.35 1757.19 342.651C1732.05 311.099 1703.56 275.338 1667.95 258.338C1634.02 242.168 1593.7 244.73 1544.7 266.169C1486.45 291.576 1434.89 328.935 1380.31 368.487C1363.21 380.873 1345.54 393.684 1327.71 406.041C1296.59 427.657 1262.92 450.531 1227.63 471.364C1189.84 493.677 1155.31 510.541 1122.08 522.926C1115.1 525.528 1108.07 527.977 1101.18 530.201C1063.1 542.499 1025.83 549.498 990.413 551.003C951.204 552.666 914.413 547.559 881.056 535.81C819.458 513.847 765.621 467.894 721.043 399.225C720.092 397.759 719.133 396.26 718.189 394.774C704.361 372.98 691.705 349.988 679.465 327.751C673.703 317.286 667.747 306.462 661.754 295.928C641.139 259.632 622.571 231.411 603.321 207.117C600.729 203.847 598.058 200.569 595.376 197.37C546.568 139.136 483.188 92.6332 412.091 62.8791C326.584 27.1663 239.692 17.2867 167.42 35.0586C92.6601 53.5464 18.9299 115.854 22.661 199.168L22.379 199.18C21.485 179.223 25.0327 159.656 32.9207 141.019C40.2306 123.754 51.1446 107.513 65.3638 92.7488C78.7596 78.8385 94.6371 66.6759 112.554 56.5962C129.948 46.8125 148.384 39.4727 167.349 34.7824C205.469 25.4102 247.292 23.6175 291.659 29.4607C331.536 34.7119 372.09 45.8655 412.198 62.6169C483.337 92.388 546.754 138.919 595.591 197.181C598.273 200.383 600.949 203.664 603.541 206.934C622.799 231.242 641.376 259.474 662 295.782C667.993 306.318 673.949 317.142 679.71 327.611C691.95 349.844 704.604 372.834 718.426 394.619C719.367 396.108 720.329 397.604 721.277 399.07C765.821 467.685 819.61 513.602 881.149 535.543C944.538 557.867 1020.59 555.927 1101.1 529.931C1107.97 527.707 1115 525.26 1121.98 522.661C1196.29 494.973 1264.28 449.753 1327.54 405.807C1345.37 393.45 1363.05 380.641 1380.14 368.256C1434.73 328.696 1486.3 291.328 1544.59 265.909C1593.66 244.437 1634.06 241.874 1668.07 258.082C1684.02 265.695 1699.85 277.63 1716.47 294.561C1731.13 309.492 1744.49 326.26 1757.42 342.474C1765.15 352.173 1772.44 361.333 1779.81 369.857C1852.18 454.125 1926 541.758 1999.22 630.324L1999.01 630.504Z" fill="#A1A1A1"/>
<path d="M1996.02 627.849C1923.92 538.795 1851.5 450.187 1780.77 364.485C1773.63 355.862 1766.55 346.538 1759.05 336.667C1734.53 304.379 1706.73 267.781 1671.22 251.069C1636.88 234.926 1596.49 239.149 1547.75 263.973C1496.69 289.944 1449.77 326.615 1404.4 362.083C1381.65 379.866 1358.12 398.255 1334.15 415.272C1296.32 442.156 1264.48 462.665 1233.96 479.817C1196.34 500.966 1161.13 516.716 1126.33 527.969C1119.18 530.28 1111.96 532.428 1104.87 534.353C1067.92 544.379 1031.63 549.453 996.91 549.456C994.981 549.456 993.064 549.439 991.146 549.408C951.009 548.754 913.648 541.194 880.099 526.943C863.906 520.026 848.048 511.245 832.969 500.844C818.795 491.069 804.866 479.555 791.569 466.623C767.645 443.357 745.281 415.294 723.205 380.836C722.258 379.353 721.313 377.868 720.374 376.377C707.565 356.045 695.446 334.792 683.729 314.239C676.963 302.375 669.969 290.105 662.924 278.162C641.235 241.367 622.861 214.217 603.343 190.137C600.717 186.899 598.013 183.651 595.297 180.483C545.896 122.827 482.056 77.04 410.684 48.0667C324.629 13.1741 237.5 4.26424 165.347 22.9747C91.9886 42.0516 18.3543 104.832 19.5528 187.913L19.2708 187.916C18.7124 149.218 34.0569 112.42 63.6432 81.502C77.0164 67.5269 92.8093 55.2769 110.588 45.0845C127.886 35.1684 146.285 27.6368 165.276 22.6985C203.351 12.8246 245.219 10.533 289.716 15.8885C329.689 20.7 370.423 31.4364 410.788 47.8017C482.206 76.7948 546.082 122.61 595.514 180.3C598.23 183.471 600.94 186.721 603.566 189.96C623.092 214.054 641.474 241.212 663.17 278.021C670.215 289.967 677.211 302.237 683.974 314.1C695.692 334.652 707.807 355.902 720.614 376.227C721.553 377.718 722.495 379.204 723.442 380.684C770.353 453.908 821.632 501.665 880.209 526.683C961.342 561.15 1047.12 549.732 1104.8 534.082C1111.89 532.157 1119.1 530.012 1126.24 527.701C1206.27 501.82 1279.3 453.899 1333.99 415.043C1357.96 398.033 1381.48 379.643 1404.23 361.863C1449.61 326.39 1496.53 289.707 1547.62 263.725C1569.43 252.616 1589.17 245.795 1607.96 242.875C1631.14 239.273 1652.46 241.945 1671.34 250.818C1687.24 258.302 1702.92 270.332 1719.27 287.593C1733.68 302.803 1746.7 319.932 1759.28 336.501C1766.77 346.369 1773.85 355.69 1780.99 364.307C1851.71 450.009 1924.13 538.618 1996.24 627.671L1996.02 627.849Z" fill="#A1A1A1"/>
<path d="M1993.03 625.194L1781.95 358.929C1775.06 350.233 1768.21 340.771 1760.96 330.756C1737.04 297.704 1709.93 260.244 1674.49 243.808C1640.21 227.916 1598.6 233.965 1550.8 261.789C1504.85 288.535 1462.94 324.104 1422.41 358.503C1395.99 380.926 1368.67 404.11 1340.6 424.514C1256.23 485.844 1182.5 522.067 1108.57 538.514C1077.89 545.335 1047.64 548.768 1018.29 548.768C1009.4 548.768 1000.59 548.452 991.883 547.821C950.799 544.844 912.867 534.838 879.147 518.084C847.894 502.553 819.303 480.629 791.75 451.055C769.747 427.44 748.655 399.287 725.375 362.455C713.087 343.018 701.189 322.822 689.683 303.291C663.641 259.094 636.714 213.392 603.377 173.169C552.242 111.476 485.122 63.0962 409.274 33.2575C322.675 -0.811993 235.31 -8.75506 163.274 10.894C93.5318 29.9174 17.8358 89.9048 16.4427 176.664L16.1606 176.658C16.7839 137.879 32.6078 101.087 61.9206 70.2585C88.4244 42.3844 124.393 21.2048 163.201 10.6206C201.234 0.247837 243.147 -2.54549 287.77 2.32239C327.839 6.69136 368.754 17.0134 409.378 32.9954C446.909 47.7597 482.553 67.1946 515.323 90.7617C548.367 114.526 578.066 142.189 603.592 172.983C636.943 213.22 663.878 258.933 689.925 303.142C701.432 322.669 713.33 342.863 725.614 362.297C759.58 416.039 807.743 482.281 879.274 517.824C961.306 558.585 1049.21 551.42 1108.5 538.232C1182.4 521.796 1256.1 485.587 1340.43 424.28C1368.49 403.884 1395.81 380.701 1422.22 358.284C1462.76 323.879 1504.68 288.301 1550.66 261.54C1598.54 233.669 1640.24 227.615 1674.61 243.549C1690.48 250.908 1706.01 263.043 1722.1 280.651C1736.27 296.151 1748.94 313.658 1761.19 330.587C1768.44 340.602 1775.28 350.059 1782.17 358.752L1993.25 625.016L1993.03 625.194Z" fill="#A1A1A1"/>
<path d="M1991.33 604.725C1937.58 530.588 1891.46 470.428 1846.2 415.405C1824.22 388.675 1801.78 362.365 1779.5 337.206C1772.76 329.595 1766.08 321.5 1759.01 312.928C1741.24 291.385 1722.87 269.109 1701.73 252.577C1690.38 243.684 1679.45 237.317 1668.32 233.112C1634.16 220.075 1594.08 228.695 1549.2 258.733C1525.97 274.256 1504.81 291.921 1487.19 307.153C1468.53 323.279 1450.12 341.062 1432.32 358.259C1406.73 382.979 1380.27 408.538 1351.83 430.49C1334.52 443.888 1316.98 455.859 1299.68 466.074C1265.08 486.509 1227.93 503.348 1189.29 516.122C1165.41 523.927 1141.41 529.827 1117.98 533.655C1097.78 536.941 1077.54 538.838 1057.82 539.292C1028.31 539.974 999.566 537.372 972.374 531.552C943.462 525.362 916.101 515.482 891.052 502.184C868.716 490.326 847.619 475.395 826.555 456.535C787.304 421.42 755.997 380.817 733.109 349.366C721.865 333.843 710.886 318.013 700.268 302.705C669.695 258.618 640.816 216.977 604.679 179.886C575.205 149.833 541.578 123.899 504.721 102.798C476.398 86.5819 445.593 73.3199 413.164 63.3784C405.44 61.0135 397.569 58.8093 389.777 56.8334C356.228 48.3407 318.461 42.8104 277.526 40.3948C236.256 37.9031 200.55 40.0594 168.374 46.9933C150.184 50.8831 132.561 56.9856 115.987 65.1288C57.4745 93.8795 19.9015 142.144 15.4795 194.239L15.127 194.208C16.3058 180.32 19.7661 166.641 25.4093 153.546C30.7704 141.107 38.1338 129.11 47.2937 117.889C64.601 96.6925 88.3017 78.3372 115.832 64.8103C132.432 56.653 150.083 50.5421 168.301 46.6466C200.51 39.707 236.244 37.5479 277.549 40.0424C318.506 42.4581 356.293 47.994 389.864 56.4923C397.665 58.4711 405.539 60.6753 413.269 63.043C445.723 72.9901 476.553 86.2634 504.899 102.493C541.781 123.608 575.436 149.566 604.924 179.638C641.084 216.752 669.968 258.404 700.553 302.502C711.168 317.81 722.147 333.637 733.388 349.157C756.265 380.594 787.558 421.177 826.786 456.27C847.827 475.11 868.902 490.027 891.213 501.871C940.235 527.896 996.286 540.369 1057.81 538.94C1077.51 538.486 1097.73 536.589 1117.92 533.305C1141.34 529.477 1165.32 523.583 1189.17 515.784C1227.8 503.018 1264.92 486.191 1299.5 465.766C1316.78 455.56 1334.32 443.594 1351.61 430.208C1380.04 408.268 1406.49 382.714 1432.07 358.002C1449.88 340.802 1468.29 323.014 1486.95 306.882C1504.59 291.642 1525.75 273.971 1549 258.437C1568.98 245.063 1588.33 235.823 1606.51 230.972C1628.85 225.013 1649.68 225.622 1668.44 232.782C1679.61 237.001 1690.56 243.386 1701.94 252.298C1723.12 268.855 1741.5 291.146 1759.28 312.703C1766.35 321.272 1773.03 329.367 1779.76 336.972C1802.05 362.134 1824.5 388.447 1846.47 415.182C1891.74 470.211 1937.86 530.376 1991.61 604.519L1991.33 604.725Z" fill="#A1A1A1"/>
<path d="M1989.63 584.25C1939.79 508.858 1893.02 445.77 1846.64 391.384C1824.01 364.818 1800.6 339.28 1777.05 315.482C1770.8 309.168 1764.64 302.606 1758.1 295.661C1738.54 274.862 1718.32 253.355 1695.66 238.475C1684.23 230.93 1673.27 225.676 1662.15 222.412C1619.6 209.908 1576.37 233.596 1547.59 255.669C1527.21 271.262 1508.59 288.893 1489.73 307.094C1473.22 323.025 1457.69 340.162 1441.25 358.304C1416.85 385.233 1391.61 413.079 1363.06 436.46C1346.11 450.41 1328.43 462.471 1310.49 472.308C1277.09 490.635 1240.51 504.867 1198.66 515.821C1175.24 521.948 1151.26 526.315 1127.38 528.792C1107.23 530.858 1087.12 531.597 1067.59 530.979C1038.55 530.072 1010.16 525.99 983.215 518.851C954.912 511.35 927.906 500.391 902.95 486.278C881.086 473.915 859.974 458.576 838.408 439.386C799.242 404.584 765.69 366.001 740.839 336.275C731.64 325.271 722.587 314.199 713.83 303.488C678.959 260.836 646.022 220.546 605.982 186.603C576.057 161.235 542.461 139.784 506.131 122.85C478.643 110.036 449.508 100.436 417.065 93.4987C409.577 91.9005 401.96 90.4602 394.427 89.2171C361.341 83.7855 326.03 81.7307 283.307 79.6054C252.511 77.9959 212.197 76.9361 173.468 83.0865C155.126 85.9446 137.395 90.9083 120.765 97.8339C62.2125 122.224 22.4934 164.831 14.5123 211.813L14.095 211.743C16.2101 199.284 20.4967 187.065 26.828 175.421C32.8631 164.327 40.7934 153.689 50.3961 143.795C68.6453 125 92.9213 108.971 120.601 97.4421C137.263 90.5024 155.027 85.5303 173.4 82.6665C212.166 76.5076 252.511 77.5703 283.327 79.1798C326.064 81.3051 361.386 83.3599 394.495 88.7943C402.033 90.0402 409.656 91.4805 417.152 93.0787C449.626 100.024 478.79 109.633 506.309 122.461C542.675 139.412 576.3 160.88 606.255 186.273C646.324 220.241 679.275 260.543 714.158 303.212C722.911 313.92 731.964 324.992 741.163 335.994C766.009 365.708 799.546 404.276 838.69 439.062C860.231 458.232 881.32 473.554 903.159 485.903C952.23 513.653 1007.56 528.674 1067.61 530.551C1087.11 531.165 1107.21 530.43 1127.34 528.364C1151.2 525.889 1175.16 521.528 1198.55 515.403C1240.37 504.461 1276.91 490.241 1310.29 471.931C1328.2 462.105 1345.86 450.06 1362.79 436.125C1391.32 412.763 1416.55 384.929 1440.94 358.013C1457.39 339.864 1472.92 322.723 1489.44 306.783C1508.31 288.572 1526.93 270.935 1547.34 255.325C1565.99 241.015 1584.39 230.721 1602.03 224.723C1623.41 217.451 1643.68 216.535 1662.28 221.997C1673.43 225.275 1684.43 230.546 1695.9 238.115C1718.59 253.023 1738.84 274.549 1758.42 295.365C1764.94 302.307 1771.11 308.866 1777.36 315.178C1800.92 338.984 1824.33 364.53 1846.96 391.105C1893.35 445.505 1940.14 508.605 1989.98 584.013L1989.63 584.25Z" fill="#A1A1A1"/>
<path d="M1987.92 563.774C1941.28 486.105 1895.21 421.859 1847.08 367.365C1823.8 340.963 1799.42 316.2 1774.61 293.761C1769.31 288.963 1763.85 283.873 1758.57 278.951C1736.77 258.617 1714.22 237.593 1689.61 224.376C1678.05 218.13 1667.06 213.986 1655.99 211.711C1613.53 202.976 1572.74 229.128 1546 252.602C1527.87 268.449 1511.3 286.41 1495.28 303.781L1492.28 307.034C1477.73 322.793 1464.08 340.077 1449.63 358.379C1426.62 387.522 1402.83 417.654 1374.29 442.43C1357.68 456.952 1339.85 469.103 1321.3 478.546C1288.96 495.01 1252.96 506.758 1208.03 515.518C1184.79 520.048 1160.82 522.878 1136.78 523.927C1116.68 524.769 1096.69 524.347 1077.36 522.664C1018.84 517.593 964.162 499.999 914.844 470.371C893.523 457.563 872.397 441.821 850.262 422.237C812.802 389.165 779.484 355.172 748.573 323.188C744.427 318.901 740.326 314.642 736.257 310.416C694.036 266.589 654.159 225.19 607.294 193.328C576.698 172.526 543.135 155.563 507.542 142.907C481.41 133.617 453.09 127.308 420.969 123.622C413.729 122.796 406.366 122.116 399.081 121.603C380.756 120.335 361.319 120.129 340.741 119.912C324.212 119.737 307.122 119.557 289.087 118.821C254.255 117.28 214.778 115.535 178.556 119.188C159.867 121.074 142.029 124.896 125.537 130.55C67.0075 150.619 25.1394 187.575 13.5401 229.407L13.0635 229.275C16.1205 218.245 21.2307 207.486 28.25 197.297C34.962 187.552 43.4563 178.268 53.4961 169.702C72.6986 153.319 97.5555 139.621 125.374 130.082C141.902 124.414 159.777 120.583 178.503 118.695C214.761 115.039 254.258 116.786 289.104 118.328C307.127 119.061 324.217 119.244 340.741 119.419C361.328 119.636 380.77 119.842 399.112 121.113C406.402 121.629 413.774 122.308 421.019 123.134C453.18 126.824 481.534 133.14 507.703 142.445C543.338 155.115 576.938 172.098 607.567 192.922C654.475 224.813 694.372 266.231 736.609 310.078C740.679 314.303 744.782 318.56 748.925 322.85C779.831 354.828 813.137 388.813 850.586 421.873C872.699 441.435 893.802 457.163 915.097 469.954C964.351 499.545 1018.96 517.114 1077.4 522.179C1096.71 523.859 1116.68 524.282 1136.75 523.439C1160.77 522.391 1184.72 519.563 1207.93 515.039C1252.82 506.287 1288.77 494.553 1321.08 478.112C1339.59 468.689 1357.38 456.56 1373.96 442.063C1402.47 417.318 1426.24 387.203 1449.24 358.078C1463.69 339.767 1477.35 322.475 1491.91 306.704L1494.91 303.451C1510.94 286.071 1527.52 268.099 1545.67 252.236C1572.49 228.686 1613.43 202.458 1656.09 211.232C1667.2 213.518 1678.24 217.676 1689.84 223.947C1714.51 237.192 1737.08 258.24 1758.9 278.596C1764.18 283.518 1769.64 288.608 1774.94 293.403C1799.76 315.854 1824.15 340.63 1847.44 367.047C1895.6 421.563 1941.68 485.832 1988.34 563.526L1987.92 563.774Z" fill="#A1A1A1"/>
<path d="M1986.22 543.297C1943.4 464.455 1896.73 397.181 1847.52 343.35C1823.59 317.114 1798.24 293.124 1772.17 272.046C1768.41 269.001 1764.55 265.842 1760.82 262.786C1736.18 242.601 1710.7 221.726 1683.56 210.282C1671.91 205.319 1660.89 202.289 1649.84 201.015C1607.5 196.133 1569.13 224.706 1544.4 249.535C1529.05 264.875 1515.18 281.933 1501.78 298.431C1499.46 301.287 1497.14 304.136 1494.82 306.975C1482.07 322.568 1470.15 339.987 1457.53 358.427C1436.08 389.777 1413.89 422.192 1385.52 448.405C1368.86 463.798 1351.39 475.699 1332.11 484.792C1291.79 503.81 1251.49 510.848 1217.39 515.228C1194.33 518.188 1170.37 519.484 1146.17 519.073C1126.14 518.692 1106.27 517.105 1087.12 514.36C1030.36 506.239 976.402 486.091 926.742 454.474C906.078 441.322 884.941 425.171 862.118 405.099C839.063 384.872 817.579 365.409 796.8 346.586C782.679 333.792 769.34 321.708 756.314 310.115C707.074 266.29 661.971 227.758 608.616 200.062C577.363 183.84 543.834 171.359 508.96 162.968C483.965 156.953 457.247 154.024 424.88 153.745C417.897 153.694 410.785 153.776 403.743 153.99C393.046 154.337 381.98 155.061 370.268 155.831C347.791 157.305 322.311 158.977 294.865 158.041C284.413 157.683 273.75 157.178 263.437 156.688C236.911 155.428 209.482 154.126 183.641 155.29C164.664 156.147 146.716 158.83 130.303 163.267C71.8721 179.065 27.8578 210.373 12.5613 247.013L12.0396 246.796C16.0442 237.201 21.9778 227.905 29.674 219.164C37.0657 210.77 46.124 202.841 56.5924 195.6C76.765 181.647 102.2 170.28 130.151 162.723C146.604 158.275 164.59 155.583 183.61 154.726C209.479 153.559 236.919 154.864 263.46 156.124C273.77 156.614 284.433 157.119 294.882 157.477C322.302 158.413 347.763 156.744 370.228 155.27C381.946 154.5 393.015 153.776 403.723 153.429C410.774 153.215 417.892 153.133 424.883 153.184C457.295 153.46 484.053 156.397 509.09 162.421C544.006 170.824 577.58 183.319 608.873 199.563C632.974 212.072 657.397 227.922 683.537 248.013C706.938 265.999 729.703 285.68 756.686 309.695C769.712 321.291 783.052 333.375 797.175 346.169C817.951 364.989 839.435 384.452 862.484 404.676C885.285 424.728 906.4 440.863 927.038 454.001C976.63 485.576 1030.52 505.695 1087.2 513.805C1106.32 516.547 1126.16 518.131 1146.18 518.512C1170.34 518.923 1194.28 517.63 1217.31 514.67C1251.37 510.298 1291.61 503.268 1331.87 484.285C1351.09 475.217 1368.51 463.347 1385.13 447.994C1413.45 421.825 1435.62 389.436 1457.06 358.111C1469.69 339.66 1481.62 322.232 1494.38 306.622C1496.7 303.784 1499.02 300.934 1501.34 298.082C1514.75 281.573 1528.62 264.503 1543.99 249.144C1560.08 232.99 1576.59 220.562 1593.05 212.208C1612.55 202.311 1631.68 198.359 1649.9 200.462C1660.99 201.742 1672.07 204.786 1683.77 209.769C1710.98 221.244 1736.49 242.145 1761.17 262.355C1764.9 265.41 1768.75 268.57 1772.51 271.611C1798.6 292.707 1823.97 316.719 1847.92 342.975C1874.05 371.559 1899.64 404.127 1923.98 439.772C1945.49 471.276 1966.59 506.019 1986.7 543.032L1986.22 543.297Z" fill="#A1A1A1"/>
<path d="M1984.52 522.813C1944.89 441.711 1898.94 373.251 1847.96 319.332C1823.38 293.262 1797.06 270.047 1769.74 250.328C1768.44 249.389 1767.14 248.45 1765.84 247.509C1737.42 226.978 1708.04 205.747 1677.53 196.189C1665.71 192.485 1654.64 190.566 1643.71 190.318C1601.53 189.365 1565.56 220.326 1542.82 246.463C1529.43 261.755 1517.55 278.515 1506.06 294.722C1503.22 298.73 1500.28 302.874 1497.38 306.91C1486.34 322.283 1476.07 339.762 1465.2 358.27C1445.43 391.933 1424.99 426.741 1396.76 454.376C1380.43 470.363 1362.82 482.354 1342.93 491.036C1303.73 508.137 1263.93 512.627 1226.76 514.932C1203.84 516.353 1179.89 516.111 1155.57 514.214C1135.6 512.607 1115.86 509.859 1096.89 506.048C1042.06 495.055 988.817 472.353 938.643 438.571C918.55 425.044 898.002 408.961 873.983 387.956C828.333 348.145 794.435 320.104 764.073 297.039C703.685 251.165 657.595 224.176 609.965 206.796C578.078 195.16 544.582 187.164 510.405 183.026C486.693 180.156 461.529 180.413 428.815 183.866C422.111 184.582 415.253 185.425 408.428 186.374C401.981 187.285 395.433 188.328 388.498 189.43C362.894 193.503 333.871 198.12 300.655 197.257C283.148 196.804 265.265 195.561 247.972 194.36C228.318 192.996 207.996 191.583 188.729 191.392C169.411 191.2 151.353 192.745 135.073 195.986C76.8363 207.574 30.6702 233.238 11.5805 264.635L11.0391 264.306C15.9969 256.148 22.754 248.315 31.1215 241.023C39.1984 233.982 48.8151 227.412 59.7066 221.49C80.8634 209.984 106.882 200.947 134.948 195.363C151.274 192.116 169.371 190.566 188.735 190.758C208.019 190.949 228.352 192.361 248.014 193.728C265.302 194.929 283.176 196.172 300.67 196.626C333.826 197.486 362.817 192.874 388.393 188.807C395.331 187.702 401.885 186.662 408.335 185.749C415.168 184.799 422.032 183.956 428.742 183.237C461.506 179.782 486.713 179.522 510.475 182.4C544.701 186.544 578.244 194.551 610.177 206.204C657.871 223.607 704.009 250.624 764.451 296.537C794.824 319.611 828.733 347.66 874.395 387.482C898.397 408.47 918.922 424.537 938.993 438.05C989.099 471.784 1042.26 494.455 1097.01 505.431C1115.95 509.236 1135.67 511.978 1155.62 513.585C1179.91 515.479 1203.83 515.722 1226.72 514.304C1263.83 512.001 1303.56 507.522 1342.67 490.461C1362.49 481.813 1380.04 469.862 1396.31 453.93C1424.48 426.355 1444.9 391.584 1464.65 357.957C1475.53 339.438 1485.8 321.945 1496.86 306.549C1499.76 302.516 1502.7 298.372 1505.54 294.364C1517.04 278.143 1528.93 261.371 1542.34 246.055C1557.18 228.996 1572.74 215.503 1588.59 205.947C1607.15 194.754 1625.7 189.289 1643.72 189.692C1654.72 189.94 1665.84 191.871 1677.71 195.592C1708.33 205.184 1737.75 226.442 1766.21 247.005C1767.51 247.946 1768.81 248.887 1770.11 249.823C1797.46 269.565 1823.81 292.808 1848.42 318.907C1899.44 372.873 1945.42 441.387 1985.08 522.546L1984.52 522.813Z" fill="#A1A1A1"/>
<path d="M1240.79 514.639C1239.21 514.639 1237.65 514.636 1236.12 514.628C1213.31 514.532 1189.37 512.756 1164.96 509.346C1145.06 506.513 1125.44 502.603 1106.65 497.73C1079.8 490.779 1052.86 480.789 1026.56 468.041C1001.17 455.729 975.589 440.462 950.541 422.662C925.997 405.223 903.072 385.791 885.84 370.81C845.523 335.852 807.164 306.634 771.827 283.963C714.595 247.247 663.592 224.864 611.315 213.524C579.777 206.683 545.941 203.075 513.362 203.075C512.857 203.075 512.355 203.075 511.85 203.078C483.863 203.174 457.292 208.371 432.751 213.975C426.363 215.444 419.755 217.047 413.111 218.747C409.47 219.688 405.824 220.658 401.966 221.684C374.754 228.931 343.91 237.142 306.438 236.468C283.618 236.057 260.309 233.695 237.768 231.409C223.213 229.932 208.164 228.407 193.81 227.485C174.077 226.219 155.918 226.625 139.832 228.697C81.9058 236.15 33.588 256.174 10.5783 282.263L10.0481 281.798C21.8505 268.418 39.6034 256.833 62.8133 247.362C84.9798 238.32 111.582 231.623 139.742 228.001C155.87 225.926 174.077 225.515 193.855 226.786C208.224 227.708 223.28 229.235 237.841 230.712C260.368 232.998 283.663 235.36 306.453 235.769C343.828 236.443 374.619 228.243 401.785 221.01C405.646 219.982 409.293 219.012 412.936 218.071C419.586 216.371 426.199 214.764 432.593 213.296C457.176 207.684 483.793 202.478 511.848 202.379C544.945 202.263 579.388 205.883 611.464 212.842C638.445 218.696 664.602 227.313 691.424 239.185C717.257 250.621 743.682 265.075 772.205 283.377C807.57 306.064 845.958 335.306 886.3 370.286C903.517 385.258 926.425 404.676 950.944 422.096C1001.77 458.215 1054.22 483.433 1106.83 497.056C1125.59 501.924 1145.18 505.828 1165.05 508.658C1189.44 512.063 1213.35 513.839 1236.12 513.932C1271.75 514.078 1313.12 512.878 1353.47 496.628C1373.89 488.403 1391.56 476.375 1407.49 459.861C1435.45 430.856 1453.99 393.63 1471.93 357.627C1481.15 339.108 1489.86 321.615 1499.34 306.473C1502.37 301.622 1505.43 296.625 1508.39 291.791C1518.4 275.459 1528.74 258.575 1540.66 242.968C1554.28 225.013 1568.9 210.449 1584.1 199.681C1601.73 187.197 1619.7 180.213 1637.52 178.922C1648.51 178.124 1659.67 178.939 1671.64 181.413C1703.62 188.026 1735.32 207.238 1767.68 228.032C1795.9 246.162 1823.99 269.261 1848.91 294.835C1876.58 323.16 1902.58 356.389 1926.19 393.599C1947.22 426.75 1966.49 463.24 1983.45 502.059L1982.81 502.341C1946.38 418.976 1901.16 349.326 1848.4 295.328C1823.52 269.791 1795.48 246.725 1767.3 228.627C1735 207.87 1703.36 188.694 1671.49 182.104C1659.59 179.643 1648.5 178.834 1637.57 179.626C1604.83 182.003 1570.62 204.648 1541.22 243.396C1529.33 258.975 1518.99 275.845 1508.99 292.16C1506.03 296.997 1502.97 301.997 1499.93 306.848C1490.48 321.962 1481.77 339.441 1472.56 357.942C1463.76 375.607 1454.66 393.875 1444.22 411.436C1432.38 431.344 1420.54 447.343 1408 460.351C1392 476.939 1374.25 489.02 1353.73 497.285C1335.64 504.574 1316.19 509.391 1294.27 512.018C1275.71 514.23 1257.07 514.639 1240.79 514.639Z" fill="#A1A1A1"/>
<path d="M1286.02 516.051C1271.64 516.051 1257.82 515.195 1245.47 514.326C1222.74 512.731 1198.81 509.419 1174.34 504.481C1154.52 500.425 1135.03 495.357 1116.4 489.412C1065.39 473.168 1015.02 446.128 962.428 406.754C939.492 389.585 917.87 371.112 897.694 353.664C857.862 319.318 818.126 291.469 779.583 270.887C722.898 240.617 669.862 224.525 612.675 220.247C580.091 217.808 545.73 218.804 513.304 223.122C486.162 226.735 460.575 235.456 436.688 244.076C430.712 246.243 424.356 248.611 417.799 251.111C416.16 251.74 414.508 252.38 412.833 253.025C385.322 263.657 354.193 275.688 314.243 275.688C313.569 275.688 312.897 275.685 312.218 275.676C285.189 275.403 257.594 271.547 230.904 267.815C220.323 266.335 209.381 264.807 198.881 263.57C178.373 261.157 160.611 260.444 144.579 261.397C86.2664 264.864 37.0462 278.89 9.54398 299.886L9.073 299.269C22.669 288.89 42.3284 279.879 65.919 273.21C89.1233 266.651 116.307 262.299 144.531 260.622C160.609 259.666 178.415 260.379 198.969 262.798C209.479 264.035 220.424 265.566 231.008 267.043C257.673 270.769 285.243 274.622 312.221 274.895C353.003 275.313 384.639 263.082 412.548 252.295C414.22 251.65 415.876 251.01 417.514 250.378C424.077 247.875 430.436 245.508 436.418 243.34C460.344 234.704 485.979 225.971 513.194 222.347C545.671 218.023 580.088 217.025 612.726 219.466C641.065 221.586 668.085 226.592 695.328 234.766C723.386 243.185 751.063 254.773 779.941 270.197C818.532 290.807 858.319 318.689 898.193 353.069C918.36 370.511 939.969 388.974 962.885 406.125C1015.41 445.446 1065.7 472.446 1116.63 488.665C1135.23 494.598 1154.7 499.661 1174.48 503.711C1198.92 508.644 1222.82 511.953 1245.51 513.543C1283.69 516.221 1324.31 517.596 1364.26 502.778C1385.29 494.979 1403.08 482.875 1418.65 465.774C1446.4 435.313 1463.66 393.763 1478.9 357.103C1486.57 338.657 1493.81 321.235 1501.8 306.383C1504.68 301.025 1507.58 295.486 1510.39 290.131C1519.16 273.373 1528.24 256.047 1538.98 239.865C1551.41 221.013 1565.08 205.378 1579.62 193.393C1596.31 179.629 1613.7 171.128 1631.31 168.132C1642.31 166.257 1653.51 165.959 1665.54 167.21C1699.18 170.714 1733.34 188.026 1765.25 206.215C1794.72 223.009 1823.81 245.322 1849.39 270.741C1877.83 298.933 1904.04 332.495 1927.29 370.489C1948.07 404.465 1966.42 441.83 1981.82 481.551L1981.1 481.83C1948.36 397.399 1902.63 324.595 1848.84 271.288C1823.32 245.917 1794.28 223.646 1764.87 206.886C1733.04 188.739 1698.96 171.469 1665.47 167.98C1653.5 166.734 1642.37 167.033 1631.44 168.893C1598.94 174.426 1566.34 199.78 1539.63 240.288C1528.91 256.436 1519.85 273.745 1511.08 290.486C1508.27 295.844 1505.37 301.383 1502.49 306.747C1494.51 321.565 1487.28 338.97 1479.62 357.396C1464.36 394.112 1447.06 435.73 1419.23 466.293C1403.57 483.487 1385.68 495.658 1364.53 503.503C1346.18 510.307 1326.39 514.248 1304.02 515.541C1297.97 515.908 1291.95 516.051 1286.02 516.051Z" fill="#A1A1A1"/>
<path d="M1314.4 519.104C1314.2 519.104 1313.99 519.104 1313.79 519.104C1293.46 519.053 1273.51 516.567 1254.81 514.025C1232.13 510.941 1208.21 506.09 1183.72 499.613C1164 494.339 1144.63 488.107 1126.16 481.094C1077.18 462.527 1028.94 433.853 974.323 390.848C954.656 375.365 935.301 358.692 916.581 342.572C914.24 340.554 911.896 338.538 909.553 336.523C869.515 302.186 828.4 275.704 787.352 257.817C731.144 233.325 674.456 223.234 614.048 226.969C580.925 229.018 546.595 234.619 514.77 243.165C489.659 249.91 467.284 260.731 440.639 274.176C435.239 276.913 429.471 279.867 422.494 283.475L422.105 283.678C408.644 290.686 393.387 298.626 376.275 304.663C356.621 311.597 337.554 314.935 318.002 314.895C287.513 314.819 256.398 309.148 226.31 303.66C218.938 302.315 211.312 300.926 203.952 299.669C182.843 296.069 164.974 294.251 149.325 294.113C91.7035 293.606 40.371 302.141 8.49188 317.525L8.12524 316.764C23.7405 309.227 44.8042 303.11 69.0379 299.074C93.3166 295.029 121.084 293.022 149.333 293.27C165.028 293.408 182.941 295.229 204.095 298.837C211.462 300.094 219.087 301.484 226.462 302.828C256.514 308.308 287.589 313.974 318.004 314.05C318.14 314.05 318.278 314.05 318.413 314.05C361.92 314.05 395.065 296.799 421.716 282.928L422.108 282.726C429.088 279.115 434.855 276.161 440.258 273.424C466.948 259.956 489.363 249.115 514.553 242.351C546.432 233.787 580.818 228.178 613.997 226.126C643.558 224.3 671.441 225.692 699.245 230.388C729.206 235.448 758.138 244.166 787.691 257.044C828.817 274.966 870.003 301.49 910.106 335.883C912.449 337.899 914.793 339.917 917.133 341.935C935.845 358.049 955.194 374.716 974.845 390.188C1029.39 433.139 1077.56 461.774 1126.45 480.31C1144.9 487.315 1164.24 493.535 1183.94 498.804C1208.39 505.272 1232.28 510.115 1254.93 513.193C1295.5 518.712 1335.22 522.54 1375.07 508.965C1396.7 501.597 1414.61 489.417 1429.83 471.727C1457.33 439.772 1472.35 395.493 1485.6 356.423C1491.81 338.133 1497.67 320.854 1504.28 306.335C1506.82 300.748 1509.37 294.97 1511.84 289.38C1519.56 271.905 1527.53 253.837 1537.32 236.801C1548.58 217.044 1561.31 200.335 1575.14 187.138C1590.91 172.098 1607.72 162.086 1625.1 157.384C1635.88 154.469 1646.87 153.049 1658.69 153.049C1658.95 153.049 1659.2 153.049 1659.46 153.052C1696.2 153.243 1734 169.924 1762.83 184.435C1793.55 199.895 1823.65 221.419 1849.88 246.68C1879.1 274.743 1905.52 308.635 1928.4 347.417C1948.92 382.22 1966.35 420.461 1980.2 461.084L1979.4 461.357C1958.8 400.913 1919.5 314.712 1849.29 247.292C1823.12 222.087 1793.09 200.614 1762.45 185.19C1733.71 170.719 1696.02 154.086 1659.46 153.897C1647.42 153.827 1636.26 155.242 1625.32 158.201C1593.13 166.914 1562.13 194.977 1538.05 237.221C1528.29 254.217 1520.32 272.265 1512.61 289.722C1510.15 295.314 1507.59 301.095 1505.05 306.684C1498.45 321.167 1492.6 338.423 1486.4 356.694C1473.13 395.834 1458.08 440.197 1430.47 472.277C1415.15 490.085 1397.12 502.347 1375.34 509.763C1356.89 516.046 1336.95 519.104 1314.4 519.104Z" fill="#A1A1A1"/>
<path d="M1336.97 523.073C1332.59 523.073 1328.12 522.932 1323.54 522.65C1303.5 521.419 1284.01 517.723 1264.16 513.721C1241.14 509.081 1217.9 502.874 1193.1 494.745C1173.48 488.257 1154.24 480.866 1135.91 472.774C1089.41 452.276 1043.25 422.102 986.219 374.94C972.056 363.228 957.899 350.944 944.207 339.063C936.753 332.597 929.048 325.909 921.414 319.378C880.9 284.809 838.411 259.7 795.127 244.744C737.937 224.982 679.16 221.363 615.43 233.681C581.76 240.189 547.461 250.396 516.245 263.195C491.168 273.478 469.323 287.918 446.195 303.207L444.595 304.264C440.983 306.66 437.331 309.089 433.634 311.547C431.504 312.965 429.361 314.391 427.198 315.829C413.712 324.84 399.146 334.241 382.442 341.476C363.048 349.876 343.865 354.008 323.791 354.11C290.372 354.273 256.285 346.51 223.323 338.996C218.619 337.922 213.751 336.814 209.027 335.763C186.881 330.83 169.421 327.992 154.074 326.825C97.4394 322.52 43.9917 325.553 7.43112 335.148L7.19702 334.263C43.8535 324.643 97.4112 321.599 154.144 325.911C169.534 327.081 187.039 329.928 209.228 334.869C213.954 335.923 218.822 337.031 223.529 338.105C256.087 345.527 289.743 353.196 322.719 353.196C323.075 353.196 323.43 353.196 323.788 353.193C366.44 352.979 396.802 335.035 426.693 315.068C428.856 313.63 431 312.204 433.129 310.786C436.826 308.326 440.475 305.899 444.091 303.5L445.69 302.443C468.857 287.129 490.739 272.663 515.898 262.347C547.17 249.522 581.528 239.299 615.258 232.779C679.148 220.43 738.084 224.061 795.429 243.876C838.82 258.872 881.407 284.037 922.012 318.681C929.646 325.215 937.354 331.901 944.807 338.37C958.494 350.248 972.648 362.529 986.802 374.232C1043.76 421.341 1089.86 451.473 1136.28 471.936C1154.58 480.015 1173.79 487.397 1193.39 493.874C1218.15 501.992 1241.36 508.19 1264.34 512.822C1299.23 519.854 1342.64 528.609 1385.88 515.124C1408.11 508.193 1426.14 495.938 1441.01 477.656C1468.24 444.169 1480.86 397.072 1492.01 355.522C1496.85 337.471 1501.42 320.421 1506.75 306.271C1508.83 300.757 1510.92 295.055 1512.93 289.539C1519.69 271.04 1526.67 251.912 1535.65 233.72C1545.77 213.045 1557.55 195.262 1570.66 180.864C1585.52 164.55 1601.74 153.03 1618.89 146.623C1629.9 142.51 1641.17 139.976 1653.37 138.874C1669.7 137.397 1687.09 138.976 1706.52 143.689C1722.96 147.68 1740.59 153.875 1760.41 162.633C1792.37 176.757 1823.48 197.495 1850.37 222.601C1880.37 250.531 1906.99 284.758 1929.5 324.327C1949.77 359.958 1966.28 399.076 1978.57 440.598L1977.69 440.858C1951.73 353.196 1906.29 275.922 1849.74 223.271C1822.93 198.233 1791.91 177.555 1760.04 163.473C1717.33 144.605 1683.47 137.076 1653.45 139.787C1641.34 140.881 1630.14 143.398 1619.21 147.48C1578.42 162.72 1551.7 203.011 1536.47 234.123C1527.52 252.27 1520.54 271.375 1513.79 289.852C1511.77 295.371 1509.69 301.076 1507.61 306.592C1502.29 320.7 1497.73 337.73 1492.89 355.758C1481.73 397.399 1469.07 444.595 1441.72 478.233C1426.73 496.659 1408.56 509.014 1386.15 516.001C1370.96 520.736 1354.77 523.073 1336.97 523.073Z" fill="#A1A1A1"/>
<path d="M1356.53 527.622C1326.7 527.622 1298.03 519.964 1273.5 513.413C1250.42 507.251 1227.19 499.551 1202.47 489.874C1182.96 482.179 1163.84 473.627 1145.65 464.452C1091.13 436.981 1042.52 397.551 998.109 359.031C989.042 351.166 979.882 343.06 971.027 335.221C958.731 324.335 946.015 313.08 933.273 302.234C892.153 267.324 848.291 243.583 802.909 231.668C744.202 216.258 683.328 219.108 616.812 240.383C582.564 251.337 548.299 266.149 517.72 283.219C494.135 296.382 474.18 313.001 453.054 330.596C451.556 331.841 450.056 333.093 448.547 334.344L447.729 335.027C442.594 339.308 437.283 343.734 431.9 348.176C419 358.867 404.795 369.925 388.365 378.372C369.292 388.179 350.064 393.069 329.576 393.323C293.613 393.771 256.96 383.666 221.516 373.893C219.031 373.209 216.558 372.526 214.096 371.853C190.722 365.443 173.672 361.643 158.815 359.529C103.602 351.677 48.0336 349.207 6.35729 352.756L6.27271 351.772C48.0167 348.215 103.667 350.687 158.953 358.551C173.852 360.671 190.94 364.479 214.355 370.9C216.817 371.574 219.291 372.256 221.778 372.944C257.154 382.696 293.737 392.776 329.562 392.336C374.055 391.784 405.39 368.859 431.268 347.415C436.652 342.972 441.962 338.547 447.098 334.268L447.915 333.586C449.424 332.332 450.925 331.083 452.422 329.837C473.585 312.212 493.574 295.565 517.238 282.357C547.873 265.256 582.203 250.418 616.51 239.445C648.045 229.359 677.665 223.536 707.06 221.642C739.85 219.531 772.18 222.583 803.157 230.715C848.683 242.667 892.674 266.476 933.911 301.481C946.661 312.333 959.38 323.591 971.678 334.48C980.534 342.319 989.688 350.422 998.752 358.284C1043.11 396.762 1091.67 436.15 1146.09 463.57C1164.26 472.731 1183.35 481.272 1202.83 488.955C1227.51 498.618 1250.71 506.307 1273.75 512.46C1309.13 521.909 1353.17 533.668 1396.68 521.294C1419.51 514.8 1437.66 502.468 1452.17 483.594C1479.12 448.532 1489.2 398.537 1498.1 354.425C1501.68 336.701 1505.05 319.961 1509.22 306.214C1510.76 301.129 1512.3 295.875 1513.8 290.793C1519.64 270.915 1525.69 250.359 1533.96 230.648C1542.96 209.037 1553.8 190.174 1566.16 174.589C1580.11 157.004 1595.75 143.976 1612.66 135.866C1623.65 130.601 1634.96 126.951 1647.26 124.704C1663.83 121.68 1682.22 121.781 1701.91 125.006C1719.16 127.83 1738.02 133.155 1757.96 140.836C1791.17 153.624 1823.29 173.572 1850.84 198.523C1881.62 226.324 1908.45 260.881 1930.59 301.239C1950.59 337.699 1966.19 377.696 1976.94 420.117L1975.98 420.36C1953.2 330.472 1908.52 251.948 1850.18 199.256C1822.72 174.387 1790.71 154.504 1757.61 141.757C1714.71 125.237 1678.67 119.975 1647.44 125.677C1635.23 127.906 1623.99 131.531 1613.09 136.757C1572.86 156.051 1548.35 198.67 1534.88 231.028C1526.62 250.689 1520.58 271.217 1514.74 291.069C1513.25 296.151 1511.7 301.408 1510.16 306.499C1506.01 320.2 1502.64 336.918 1499.07 354.619C1494.79 375.841 1489.94 399.893 1482.89 422.443C1474.83 448.279 1465.03 468.478 1452.95 484.195C1445.97 493.282 1437.94 501.016 1429.09 507.184C1419.58 513.816 1408.76 518.884 1396.95 522.244C1383.43 526.092 1369.86 527.622 1356.53 527.622Z" fill="#A1A1A1"/>
<path d="M1374.15 532.614C1364.29 532.614 1353.96 531.655 1343.05 529.742C1321.56 525.973 1300.99 519.135 1282.84 513.106C1259.96 505.504 1236.08 496.047 1211.85 485C1192.46 476.11 1173.47 466.397 1155.4 456.126C1103.55 426.679 1058.87 387.525 1010 343.119C1005.66 339.173 1001.24 335.148 996.981 331.252C980.186 315.921 962.823 300.069 945.132 285.09C903.329 249.772 858.096 227.4 810.689 218.595C750.891 207.486 686.123 217.07 618.194 247.083C583.336 262.485 549.102 281.9 519.195 303.234C496.676 319.298 478.139 338.237 458.513 358.289C456.519 360.327 454.517 362.371 452.503 364.423C447.492 369.536 442.094 375.024 436.603 380.517C425.089 392.077 411.056 405.248 394.29 415.263C375.522 426.476 356.246 432.127 335.365 432.536C297.141 433.289 258.231 420.639 220.602 408.405L219.169 407.94C200.745 401.953 181.255 395.905 163.561 392.232C109.628 381.039 53.4197 373.268 5.2937 370.35L5.35856 369.296C53.5354 372.216 109.795 379.993 163.775 391.197C181.52 394.881 201.044 400.939 219.496 406.934L220.929 407.399C258.476 419.604 297.307 432.223 335.346 431.476C379.275 430.614 409.614 406.114 435.856 379.765C441.347 374.274 446.739 368.786 451.75 363.676C453.764 361.626 455.766 359.58 457.76 357.545C477.42 337.459 495.99 318.486 518.583 302.369C548.547 280.992 582.846 261.54 617.768 246.111C649.638 232.031 681.001 222.329 710.98 217.278C745.233 211.509 778.847 211.599 810.887 217.549C858.474 226.388 903.873 248.839 945.817 284.279C963.522 299.271 980.894 315.129 997.697 330.469C1001.96 334.361 1006.37 338.386 1010.71 342.332C1059.54 386.696 1104.17 425.808 1155.93 455.204C1173.97 465.459 1192.93 475.158 1212.29 484.036C1236.49 495.066 1260.34 504.509 1283.18 512.099C1318.99 524 1363.55 538.806 1407.49 527.461C1430.93 521.41 1449.2 509.004 1463.35 489.533C1490 452.848 1497.71 397.553 1503.91 353.122C1506.33 335.816 1508.61 319.47 1511.7 306.166C1512.67 301.972 1513.65 297.651 1514.6 293.47C1519.54 271.755 1524.65 249.299 1532.3 227.584C1544.13 193.79 1566.59 148.584 1606.45 125.124C1617.46 118.647 1628.82 113.878 1641.17 110.546C1673.49 101.704 1711.97 104.565 1755.54 119.044C1790 130.497 1823.12 149.655 1851.33 174.451C1882.89 202.119 1909.93 237.009 1931.7 278.159C1941.69 297.033 1950.51 317.193 1957.93 338.076C1965.02 358.024 1970.87 378.739 1975.32 399.645L1974.28 399.865C1954.69 307.744 1910.78 227.973 1850.63 175.243C1822.53 150.54 1789.53 131.455 1755.2 120.045C1711.84 105.63 1673.56 102.778 1641.45 111.563C1629.18 114.87 1617.92 119.602 1606.99 126.032C1567.4 149.328 1545.07 194.303 1533.3 227.93C1525.66 249.589 1520.57 272.015 1515.63 293.702C1514.68 297.882 1513.7 302.206 1512.73 306.403C1509.65 319.662 1507.37 335.985 1504.96 353.266C1501.84 375.624 1498.31 400.964 1492.27 424.881C1485.33 452.363 1476.15 473.714 1464.2 490.153C1457.39 499.531 1449.42 507.44 1440.52 513.658C1430.93 520.358 1419.91 525.347 1407.76 528.482C1397.09 531.238 1385.96 532.614 1374.15 532.614Z" fill="#A1A1A1"/>
<path d="M1390.39 537.885C1378.58 537.885 1366.12 536.355 1352.8 533.285C1331.24 528.316 1310.49 520.068 1292.18 512.79C1269.13 503.63 1245.26 492.64 1221.22 480.122C1201.96 470.045 1183.09 459.17 1165.15 447.797C1115.76 416.524 1073.4 376.216 1028.55 333.547C1026.33 331.436 1024.12 329.322 1021.89 327.208C1001.03 307.387 979.472 286.889 956.992 267.948C914.462 232.181 867.858 211.176 818.477 205.516C756.451 198.405 689.531 214.643 619.574 253.775C584.582 273.348 549.457 298.02 520.668 323.245C498.931 342.291 481.496 363.721 463.038 386.412C460.853 389.098 458.662 391.792 456.453 394.493C452.043 399.896 446.794 406.303 441.301 412.857C431.126 425.025 417.262 440.488 400.211 452.121C381.742 464.723 362.424 471.147 341.151 471.753C323.666 472.19 304.371 469.492 282.159 463.503C263.089 458.361 244.642 451.642 224.23 444.031C205.597 436.999 185.932 429.735 168.289 424.937C116.029 410.726 60.8272 398.281 4.22095 387.942L4.42399 386.834C61.0641 397.176 116.297 409.632 168.586 423.849C186.276 428.661 205.97 435.936 224.625 442.974C258.839 455.734 301.421 471.621 341.12 470.626C386.508 469.329 415.677 441.745 440.435 412.129C445.926 405.581 451.171 399.177 455.579 393.777C457.787 391.077 459.979 388.382 462.161 385.698C480.65 362.971 498.116 341.504 519.924 322.396C548.771 297.121 583.964 272.401 619.024 252.792C689.193 213.541 756.344 197.26 818.607 204.397C842.48 207.134 865.929 213.49 888.299 223.288C912.301 233.799 935.658 248.538 957.72 267.088C980.225 286.049 1001.8 306.558 1022.67 326.393C1024.89 328.51 1027.12 330.621 1029.34 332.732C1074.14 375.365 1116.46 415.633 1165.75 446.847C1183.67 458.204 1202.51 469.064 1221.75 479.124C1245.75 491.622 1269.58 502.598 1292.6 511.745C1328.77 526.12 1373.79 544.01 1418.3 533.635C1442.41 528.014 1460.8 515.533 1474.51 495.481C1500.93 457.18 1505.63 398.673 1509.42 351.663C1510.77 334.849 1512.05 318.969 1514.17 306.127C1514.6 303.477 1515.04 300.814 1515.48 298.136C1519.43 273.949 1523.52 248.936 1530.63 224.526C1540.78 189.416 1561.09 141.808 1600.23 114.388C1611.15 106.738 1622.54 100.853 1635.07 96.3936C1652.47 90.1389 1671.86 87.199 1692.71 87.65C1711.74 88.0615 1732.06 91.2946 1753.1 97.2561C1788.8 107.367 1822.93 125.736 1851.81 150.377C1884.15 177.91 1911.4 213.138 1932.8 255.077C1942.62 274.321 1951.12 294.894 1958.07 316.226C1964.72 336.656 1969.98 357.836 1973.69 379.176L1972.57 379.368C1956.43 286.376 1912.14 203.225 1851.08 151.234C1822.32 126.7 1788.33 108.407 1752.79 98.3357C1708.96 85.9165 1668.38 85.6121 1635.44 97.4506C1623.02 101.876 1611.71 107.716 1600.87 115.307C1562 142.538 1541.81 189.901 1531.71 224.836C1524.62 249.181 1520.54 274.157 1516.59 298.313C1516.15 300.991 1515.71 303.658 1515.28 306.307C1513.16 319.101 1511.89 334.962 1510.54 351.75C1506.75 398.896 1502.03 457.572 1475.44 496.118C1468.83 505.783 1460.93 513.873 1451.95 520.156C1442.29 526.915 1431.06 531.819 1418.56 534.734C1409.53 536.831 1400.19 537.885 1390.39 537.885Z" fill="#A1A1A1"/>
<path d="M1405.66 543.373C1392.19 543.373 1377.93 541.197 1362.56 536.828C1340.81 530.647 1319.93 520.993 1301.51 512.478C1278.23 501.716 1254.37 489.187 1230.59 475.246C1211.46 463.999 1192.72 451.96 1174.88 439.471C1130.95 408.724 1093.41 371.058 1053.66 331.179C1047.16 324.66 1040.44 317.92 1033.77 311.294C1010.34 288.011 990.328 268.813 968.846 250.804C925.557 214.564 877.586 194.927 826.262 192.435C761.77 189.303 692.691 212.191 620.946 260.461C585.305 284.443 550.211 313.842 522.13 343.246C500.976 365.398 484.439 389.512 466.931 415.041C464.762 418.204 462.585 421.378 460.394 424.554C456.491 430.223 451.324 437.692 445.991 445.181C423.549 476.773 394.227 509.298 346.931 510.961C345.456 511.009 343.975 511.032 342.497 511.032C305.564 511.032 267.859 496.422 229.285 480.111L226.876 479.085C207.77 470.933 189.721 463.235 173.014 457.632C110.054 436.514 49.1639 418.689 3.15015 405.52L3.48012 404.367C49.5051 417.541 110.412 435.37 173.395 456.496C190.147 462.113 208.215 469.822 227.347 477.982L229.753 479.009C269.74 495.918 308.791 511.001 346.888 509.766C393.661 508.12 422.736 475.846 445.013 444.491C450.343 437.007 455.504 429.543 459.407 423.878C461.598 420.698 463.773 417.527 465.941 414.365C483.477 388.796 500.04 364.643 521.262 342.42C549.398 312.954 584.563 283.496 620.275 259.466C653.42 237.165 686.577 220.041 718.822 208.566C755.82 195.4 791.989 189.571 826.318 191.237C877.908 193.74 926.121 213.474 969.613 249.883C991.126 267.92 1011.16 287.137 1034.62 310.439C1041.29 317.066 1048.01 323.809 1054.51 330.328C1094.22 370.168 1131.72 407.797 1175.57 438.481C1193.38 450.957 1212.1 462.976 1231.19 474.205C1254.94 488.13 1278.77 500.639 1302.01 511.384C1338.5 528.254 1383.91 549.247 1429.1 539.796C1453.81 534.63 1472.31 522.075 1485.67 501.417C1511.76 461.372 1513.33 399.572 1514.59 349.915C1515 333.713 1515.39 318.408 1516.63 306.076L1516.66 305.794C1519.45 278.18 1522.33 249.626 1528.95 221.453C1534.68 196.88 1542.65 174.787 1552.66 155.784C1563.94 134.359 1577.85 116.815 1594 103.638C1604.81 94.8208 1616.24 87.8164 1628.95 82.2269C1663.29 67.037 1705.37 64.6918 1750.65 75.4508C1768.87 79.7803 1786.84 86.3394 1804.07 94.942C1821.4 103.595 1837.62 114.146 1852.29 126.294C1885.41 153.695 1912.87 189.255 1933.89 231.99C1952.79 270.4 1965.99 314.217 1972.05 358.698L1970.87 358.859C1957.89 263.655 1914.39 179.224 1851.52 127.216C1822.12 102.857 1787.14 85.3585 1750.38 76.6234C1705.36 65.9264 1663.54 68.2462 1629.44 83.3318C1616.83 88.879 1605.49 95.8271 1594.76 104.574C1564.6 129.178 1542.25 169.691 1530.12 221.732C1523.52 249.832 1520.64 278.346 1517.86 305.921L1517.83 306.203C1516.59 318.49 1516.2 333.773 1515.79 349.952C1514.52 399.761 1512.95 461.747 1486.68 502.074C1480.24 512.035 1472.39 520.299 1463.36 526.636C1453.62 533.468 1442.18 538.291 1429.35 540.977C1421.7 542.573 1413.83 543.373 1405.66 543.373Z" fill="#A1A1A1"/>
<path d="M347.808 550.276C331.293 550.276 313.309 547.06 293.012 540.493C272.845 533.967 252.901 524.959 234.35 516.198C230.991 514.603 227.658 513.01 224.347 511.429C207.866 503.556 192.299 496.121 177.749 490.328C119.736 467.24 64.4383 446.489 10.9596 426.426L2.09863 423.1L2.54421 421.913L11.4052 425.239C64.8867 445.308 120.193 466.059 178.218 489.153C192.806 494.959 208.393 502.404 224.894 510.288C228.202 511.869 231.536 513.461 234.892 515.054C272.972 533.037 313.43 550.465 352.67 548.912C400.906 546.905 429.813 509.349 449.605 476.858C454.675 468.548 459.56 460.267 463.248 453.981C465.285 450.517 467.307 447.056 469.323 443.603C486.047 414.979 501.842 387.942 522.616 362.45C550.036 328.806 585.167 294.604 621.541 266.149C655.287 239.749 689.341 218.891 722.76 204.155C761.091 187.251 798.532 178.48 834.04 178.082C887.471 177.287 937.097 195.66 981.521 232.683C1006.15 253.231 1028.23 275.46 1046.58 294.494C1056.57 304.853 1066.55 315.471 1076.21 325.739C1110.4 362.092 1145.75 399.679 1185.4 430.124C1203.11 443.727 1221.7 456.907 1240.65 469.295C1264.1 484.592 1287.91 498.635 1311.43 511.032C1348.2 530.407 1393.95 554.521 1439.92 545.964C1465.21 541.254 1483.84 528.626 1496.85 507.359C1522.58 465.499 1520.85 400.313 1519.45 347.937C1519.03 332.448 1518.64 317.816 1519.11 306.037C1520.17 279.482 1521.76 248.62 1527.28 218.392C1531.93 192.779 1538.96 169.606 1548.16 149.52C1558.56 126.799 1571.9 107.75 1587.78 92.9013C1598.31 83.0612 1610.11 74.7095 1622.85 68.0743C1641.03 58.5753 1661.43 52.6025 1683.48 50.325C1704.14 48.1912 1725.92 49.313 1748.21 53.6567C1767.01 57.321 1785.54 63.3473 1803.29 71.5723C1821.15 79.8479 1837.8 90.1587 1852.77 102.217C1870.04 116.102 1885.91 132.498 1899.95 150.952C1913.26 168.437 1925.05 187.936 1935 208.907C1953.62 248.141 1965.87 292.862 1970.43 338.229L1969.17 338.356C1959.38 240.933 1916.66 155.225 1851.98 103.206C1822.35 79.3547 1785.42 62.2001 1747.97 54.9025C1701.66 45.8799 1658.6 50.8239 1623.44 69.1989C1610.8 75.7806 1599.1 84.0675 1588.65 93.8286C1558.71 121.807 1538.48 163.791 1528.53 218.621C1523.02 248.766 1521.43 279.575 1520.38 306.087C1519.91 317.824 1520.3 332.434 1520.72 347.903C1521.4 373.742 1522.18 403.031 1519.57 431.344C1516.53 464.199 1509.45 489.28 1497.93 508.021C1491.66 518.276 1483.87 526.718 1474.78 533.11C1464.97 540.016 1453.31 544.76 1440.15 547.21C1433.51 548.447 1426.87 549.008 1420.28 549.008C1380.77 549.008 1342.5 528.832 1310.84 512.151C1287.29 499.734 1263.44 485.672 1239.96 470.352C1220.98 457.947 1202.37 444.747 1184.63 431.125C1144.9 400.618 1109.51 362.991 1075.29 326.605C1065.63 316.339 1055.65 305.724 1045.67 295.371C1027.34 276.359 1005.29 254.161 980.711 233.653C936.528 196.826 887.192 178.561 834.06 179.345C750.62 180.281 672.862 227.604 622.325 267.142C586.024 295.54 550.964 329.669 523.603 363.245C502.891 388.661 487.118 415.656 470.42 444.234C468.404 447.687 466.379 451.149 464.343 454.616C460.651 460.904 455.764 469.191 450.69 477.509C442.382 491.149 429.339 511.004 412.062 525.886C403.673 533.113 394.744 538.793 385.525 542.77C375.245 547.204 364.207 549.696 352.724 550.172C351.096 550.242 349.458 550.276 347.808 550.276Z" fill="#A1A1A1"/>
<path d="M353.11 589.518C336.575 589.518 318.628 586.054 298.438 578.984C277.535 571.667 256.869 561.379 239.412 552.277C234.048 549.475 228.695 546.634 223.518 543.886C209.045 536.205 195.372 528.947 182.482 523.022C136.189 501.741 90.1974 480.964 45.7178 460.87C31.0051 454.223 15.7931 447.351 1.04932 440.677L1.60206 439.456C16.3459 446.131 31.5578 453.003 46.2706 459.649C90.7502 479.744 136.747 500.523 183.043 521.807C195.968 527.749 209.657 535.013 224.147 542.705C229.322 545.453 234.674 548.292 240.033 551.093C276.238 569.962 318.233 589.935 358.445 588.055C407.818 585.693 435.549 544.684 454.196 509.222C458.976 500.137 463.598 491.016 467.089 484.085C468.883 480.527 470.665 476.973 472.445 473.427C488.441 441.534 503.548 411.41 523.972 382.482C550.535 344.858 585.638 305.918 622.807 272.835C674.571 226.961 754.576 171.004 841.759 164.935C897.203 160.972 948.234 177.98 993.427 215.491C1013.73 232.353 1033.81 251.802 1058.54 278.56C1071.04 292.081 1083.44 306.096 1095.43 319.645C1126.63 354.898 1158.88 391.352 1195.23 421.78C1212.84 436.525 1231.3 450.864 1250.11 464.399C1272.88 480.773 1296.68 496.349 1320.86 510.696C1357.99 532.6 1404.21 559.865 1450.72 552.148C1476.23 548.004 1495.5 534.939 1508.01 513.32C1533.39 469.566 1527.95 397.982 1523.97 345.715C1522.85 331.047 1521.8 317.193 1521.59 306.017C1521.13 281.178 1521.17 248.428 1525.62 215.351C1533.29 158.032 1552.12 113.227 1581.57 82.1843C1591.89 71.2478 1603.73 61.746 1616.75 53.941C1635.27 42.8241 1656.17 35.3461 1678.87 31.7184C1700.26 28.3022 1722.76 28.3557 1745.77 31.8791C1765.18 34.9177 1784.27 40.4254 1802.5 48.2444C1820.91 56.1424 1837.99 66.2051 1853.26 78.1536C1870.91 91.9595 1887.03 108.412 1901.18 127.058C1914.59 144.728 1926.34 164.504 1936.11 185.842C1954.44 225.901 1965.75 271.524 1968.81 317.779L1967.47 317.866C1960.88 218.22 1918.95 131.232 1852.43 79.2106C1822.28 55.6097 1784.32 39.2697 1745.57 33.2039C1697.79 25.8894 1653.49 33.4576 1617.44 55.091C1604.53 62.8312 1592.79 72.2569 1582.55 83.106C1553.29 113.942 1534.58 158.495 1526.95 215.531C1522.51 248.518 1522.48 281.204 1522.93 305.994C1523.14 317.131 1524.2 330.968 1525.31 345.616C1527.37 372.634 1529.69 403.259 1528.36 433.156C1526.81 467.97 1520.54 494.412 1509.18 513.994C1503.06 524.555 1495.34 533.181 1486.2 539.63C1476.3 546.623 1464.44 551.279 1450.95 553.472C1430.02 556.942 1407.5 553.825 1382.09 543.94C1360.01 535.345 1338.85 522.864 1320.18 511.854C1295.97 497.487 1272.14 481.889 1249.33 465.493C1230.5 451.937 1212.01 437.579 1194.38 422.815C1157.95 392.325 1125.66 355.831 1094.43 320.541C1082.44 306.995 1070.04 292.989 1057.56 279.479C1032.87 252.769 1012.83 233.356 992.573 216.534C947.647 179.237 896.941 162.331 841.849 166.269C755.042 172.315 675.302 228.099 623.693 273.836C586.596 306.851 551.567 345.709 525.061 383.254C504.693 412.101 489.608 442.182 473.638 474.027C471.858 477.576 470.076 481.131 468.282 484.688C464.788 491.625 460.163 500.754 455.377 509.847C436.567 545.625 408.557 587.001 358.505 589.394C356.725 589.476 354.923 589.518 353.11 589.518Z" fill="#A1A1A1"/>
<path d="M358.518 628.763C313.34 628.763 265.935 601.03 223.912 576.442C210.999 568.888 198.802 561.751 187.211 555.716L0 458.254L0.651474 457.006L187.862 554.468C199.484 560.517 211.695 567.662 224.626 575.227C268.273 600.765 317.747 629.71 364.221 627.201C414.682 624.481 441.265 580.019 458.786 541.592C464.517 529.023 470.05 516.235 475.403 503.866C490.042 470.042 505.178 435.065 525.323 402.512C541.318 376.665 561.189 349.557 582.786 324.124C606.478 296.222 631.846 270.623 658.177 248.039C687.211 223.142 716.732 202.546 745.918 186.826C778.201 169.44 810.004 158.089 840.45 153.086C901.442 143.066 956.914 158.272 1005.32 198.289C1045.55 231.541 1079.74 272.661 1112.81 312.427C1141.59 347.04 1171.35 382.829 1205.05 413.423C1243.98 448.758 1286.11 481.368 1330.28 510.341C1367.49 534.754 1413.8 565.139 1461.53 558.31C1501.85 552.542 1525.15 525.585 1532.79 475.891C1539.28 433.622 1533.1 383.48 1528.14 343.193C1526.45 329.463 1524.85 316.494 1524.07 305.977C1519.74 248.003 1522.5 200.144 1532.5 159.67C1538.74 134.418 1547.94 111.908 1559.86 92.766C1573.16 71.3834 1590.25 53.558 1610.64 39.7859C1628.28 27.8713 1648.16 19.2179 1669.73 14.0654C1690.27 9.16083 1711.89 7.51754 1733.99 9.18057C1777.46 12.4502 1819.99 28.3928 1853.73 54.0682C1871.77 67.7924 1888.14 84.3043 1902.4 103.142C1915.92 120.995 1927.62 141.05 1937.2 162.754C1955.24 203.639 1965.6 250.167 1967.16 297.304L1965.75 297.352C1962.43 196.973 1920.23 106.445 1852.87 55.1929C1781.34 0.763951 1679.8 -5.22576 1611.43 40.9557C1543.7 86.703 1515.58 173.358 1525.47 305.873C1526.25 316.356 1527.85 329.308 1529.54 343.021C1534.51 383.396 1540.7 433.644 1534.18 476.105C1530.62 499.233 1523.48 517.819 1512.95 531.352C1507.03 538.959 1499.89 545.177 1491.73 549.828C1483.05 554.778 1472.96 558.101 1461.73 559.708C1457.14 560.364 1452.48 560.694 1447.73 560.694C1430.43 560.694 1412.01 556.322 1391.82 547.466C1369.08 537.488 1347.13 523.09 1329.5 511.522C1285.27 482.506 1243.08 449.855 1204.1 414.469C1170.32 383.81 1140.53 347.979 1111.72 313.329C1078.69 273.613 1044.55 232.545 1004.42 199.377C956.333 159.634 901.241 144.526 840.67 154.478C718.145 174.61 591.932 297.55 526.513 403.256C506.422 435.719 491.306 470.648 476.686 504.427C471.331 516.801 465.795 529.598 460.058 542.178C448.425 567.69 436.936 585.958 423.901 599.663C415.765 608.214 406.938 614.957 397.665 619.701C387.355 624.974 376.125 627.974 364.286 628.613C362.374 628.712 360.447 628.763 358.518 628.763Z" fill="#A1A1A1"/>
</g>
</svg>
