<svg width="157" height="24" viewBox="0 0 157 24" fill="none" xmlns="http://www.w3.org/2000/svg">
<path d="M146.868 12.6828C146.654 12.7029 146.438 12.7167 146.228 12.7468C146.092 12.7657 146.033 12.7104 145.942 12.6816C145.912 12.6715 145.88 12.6514 145.852 12.6539C145.64 12.674 145.428 12.6966 145.216 12.7192C145.151 12.7682 145.11 12.8334 145.01 12.8573C144.913 12.8799 144.798 12.8799 144.69 12.8912C144.548 12.905 144.405 12.9188 144.262 12.9314C144.191 12.9376 144.132 12.9615 144.109 13.0067C144.104 13.0142 144.152 13.033 144.178 13.0443C144.264 13.082 144.349 13.1247 144.444 13.1535C144.535 13.1811 144.647 13.136 144.744 13.1711C144.963 13.2502 144.965 13.2489 145.132 13.2339C145.274 13.22 145.417 13.205 145.56 13.195C145.588 13.1924 145.62 13.2113 145.651 13.2213C145.741 13.2489 145.8 13.3117 145.934 13.2878C146.035 13.269 146.148 13.2652 146.254 13.2552C146.343 13.2916 146.425 13.333 146.52 13.3619C146.609 13.3895 146.635 13.4109 146.587 13.4473C146.544 13.4811 146.483 13.495 146.403 13.4975C146.332 13.4987 146.26 13.51 146.189 13.5163C146.152 13.52 146.118 13.5226 146.083 13.5263C145.947 13.5401 145.947 13.5401 145.698 13.4598C145.601 13.4284 145.49 13.4724 145.398 13.4422C145.335 13.4221 145.281 13.392 145.22 13.3707C145.194 13.3619 145.153 13.3606 145.121 13.3631C145.013 13.3719 144.904 13.3782 144.801 13.3945C144.727 13.4058 144.684 13.441 144.692 13.4761C144.695 13.4899 144.747 13.51 144.777 13.5113C144.846 13.5138 144.92 13.4962 144.987 13.505C145.051 13.5138 145.119 13.5389 145.166 13.5665C145.263 13.6242 145.374 13.5728 145.467 13.5878C145.564 13.6042 145.644 13.6544 145.737 13.6845C145.761 13.692 145.806 13.6795 145.843 13.6757C145.949 13.6669 146.055 13.6594 146.161 13.6506C146.25 13.687 146.345 13.7196 146.425 13.7611C146.57 13.8364 146.725 13.8652 146.913 13.8288C147.019 13.8087 147.123 13.8163 147.208 13.8652C147.294 13.9154 147.394 13.9104 147.504 13.9004C147.606 13.8903 147.709 13.8627 147.813 13.8979C148.038 13.9757 148.04 13.9795 148.306 13.9493C148.386 13.9406 148.447 13.938 148.507 13.9669C148.564 13.9933 148.624 14.0159 148.683 14.041C148.788 14.0322 148.897 14.0234 149.003 14.0134C149.139 13.9996 149.214 14.0171 149.247 14.0874C149.266 14.1301 149.275 14.169 149.323 14.1979C149.379 14.233 149.439 14.2318 149.522 14.2217C149.599 14.2129 149.656 14.1991 149.688 14.1539C149.701 14.1351 149.727 14.1175 149.751 14.1025C149.77 14.0912 149.801 14.0736 149.818 14.0761C149.85 14.0811 149.894 14.0949 149.904 14.1113C150.01 14.2631 150.01 14.2644 150.118 14.3083C150.237 14.3573 150.361 14.4012 150.469 14.4564C150.566 14.5054 150.663 14.4841 150.769 14.4841C150.849 14.4841 150.901 14.5167 150.895 14.5493C150.891 14.5682 150.86 14.5958 150.834 14.5983C150.622 14.6234 150.408 14.6447 150.194 14.6623C150.168 14.6648 150.136 14.6422 150.106 14.6309C150.045 14.6083 149.991 14.5732 149.926 14.5656C149.861 14.5581 149.785 14.5769 149.714 14.5832C149.643 14.5895 149.567 14.6058 149.502 14.5958C149.437 14.5857 149.385 14.5493 149.325 14.5255C149.297 14.5142 149.258 14.4979 149.234 14.5016C149.076 14.5318 148.959 14.4903 148.847 14.4351C148.823 14.4238 148.782 14.4163 148.752 14.4188C148.501 14.4401 148.252 14.4652 148.001 14.4891C147.9 14.4991 147.817 14.4552 147.796 14.3811C147.785 14.3397 147.763 14.2983 147.763 14.2569C147.763 14.1816 147.644 14.1401 147.558 14.1489C147.415 14.1615 147.27 14.1715 147.13 14.1903C147.015 14.2054 146.918 14.1903 146.84 14.1452C146.749 14.0937 146.645 14.1037 146.542 14.1175C146.464 14.1276 146.442 14.169 146.446 14.2732C146.451 14.3573 146.414 14.3836 146.273 14.3975C146.096 14.415 145.916 14.4326 145.737 14.4464C145.709 14.4489 145.676 14.4276 145.648 14.4163C145.588 14.3937 145.534 14.3573 145.469 14.3498C145.404 14.341 145.328 14.3598 145.257 14.3673C145.186 14.3736 145.11 14.3912 145.045 14.3824C144.98 14.3736 144.926 14.336 144.868 14.3121C144.84 14.3008 144.805 14.2845 144.777 14.287C144.634 14.297 144.491 14.3121 144.349 14.3259C144.189 14.341 144.189 14.341 143.961 14.2631C143.858 14.228 143.754 14.2556 143.652 14.2657C143.544 14.2757 143.442 14.2807 143.358 14.2305C143.302 14.1979 143.239 14.1778 143.172 14.1841C142.993 14.1991 142.815 14.218 142.636 14.233C142.606 14.2355 142.564 14.2293 142.541 14.218C142.426 14.1652 142.314 14.1238 142.154 14.1502C142.015 14.1728 141.866 14.174 141.728 14.1954C141.652 14.2067 141.617 14.2468 141.632 14.2782C141.641 14.2945 141.686 14.3134 141.717 14.3134C141.786 14.3146 141.862 14.2958 141.926 14.3033C142.061 14.3184 142.128 14.4238 142.303 14.3949C142.407 14.3774 142.515 14.3711 142.623 14.3661C142.651 14.3648 142.681 14.3887 142.711 14.4012C142.798 14.4351 142.874 14.479 142.999 14.4564C143.103 14.4389 143.213 14.4339 143.319 14.4238C143.488 14.4075 143.488 14.4088 143.706 14.4853C143.81 14.5217 143.914 14.4929 144.016 14.4841C144.091 14.4778 144.163 14.4652 144.223 14.4828C144.316 14.5092 144.383 14.5694 144.498 14.5656C144.606 14.5619 144.712 14.5443 144.82 14.538C144.887 14.5343 144.95 14.5544 145.004 14.5882C145.06 14.6221 145.121 14.6372 145.194 14.6297C145.3 14.6196 145.408 14.6071 145.516 14.6008C145.547 14.5995 145.581 14.6108 145.609 14.6209C145.67 14.6435 145.728 14.6698 145.787 14.6937C145.893 14.6861 146.001 14.6836 146.105 14.6686C146.185 14.6573 146.241 14.6623 146.306 14.6874C146.388 14.7213 146.455 14.7816 146.589 14.7527C146.656 14.7389 146.734 14.7426 146.801 14.7301C146.883 14.7138 146.939 14.72 146.998 14.7577C147.108 14.8292 147.247 14.8305 147.389 14.8029C147.545 14.7728 147.662 14.8079 147.779 14.8631C147.902 14.9209 147.902 14.9196 147.997 15.059C148.025 15.0991 148.105 15.118 148.172 15.1104C148.285 15.0979 148.382 15.1041 148.464 15.1518C148.551 15.2033 148.654 15.197 148.76 15.1832C148.901 15.1644 149.042 15.1481 149.156 15.2209C149.212 15.256 149.273 15.2648 149.349 15.256C149.563 15.2334 149.779 15.2196 149.989 15.192C150.116 15.1744 150.19 15.2146 150.276 15.2485C150.393 15.2949 150.521 15.3364 150.521 15.4355C150.521 15.4518 150.551 15.4707 150.577 15.4832C150.633 15.5096 150.694 15.5322 150.752 15.5573C150.839 15.5949 150.923 15.6263 151.042 15.6062C151.146 15.5899 151.256 15.5849 151.362 15.5736C151.468 15.5623 151.565 15.556 151.66 15.6037C151.771 15.6577 151.887 15.7092 152.013 15.7493C152.102 15.7782 152.218 15.7292 152.314 15.7682C152.372 15.792 152.428 15.8196 152.491 15.8397C152.517 15.8485 152.558 15.8422 152.593 15.8397C152.664 15.8347 152.737 15.8309 152.807 15.8184C152.887 15.8046 152.947 15.8071 153.008 15.8359C153.064 15.8623 153.12 15.8987 153.185 15.9062C153.282 15.9175 153.391 15.8673 153.488 15.9251C153.538 15.9539 153.6 15.9815 153.665 15.9903C153.73 15.9991 153.806 15.9803 153.875 15.9815C153.905 15.9815 153.942 16.0016 153.959 16.0179C153.97 16.0267 153.955 16.0506 153.94 16.0631C153.92 16.0782 153.892 16.0983 153.864 16.1008C153.65 16.1234 153.436 16.1422 153.222 16.1636C153.094 16.1761 153.094 16.1761 152.837 16.097C152.776 16.0782 152.709 16.082 152.634 16.0907C152.532 16.102 152.428 16.1234 152.322 16.1008C152.184 16.0154 152.013 16.0079 151.831 16.0405C151.756 16.0543 151.686 16.0543 151.63 16.0305C151.511 15.9828 151.386 15.9389 151.28 15.8824C151.198 15.8385 151.159 15.8347 151.124 15.8949C151.113 15.9138 151.102 15.9338 151.105 15.9514C151.118 16.0142 151.141 16.0757 151.154 16.1384C151.159 16.156 151.141 16.1761 151.131 16.1949C151.096 16.2477 151.051 16.2439 150.975 16.1999C150.899 16.156 150.808 16.1272 150.687 16.1472C150.583 16.1648 150.471 16.1623 150.367 16.1811C150.207 16.2087 150.095 16.1686 149.98 16.1146C149.956 16.1033 149.915 16.097 149.885 16.0995C149.563 16.1284 149.243 16.161 148.92 16.1899C148.851 16.1962 148.788 16.1774 148.734 16.1435C148.678 16.1096 148.615 16.092 148.546 16.0983C148.261 16.1246 147.975 16.1485 147.69 16.1811C147.573 16.1949 147.48 16.1786 147.4 16.1347C147.34 16.102 147.283 16.092 147.208 16.0958C147.125 16.0995 147.067 16.1121 147.026 16.1485C146.987 16.1836 147.015 16.205 147.102 16.2326C147.195 16.2627 147.281 16.3016 147.37 16.3368C147.441 16.3318 147.513 16.3217 147.582 16.323C147.612 16.323 147.64 16.3456 147.67 16.3581C147.757 16.3945 147.837 16.4309 147.96 16.4108C148.064 16.3933 148.174 16.3895 148.28 16.3782C148.427 16.3644 148.427 16.3644 148.665 16.4435C148.726 16.4636 148.791 16.4623 148.868 16.451C148.936 16.4422 149.005 16.4598 149.052 16.4974C149.072 16.5125 149.065 16.5376 149.024 16.6205C149.024 16.682 149.07 16.6543 149.085 16.6142C149.109 16.5564 149.063 16.5376 148.977 16.569C148.916 16.5916 148.886 16.6242 148.901 16.6506C148.91 16.6644 148.951 16.682 149.024 16.6205C149.215 16.5451 149.359 16.5364 149.498 16.5163C149.58 16.505 149.632 16.51 149.697 16.5426C149.775 16.5815 149.852 16.623 149.98 16.6029C150.118 16.5803 150.266 16.5778 150.406 16.5589C150.536 16.5414 150.603 16.5966 150.685 16.6292C150.785 16.6682 150.895 16.6242 150.986 16.6468C151.081 16.6694 151.148 16.7246 151.258 16.7347C151.418 16.7008 151.52 16.7636 151.641 16.805C151.736 16.8364 151.849 16.8087 151.95 16.7949C152.065 16.7799 152.16 16.7937 152.24 16.8389C152.331 16.8903 152.433 16.879 152.536 16.8677C152.779 16.8426 152.787 16.8389 152.928 16.9079C153.029 16.9581 153.127 16.9355 153.228 16.9292C153.317 16.9631 153.404 16.9995 153.497 17.0296C153.52 17.0372 153.566 17.0246 153.602 17.0209C153.708 17.0108 153.817 17.0008 153.923 16.9907C153.994 16.9845 154.07 16.9656 154.134 16.9732C154.199 16.982 154.253 17.0184 154.312 17.0422C154.37 17.0661 154.431 17.0899 154.487 17.115C154.574 17.1527 154.656 17.184 154.777 17.1652C154.881 17.1489 154.989 17.1439 155.097 17.1326C155.233 17.1188 155.229 17.1225 155.482 17.1979C155.618 17.2393 155.759 17.1891 155.897 17.1841C155.966 17.1815 156.033 17.1954 156.081 17.2318C156.1 17.2468 156.094 17.2719 156.1 17.2933C155.743 17.3271 155.384 17.356 155.032 17.3974C154.896 17.4138 154.824 17.3686 154.751 17.3309C154.63 17.2707 154.47 17.3585 154.355 17.2807C154.286 17.2342 154.186 17.2079 154.067 17.2305C153.998 17.243 153.925 17.2418 153.853 17.2531C153.672 17.2807 153.505 17.282 153.36 17.1953C153.311 17.1652 153.239 17.1489 153.187 17.12C153.127 17.0887 153.068 17.0711 152.997 17.0773C152.675 17.1075 152.355 17.1376 152.035 17.1702C152.006 17.1727 151.978 17.1916 151.955 17.2054C151.894 17.2405 151.913 17.2682 152.011 17.2907C152.043 17.2983 152.069 17.3146 152.099 17.3271C152.158 17.351 152.212 17.3886 152.277 17.3974C152.342 17.4062 152.417 17.3886 152.489 17.3824C152.56 17.3761 152.636 17.3573 152.701 17.3648C152.766 17.3736 152.82 17.41 152.88 17.4326C152.908 17.4439 152.943 17.4627 152.971 17.4615C153.114 17.4539 153.254 17.4401 153.397 17.4288C153.486 17.4627 153.561 17.5117 153.667 17.523C153.734 17.5305 153.806 17.5167 153.875 17.5192C153.905 17.5204 153.944 17.5393 153.959 17.5556C153.968 17.5656 153.94 17.5907 153.918 17.6033C153.836 17.651 153.724 17.6422 153.622 17.6573C153.512 17.6736 153.412 17.6686 153.328 17.6196C153.272 17.587 153.209 17.5694 153.14 17.5757C152.96 17.592 152.783 17.6108 152.603 17.6246C152.573 17.6271 152.536 17.6158 152.508 17.6071C152.281 17.5305 152.281 17.528 152.121 17.5443C151.885 17.5682 151.885 17.5681 151.728 17.5016C151.697 17.4891 151.665 17.4652 151.639 17.4665C151.388 17.4866 151.139 17.5066 150.891 17.5355C150.808 17.5443 150.752 17.5443 150.692 17.5117C150.64 17.484 150.579 17.4527 150.514 17.4451C150.447 17.4376 150.374 17.4564 150.302 17.4627C150.231 17.469 150.155 17.4853 150.093 17.4753C150.028 17.4652 149.971 17.4301 149.915 17.405C149.857 17.3786 149.794 17.3799 149.714 17.3899C149.468 17.4188 149.465 17.415 149.221 17.3372C149.193 17.3284 149.156 17.3184 149.126 17.3209C148.946 17.3359 148.769 17.3548 148.59 17.3698C148.52 17.3761 148.453 17.3598 148.406 17.3234C148.386 17.3083 148.393 17.2832 148.38 17.2342C148.365 17.223 148.382 17.243 148.386 17.2619C148.419 17.2594 148.458 17.2619 148.481 17.2518C148.542 17.228 148.572 17.1966 148.557 17.1702C148.548 17.1564 148.507 17.1389 148.481 17.1389C148.434 17.1389 148.393 17.1665 148.38 17.2342C148.244 17.2757 148.099 17.2845 147.958 17.3046C147.876 17.3171 147.824 17.3108 147.759 17.2782C147.681 17.238 147.601 17.1991 147.474 17.2192C147.335 17.2418 147.188 17.2456 147.045 17.2631C146.881 17.2832 146.81 17.1702 146.671 17.1727C146.529 17.1753 146.386 17.1966 146.243 17.2117C146.118 17.2242 146.118 17.2242 145.858 17.1426C145.763 17.1125 145.651 17.1564 145.558 17.125C145.495 17.105 145.441 17.0748 145.38 17.0535C145.354 17.0447 145.313 17.0447 145.281 17.0472C145.101 17.0623 144.92 17.0723 144.747 17.0999C144.55 17.1326 144.401 17.0974 144.26 17.0234C144.083 17.0372 143.903 17.0447 143.728 17.0686C143.6 17.0861 143.527 17.0447 143.44 17.0108C143.41 16.9995 143.384 16.9807 143.352 16.9757C143.319 16.9707 143.28 16.9807 143.246 16.9845C143.103 16.9983 142.956 17.0046 142.817 17.0272C142.647 17.056 142.582 16.9531 142.45 16.9405C142.361 17.002 142.314 17.0861 142.138 17.0924C141.996 17.0974 141.853 17.1175 141.71 17.1313C141.639 17.1376 141.567 17.1451 141.496 17.1514C141.382 17.1627 141.327 17.2117 141.351 17.287C141.364 17.3284 141.375 17.3698 141.386 17.4112C141.407 17.4853 141.353 17.5481 141.263 17.5569C141.012 17.5807 140.763 17.6058 140.512 17.6271C140.445 17.6334 140.38 17.6121 140.326 17.5782C140.27 17.5443 140.207 17.5292 140.138 17.5355C139.887 17.5594 139.638 17.5845 139.388 17.6058C139.359 17.6083 139.323 17.5958 139.295 17.5857C139.234 17.5631 139.176 17.5368 139.117 17.5129C138.975 17.5242 138.834 17.5317 138.693 17.5468C138.466 17.5694 138.466 17.5707 138.3 17.5016C138.269 17.4891 138.239 17.4652 138.211 17.4665C138.103 17.4715 137.997 17.484 137.889 17.4953C137.571 17.528 137.571 17.528 137.478 17.4903C137.394 17.4552 137.318 17.4125 137.19 17.4326C137.052 17.4552 136.905 17.4627 136.762 17.4753C136.656 17.484 136.55 17.4941 136.444 17.4966C136.416 17.4979 136.386 17.474 136.356 17.4615C136.269 17.4225 136.185 17.3912 136.066 17.4125C135.997 17.425 135.923 17.4276 135.852 17.4338C135.666 17.4514 135.666 17.4514 135.361 17.3761C135.33 17.3686 135.294 17.3598 135.263 17.3635C135.013 17.3861 134.764 17.4112 134.513 17.4326C134.483 17.4351 134.446 17.4276 134.416 17.4213C134.074 17.3485 134.074 17.3485 133.711 17.3836C133.572 17.3962 133.568 17.4012 133.423 17.3347C133.358 17.3058 133.304 17.292 133.228 17.3008C132.943 17.3309 132.655 17.351 132.372 17.3861C132.244 17.4012 132.171 17.3635 132.084 17.3296C132.054 17.3184 132.022 17.2933 131.996 17.2945C131.71 17.3184 131.425 17.3472 131.139 17.3711C131.113 17.3736 131.081 17.3485 131.051 17.3372C130.992 17.3146 130.936 17.2807 130.871 17.2732C130.804 17.2656 130.731 17.2845 130.657 17.2907C130.478 17.3071 130.478 17.3058 130.27 17.2318C130.242 17.2217 130.205 17.2079 130.177 17.2104C129.891 17.2355 129.604 17.2569 129.321 17.2933C129.158 17.3133 129.048 17.2769 128.933 17.2242C128.91 17.2129 128.869 17.2079 128.838 17.2104C128.516 17.2393 128.196 17.2719 127.874 17.3008C127.807 17.3071 127.742 17.2857 127.688 17.2531C127.601 17.2016 127.5 17.2079 127.391 17.2192C127.143 17.2455 127.141 17.2443 126.994 17.1841C126.963 17.1715 126.937 17.1552 126.905 17.1489C126.875 17.1426 126.836 17.1464 126.803 17.1489C126.661 17.1615 126.518 17.1753 126.375 17.1891C126.232 17.2029 126.087 17.2104 125.947 17.2318C125.774 17.2581 125.692 17.1765 125.571 17.1389C125.393 17.1552 125.212 17.1652 125.036 17.1916C124.902 17.2117 124.84 17.1564 124.751 17.1276C124.721 17.1175 124.688 17.0962 124.66 17.0987C124.338 17.1263 124.016 17.1564 123.696 17.1903C123.618 17.1979 123.566 17.1878 123.501 17.1577C123.356 17.0899 123.35 17.0924 123.107 17.1175C123.001 17.1288 122.9 17.1389 122.809 17.0874C122.729 17.041 122.632 17.0296 122.517 17.0447C122.376 17.0635 122.231 17.0736 122.089 17.0861C121.946 17.0999 121.803 17.1188 121.661 17.125C121.546 17.1313 121.477 17.0723 121.386 17.0422C121.358 17.0334 121.319 17.0322 121.286 17.0347C121.144 17.046 120.997 17.0548 120.858 17.0761C120.69 17.1024 120.597 17.0334 120.478 16.9933C120.452 16.9845 120.408 16.9895 120.376 16.9933C120.125 17.0159 119.876 17.0409 119.625 17.0648C119.537 17.0309 119.446 16.9983 119.357 16.9644C119.215 16.9769 119.072 16.9907 118.929 17.0033C118.821 17.0133 118.711 17.0171 118.609 17.0359C118.477 17.061 118.412 17.002 118.324 16.9732C118.293 16.9631 118.261 16.9418 118.233 16.9443C118.053 16.9581 117.874 16.9732 117.696 16.9945C117.528 17.0159 117.461 16.9029 117.322 16.9041C117.18 16.9054 117.033 16.9217 116.894 16.9443C116.734 16.9707 116.622 16.9305 116.507 16.8765C116.483 16.8652 116.442 16.8589 116.412 16.8615C116.232 16.8765 116.055 16.8953 115.876 16.9104C115.845 16.9129 115.809 16.9066 115.778 16.8991C115.437 16.8251 115.437 16.8238 115.287 16.8389C115.181 16.8489 115.073 16.8615 114.965 16.8677C114.935 16.8702 114.898 16.8589 114.87 16.8489C114.645 16.7723 114.645 16.7711 114.483 16.7861C114.34 16.7999 114.197 16.8138 114.055 16.8276C113.966 16.7937 113.875 16.761 113.786 16.7271C113.609 16.7435 113.427 16.756 113.252 16.7786C113.17 16.7886 113.116 16.7849 113.053 16.7535C112.975 16.7158 112.898 16.6719 112.768 16.6933C112.629 16.7159 112.482 16.7184 112.342 16.7372C112.173 16.7598 112.104 16.6456 111.968 16.6468C111.825 16.6481 111.678 16.6644 111.539 16.687C111.379 16.7133 111.267 16.6732 111.152 16.6192C111.129 16.6079 111.087 16.6016 111.057 16.6041C110.664 16.6405 110.272 16.6769 109.879 16.7158C109.636 16.7397 109.636 16.7409 109.176 16.6719C109.143 16.6669 109.109 16.6619 109.076 16.6644C108.933 16.6757 108.786 16.6845 108.648 16.7058C108.479 16.7322 108.386 16.6644 108.267 16.623C108.241 16.6142 108.2 16.6192 108.166 16.6217C108.058 16.6305 107.952 16.6418 107.844 16.6518C107.701 16.6656 107.558 16.6794 107.415 16.6933C107.327 16.6606 107.236 16.6267 107.147 16.5941C106.97 16.6104 106.788 16.6192 106.613 16.6456C106.479 16.6656 106.416 16.6129 106.328 16.5828C106.297 16.5728 106.265 16.5514 106.237 16.5527C105.914 16.5803 105.592 16.6092 105.272 16.6443C105.14 16.6594 105.08 16.6029 104.991 16.574C104.961 16.5652 104.926 16.5489 104.898 16.5514C104.684 16.569 104.47 16.5903 104.256 16.6117C104.135 16.6242 104.135 16.6242 103.871 16.5464C103.841 16.5376 103.806 16.5288 103.776 16.5313C103.097 16.5941 102.42 16.6606 101.741 16.7234C101.671 16.7297 101.609 16.7108 101.555 16.6769C101.498 16.643 101.436 16.6255 101.366 16.6318C101.081 16.6581 100.793 16.682 100.51 16.7146C100.393 16.7284 100.3 16.7121 100.22 16.6681C100.16 16.6355 100.104 16.623 100.028 16.6305C99.8851 16.6456 99.7424 16.6581 99.5996 16.6719C99.4569 16.6857 99.3142 16.6995 99.1714 16.7133C99.0287 16.7272 98.8838 16.7347 98.7432 16.756C98.5702 16.7824 98.4859 16.7046 98.3669 16.6656C98.1528 16.6845 97.9387 16.7033 97.7268 16.7234C97.4413 16.7497 97.1558 16.7786 96.8704 16.8037C96.8444 16.8062 96.812 16.7836 96.7817 16.7723C96.6931 16.741 96.6282 16.697 96.4962 16.7108C95.8561 16.7774 95.2117 16.8338 94.5694 16.8991C94.4353 16.9129 94.3769 16.8589 94.286 16.8301C94.2558 16.8213 94.2212 16.8037 94.1931 16.8062C93.8362 16.8376 93.4794 16.8727 93.1226 16.9066C92.9777 16.9204 92.9777 16.9204 92.7355 16.8426C92.7073 16.8338 92.6705 16.8225 92.6403 16.825C92.1753 16.8677 91.7125 16.9129 91.2476 16.9569C91.1783 16.9631 91.1157 16.9456 91.0594 16.9117C91.0054 16.8778 90.9405 16.8589 90.8734 16.8652C90.4452 16.9054 90.0149 16.9443 89.5888 16.9882C89.4742 17.0008 89.379 16.9895 89.2969 16.9443C89.2385 16.9117 89.1801 16.8979 89.1066 16.9054C88.4643 16.9669 87.8219 17.0259 87.1796 17.0912C87.0564 17.1037 86.9699 17.0799 86.8921 17.0384C86.8293 17.0058 86.7752 16.9995 86.6974 17.0045C86.6152 17.0108 86.5655 17.0246 86.5201 17.0623C86.4617 17.1112 86.4249 17.1727 86.2865 17.1765C86.1438 17.1803 85.9989 17.1954 85.8583 17.2167C85.7242 17.238 85.6615 17.1815 85.5772 17.1476C85.5144 17.1238 85.4561 17.12 85.376 17.1313C85.3025 17.1414 85.2571 17.1627 85.2139 17.2029C85.1187 17.2882 85.11 17.2882 84.9933 17.2342C84.9305 17.2054 84.8743 17.1828 84.8051 17.1878C84.5196 17.2129 84.2342 17.2405 83.9487 17.2694C83.7843 17.2857 83.7822 17.2882 83.6589 17.2255C83.5984 17.1941 83.54 17.179 83.4686 17.1866C82.6836 17.2619 81.8986 17.3347 81.1135 17.4138C80.9924 17.4263 80.9102 17.3999 80.8237 17.3623C80.7956 17.3497 80.7675 17.3322 80.7351 17.3271C80.7026 17.3221 80.6659 17.3271 80.6313 17.3296C80.0603 17.3836 79.4872 17.4351 78.9184 17.4953C78.7887 17.5092 78.7195 17.469 78.6308 17.4364C78.6006 17.4251 78.5746 17.4075 78.5421 17.4025C78.5097 17.3987 78.4708 17.4075 78.4362 17.4112C77.8652 17.4652 77.2922 17.5167 76.7234 17.5769C76.5871 17.5907 76.5287 17.538 76.4401 17.5104C76.4098 17.5004 76.3774 17.4815 76.3493 17.484C76.1698 17.4978 75.9924 17.5167 75.8129 17.533C75.3847 17.5744 74.9565 17.6133 74.5283 17.656C74.3639 17.6723 74.2926 17.5606 74.1542 17.5656C73.9747 17.5719 73.7973 17.597 73.6178 17.6146C73.4751 17.6284 73.3324 17.641 73.1896 17.656C73.0491 17.6698 73.0491 17.6698 72.6987 17.597C72.6684 17.5907 72.6317 17.582 72.6014 17.5845C72.1019 17.6309 71.6001 17.6774 71.1027 17.7276C70.9881 17.7389 70.8929 17.7326 70.8108 17.6861C70.7524 17.6535 70.6918 17.6372 70.6205 17.6447C69.87 17.7163 69.1217 17.7878 68.3713 17.8581C68.3432 17.8606 68.3064 17.8481 68.2783 17.838C68.2178 17.8154 68.1594 17.7891 68.101 17.7652C68.0577 17.7941 68.0015 17.8204 67.9734 17.8531C67.9345 17.897 67.8826 17.9096 67.8004 17.9171C67.7182 17.9246 67.6663 17.9221 67.6015 17.8895C67.5236 17.8493 67.4436 17.8179 67.316 17.8305C66.5309 17.9096 65.7459 17.9811 64.9609 18.0589C64.8311 18.0715 64.7706 18.0163 64.6798 17.9874C64.6495 17.9786 64.6148 17.9648 64.5867 17.9673C64.2645 17.9962 63.9444 18.0276 63.6222 18.0577C62.729 18.143 61.8359 18.2246 60.9449 18.315C60.7827 18.3313 60.6724 18.2999 60.5578 18.246C60.534 18.2347 60.4929 18.2284 60.4626 18.2309C59.2126 18.3489 57.9626 18.4681 56.7148 18.5874C56.6478 18.5937 56.5829 18.5736 56.5288 18.5409C56.4726 18.507 56.4099 18.4907 56.3407 18.497C55.7697 18.551 55.1988 18.605 54.6279 18.6602C54.4852 18.674 54.483 18.6752 54.3359 18.615C54.3056 18.6024 54.2732 18.5786 54.2494 18.5811C54.1997 18.5874 54.1521 18.6188 54.1175 18.6614C54.0829 18.7066 54.0288 18.7192 53.9488 18.728C53.8666 18.7368 53.8126 18.733 53.7498 18.7029C53.6698 18.6652 53.5963 18.6288 53.4665 18.6414C51.8251 18.802 50.1837 18.9564 48.5422 19.1158C48.4103 19.1284 48.3497 19.0757 48.2589 19.0468C48.2286 19.038 48.1984 19.0255 48.1659 19.0229C48.1313 19.0204 48.0946 19.028 48.06 19.0317C45.3826 19.2865 42.7053 19.5426 40.028 19.7974C39.868 19.8125 39.8701 19.8125 39.695 19.928C39.6733 19.9418 39.6452 19.9606 39.6149 19.9631C38.7953 20.0434 37.9735 20.1213 37.1517 20.1991C36.7949 20.233 36.4381 20.2681 36.0812 20.3008C35.9536 20.3121 35.9536 20.3121 35.6487 20.4476C35.6227 20.4589 35.5924 20.474 35.5622 20.4765C34.1348 20.6133 32.7075 20.7501 31.278 20.8844C31.1655 20.8945 31.0747 20.9171 31.0228 20.9773C30.9861 21.02 30.9385 21.0451 30.8671 21.0526C29.868 21.148 28.8689 21.2447 27.8676 21.3376C27.7486 21.3489 27.6772 21.384 27.6189 21.4367C27.5994 21.4543 27.5821 21.4744 27.554 21.4869C27.528 21.4982 27.4891 21.502 27.4567 21.5058C26.6003 21.5874 25.7439 21.6715 24.8853 21.7493C24.7577 21.7606 24.7058 21.807 24.6431 21.856C24.6215 21.8723 24.6063 21.8949 24.5782 21.9062C24.5501 21.9162 24.509 21.9162 24.4744 21.9187C23.7607 21.9865 23.0471 22.0556 22.3334 22.1234C22.195 22.1171 22.1647 22.1899 22.0977 22.2338C22.0739 22.2489 22.0566 22.269 22.0285 22.279C21.9982 22.289 21.9592 22.2878 21.9225 22.2903C21.3516 22.3443 20.7806 22.402 20.2075 22.4522C20.0756 22.4635 20.0497 22.5275 19.9783 22.5715C19.9545 22.5853 19.9307 22.6066 19.9026 22.6104C19.5458 22.6468 19.189 22.6807 18.8321 22.7133C18.7132 22.7246 18.7132 22.7233 18.5034 22.8476C18.4796 22.8614 18.4515 22.8765 18.4212 22.8803C17.887 22.933 17.3507 22.9832 16.8144 23.0346C16.7452 23.0409 16.6976 23.071 16.663 23.1137C16.6284 23.1564 16.5787 23.184 16.5095 23.1903C16.0813 23.2317 15.653 23.2744 15.2248 23.312C15.1059 23.3221 15.0281 23.3535 14.9762 23.41C14.9372 23.4526 14.8897 23.474 14.814 23.4815C14.3858 23.5217 13.9576 23.5656 13.5272 23.6007C13.4018 23.6108 13.3369 23.6535 13.285 23.7062C13.2439 23.7489 13.1963 23.7639 13.1163 23.7715C12.3313 23.8443 11.5441 23.9171 10.7612 23.9974C10.6293 24.0112 10.5622 23.9673 10.4757 23.9359C10.3525 23.892 10.2379 23.8443 10.2379 23.7463C10.2379 23.7313 10.2011 23.7137 10.1752 23.7012C9.98268 23.607 9.98267 23.607 9.9524 23.5066C9.9351 23.4451 9.91563 23.3823 9.9005 23.3196C9.87238 23.2167 9.80315 23.1903 9.60419 23.2091C9.53282 23.2154 9.46146 23.2242 9.39009 23.2292C9.28412 23.238 9.20412 23.1966 9.18465 23.1212C9.17384 23.0798 9.16088 23.0384 9.15007 22.997C9.2582 22.9869 9.25601 22.9857 9.44632 22.8338C9.52634 22.7698 9.52637 22.7698 9.37283 22.7058C9.31444 22.6819 9.25819 22.6556 9.19548 22.633C9.16736 22.6229 9.13061 22.6166 9.10034 22.6192C8.92084 22.6342 8.74351 22.6518 8.56617 22.6694C8.28071 22.697 8.28067 22.697 7.99088 22.5689C7.96709 22.5589 7.93033 22.5401 7.93465 22.53C7.95844 22.4836 8.01683 22.4635 8.09035 22.4585C8.19849 22.451 8.30445 22.4384 8.41042 22.4284C8.48178 22.4221 8.55315 22.4146 8.62452 22.4083C8.69156 22.3606 8.7608 22.3141 8.82351 22.2652C8.92299 22.1899 8.92296 22.1874 8.78671 22.1346C8.70021 22.0995 8.60722 22.0681 8.51855 22.0355C8.41258 22.0455 8.30445 22.0568 8.19849 22.0656C8.0644 22.0769 8.01033 22.053 7.97573 21.9715C7.94545 21.8999 7.98222 21.8384 8.08603 21.8233C8.19199 21.8083 8.29152 21.7983 8.34558 21.7342C8.39748 21.6727 8.4883 21.6489 8.60076 21.6438C8.67212 21.6401 8.74349 21.6313 8.81485 21.6238C8.90785 21.6137 8.9576 21.5497 8.93814 21.4782C8.92733 21.4317 8.90569 21.3928 8.82135 21.3828C8.44722 21.3388 8.44287 21.3401 8.25688 21.2547C8.23958 21.2472 8.22663 21.2246 8.23312 21.2133C8.24393 21.1945 8.26773 21.1669 8.29368 21.1631C8.54238 21.1355 8.79107 21.1104 9.03978 21.0916C9.12196 21.0853 9.18252 21.0765 9.21063 21.03C9.24956 20.966 9.23226 20.907 9.15657 20.8631C9.13278 20.8493 9.09382 20.8317 9.06786 20.833C8.7824 20.8556 8.49911 20.8844 8.21364 20.907C8.18769 20.9095 8.14013 20.8882 8.12932 20.8719C8.10769 20.8418 8.14011 20.8016 8.2158 20.7878C8.31528 20.769 8.41693 20.7677 8.48397 20.7049C8.57696 20.6158 8.69157 20.5342 8.79537 20.4489C8.81267 20.4338 8.84083 20.4049 8.83434 20.4024C8.78027 20.3748 8.71754 20.3535 8.66132 20.3271C8.56616 20.2832 8.56614 20.2217 8.58777 20.1627C8.60507 20.115 8.66995 20.0962 8.74997 20.0962C8.78457 20.0962 8.82782 20.0962 8.85593 20.0849C8.92946 20.0573 8.95326 20.0221 8.91649 19.9957C8.89487 19.9807 8.85596 19.9594 8.83001 19.9619C8.36721 20.0033 7.90221 20.0434 7.44157 20.0949C7.30532 20.11 7.24265 20.0623 7.16047 20.0284C7.09775 20.002 7.03933 19.992 6.96147 20.0108C6.88794 20.0284 6.8166 20.0183 6.77119 19.9769C6.73442 19.943 6.79929 19.9142 6.97446 19.8815C7.0069 19.8752 7.04365 19.8715 7.06744 19.8589C7.3183 19.7234 7.31829 19.7221 7.4913 19.7045C7.65999 19.6882 7.66003 19.687 7.7487 19.6142C7.78979 19.5803 7.83517 19.5464 7.87409 19.5112C7.88923 19.4974 7.91521 19.4723 7.90656 19.4648C7.85899 19.4259 7.79408 19.4171 7.71839 19.4259C7.54971 19.4472 7.35077 19.4296 7.26211 19.5489C7.2275 19.5941 7.17343 19.6066 7.09558 19.6142C6.31271 19.687 5.52982 19.7648 4.74478 19.8351C4.61719 19.8464 4.55883 19.8928 4.50909 19.9443C4.46584 19.987 4.41825 19.9995 4.33607 20.007C4.25389 20.0146 4.18898 20.0183 4.1414 19.9769C4.11329 19.9518 4.13708 19.9167 4.20196 19.8815C4.29495 19.8313 4.27765 19.7686 4.24737 19.7096C4.22574 19.6706 4.1587 19.643 4.08734 19.6455C3.98137 19.6506 3.87975 19.6644 3.79109 19.6142C3.73918 19.5853 3.67429 19.5652 3.6159 19.5401C3.50344 19.4886 3.39098 19.4359 3.23311 19.4698C3.12498 19.4573 3.04929 19.4121 2.96278 19.3769C2.81789 19.3192 2.80491 19.3104 2.90872 19.2489C3.0255 19.1798 2.93465 19.0895 2.99953 19.0217C3.06873 18.9489 3.16392 18.8849 3.24826 18.8171C3.26989 18.7995 3.28936 18.7832 3.31099 18.7656C3.26125 18.7405 3.21584 18.7092 3.15745 18.6916C3.08176 18.669 3.04283 18.6414 3.04716 18.5635C3.03202 18.5522 3.03846 18.5811 3.05576 18.5886C3.07522 18.5962 3.12284 18.5899 3.14663 18.5811C3.20718 18.5573 3.23743 18.5259 3.22229 18.4995C3.21364 18.4857 3.17258 18.4681 3.14663 18.4681C3.09905 18.4681 3.05797 18.4958 3.04499 18.5635C2.80278 18.615 2.55187 18.6401 2.30101 18.6602C2.27506 18.6627 2.24264 18.6376 2.21236 18.625C2.11288 18.5824 2.11287 18.5836 1.82091 18.5711C1.79064 18.5698 1.74957 18.5522 1.73443 18.5347C1.67171 18.4581 1.67389 18.374 1.64361 18.2924C1.69984 18.2397 1.75603 18.1882 1.81442 18.1368C1.9312 18.0326 2.08262 17.941 2.17345 17.8267C2.15398 17.7652 2.12803 17.7037 2.22318 17.6535C2.49351 17.5907 2.49137 17.5907 2.56489 17.5305C2.77467 17.3598 2.98227 17.1878 3.20069 17.0196C3.25908 16.9757 3.25909 16.9518 3.15529 16.933C3.12285 16.928 3.0882 16.9267 3.0536 16.9292C2.94547 16.938 2.83734 16.9606 2.73137 16.9556C2.6254 16.9518 2.54754 16.8966 2.46104 16.8627C2.37237 16.8276 2.28371 16.7912 2.19504 16.7548C2.0934 16.7585 1.99177 16.7937 1.89013 16.7372C1.81228 16.6933 1.71496 16.6619 1.6263 16.6255C1.69334 16.5301 1.81879 16.4573 1.91611 16.3732C2.00478 16.2966 2.00689 16.2979 2.24478 16.2389C2.35723 16.2113 2.39616 16.0694 2.30101 16.028C2.18639 15.9778 2.06531 15.9313 1.94853 15.8836C1.84688 15.8874 1.7431 15.9213 1.64578 15.8648C1.57009 15.8221 1.48357 15.7933 1.35813 15.8096C1.1462 15.8372 0.929941 15.851 0.715841 15.8736C0.642312 15.8811 0.562271 15.8761 0.529832 15.8334C0.508206 15.8033 0.570926 15.7619 0.642293 15.7531C0.750424 15.7405 0.847731 15.7255 0.901797 15.6627C0.9537 15.6 1.04884 15.5811 1.1613 15.5723C1.19158 15.5698 1.22621 15.5548 1.24134 15.5397C1.3192 15.4669 1.40571 15.4041 1.57223 15.4067C1.64144 15.3815 1.67818 15.3502 1.65655 15.32C1.64357 15.3037 1.59818 15.2824 1.57223 15.2849C1.39273 15.2975 1.21324 15.31 1.03807 15.3326C0.95589 15.3426 0.89314 15.3451 0.841237 15.3075C0.804473 15.2824 0.823934 15.2485 0.893138 15.2121C0.953692 15.1807 0.971012 15.1443 0.966686 15.1016C0.955873 15.0025 0.890982 14.9736 0.68337 14.9799C0.534149 14.9849 0.497382 14.9686 0.464943 14.8832C0.456292 14.8631 0.434704 14.8355 0.449843 14.8217C0.542835 14.7364 0.603393 14.6309 0.778565 14.5908C0.847769 14.5757 0.921269 14.5757 0.964522 14.5431C1.00777 14.5104 1.04672 14.4728 1.09214 14.4414C1.14836 14.4037 1.18725 14.3686 1.1613 14.3447C1.11805 14.3021 1.04887 14.2983 0.968851 14.3134C0.899647 14.3259 0.82612 14.3272 0.754753 14.3347C0.627159 14.3485 0.523376 14.3159 0.508238 14.2606C0.467148 14.115 0.423883 13.9707 0.387118 13.8251C0.382793 13.8075 0.393576 13.7849 0.410877 13.7698C0.471431 13.7171 0.536335 13.6669 0.599051 13.6154C0.67258 13.5565 0.789381 13.5678 0.888861 13.5565C1.02943 13.5401 1.02938 13.5414 1.21753 13.4209C1.29106 13.3732 1.41866 13.392 1.49435 13.3493C1.51814 13.3355 1.55491 13.3129 1.54842 13.3004C1.53977 13.2841 1.49654 13.2715 1.4641 13.264C1.43382 13.2564 1.39707 13.2527 1.36463 13.2565C0.97103 13.2929 0.579606 13.3318 0.186009 13.3669C0.118968 13.3732 0.0454362 13.3456 0.0216474 13.3067C-0.0021415 13.2703 0.00432525 13.2263 0 13.1849C0.0627161 13.1334 0.134055 13.0857 0.188121 13.0305C0.229211 12.9878 0.276797 12.969 0.358976 12.9665C0.467108 12.9627 0.573087 12.9477 0.694194 12.9364C0.919106 12.7531 1.13968 12.5611 1.38189 12.3778C1.47921 12.3037 1.45546 12.2284 1.47492 12.1493C1.49439 12.0765 1.63927 12.0878 1.73659 12.0665C1.81445 12.0489 1.84036 12.0088 1.81009 11.9811C1.79279 11.9648 1.75388 11.946 1.7236 11.946C1.65224 11.946 1.58087 11.9573 1.50951 11.9636C1.43814 11.9698 1.35596 11.9661 1.29757 11.9874C1.24135 12.0075 1.20456 12.0502 1.1678 12.0866C1.12671 12.1267 1.07268 12.1406 0.990498 12.1431C0.88453 12.1456 0.778568 12.1569 0.672599 12.1657C0.555817 12.1167 0.434685 12.069 0.322229 12.0176C0.300603 12.0075 0.296254 11.9786 0.298417 11.9598C0.302742 11.9109 0.270311 11.8807 0.198944 11.8569C0.138391 11.8368 0.0886464 11.8079 0.0324182 11.7828C0.0756707 11.7489 0.123265 11.7163 0.157867 11.6799C0.233559 11.6033 0.328725 11.5481 0.493084 11.5506C0.557963 11.5017 0.609851 11.4414 0.694194 11.4075C0.774211 11.3749 0.910462 11.4075 0.971016 11.3334C1.00129 11.297 1.04673 11.2556 1.10512 11.2406C1.19812 11.2167 1.31922 11.2293 1.37329 11.159C1.40573 11.1188 1.45328 11.0824 1.516 11.0724C1.58737 11.0611 1.66088 11.0586 1.71278 11.0347C1.74089 11.0222 1.77118 11.0021 1.77118 10.9845C1.77118 10.9732 1.72796 10.9556 1.69768 10.9481C1.66957 10.9393 1.63276 10.933 1.60032 10.9356C1.49219 10.9431 1.38622 10.9569 1.27809 10.9644C1.24781 10.9669 1.21322 10.9581 1.18078 10.9506C1.08563 10.9305 1.0921 10.9054 1.1678 10.8602C1.24349 10.8163 1.29758 10.7598 1.3603 10.7084C1.4295 10.6996 1.51599 10.7033 1.56357 10.6795C1.64359 10.6406 1.6998 10.5841 1.76468 10.5351C1.83605 10.5276 1.90957 10.5251 1.97661 10.5113C2.00473 10.5063 2.01771 10.4787 2.0415 10.4623C2.08476 10.431 2.12155 10.3858 2.17994 10.3707C2.2751 10.3481 2.39188 10.3569 2.4481 10.2879C2.48054 10.2477 2.53027 10.205 2.59082 10.2025C2.7595 10.1975 2.83087 10.1284 2.91738 10.0632C2.98226 10.0142 3.12067 10.0393 3.19203 9.99037C3.23961 9.95899 3.27423 9.92007 3.32181 9.88994C3.34128 9.87739 3.38235 9.87112 3.41479 9.86736C3.59213 9.84853 3.77162 9.83472 3.94895 9.81463C3.97707 9.81087 4.00304 9.79205 4.02466 9.77699C4.07008 9.74435 4.09816 9.69916 4.15439 9.67782C4.21062 9.65648 4.29063 9.65648 4.35983 9.65021C4.58258 9.63138 4.5999 9.63639 4.70154 9.5297C4.78372 9.44308 4.98487 9.5046 5.05191 9.4092C5.09084 9.35397 5.16217 9.30878 5.28977 9.30251C5.46927 9.29372 5.6466 9.26987 5.82609 9.25355C5.98613 9.23849 5.98397 9.23848 6.15698 9.12175C6.23484 9.06903 6.34948 9.07657 6.45112 9.06653C6.55925 9.05648 6.65872 9.04143 6.71063 8.97867C6.76253 8.91716 6.85767 8.89707 6.96797 8.88828C7.06961 8.87949 7.18425 8.88578 7.26427 8.83557C7.45891 8.71507 7.45675 8.7138 7.59299 8.70125C7.80709 8.68117 8.02119 8.66109 8.23529 8.63975C8.37802 8.62594 8.52723 8.62343 8.66132 8.59582C8.75863 8.57573 8.80187 8.50544 8.86459 8.45649C9.04193 8.43766 9.21925 8.41882 9.39659 8.40125C9.64529 8.37615 9.89615 8.35356 10.147 8.32971C10.2551 8.28201 10.2703 8.17657 10.452 8.17155C10.5601 8.16904 10.6661 8.15273 10.7742 8.14268C10.9537 8.12511 11.131 8.10251 11.3105 8.09373C11.4468 8.08745 11.4705 8.01966 11.5419 7.97699C11.5657 7.96192 11.5873 7.94059 11.6154 7.93683C11.8966 7.90168 12.1864 7.89415 12.461 7.84268C12.4891 7.83766 12.5151 7.8113 12.5216 7.79247C12.5259 7.78243 12.4891 7.76361 12.4653 7.75482C12.4372 7.74478 12.4005 7.73474 12.3702 7.73725C11.477 7.82135 10.5839 7.90671 9.69073 7.99081C9.5653 8.00336 9.5653 8.0021 9.26037 8.14017C9.23442 8.15147 9.20411 8.16402 9.17167 8.16778C9.02893 8.18284 8.88404 8.19164 8.74347 8.21047C8.62885 8.22553 8.53373 8.21046 8.45155 8.16527C8.39316 8.13263 8.33257 8.1226 8.25905 8.12511C8.17687 8.12887 8.12283 8.14269 8.07525 8.17658C8.01254 8.22302 7.98009 8.28327 7.84817 8.29582C7.24047 8.34979 6.63274 8.41004 6.0272 8.46778C5.94286 8.45021 5.90178 8.42385 5.9234 8.39247C5.93638 8.37364 5.96234 8.34854 5.98829 8.34603C6.23699 8.31967 6.48785 8.29708 6.73655 8.27198C6.77115 8.26821 6.81872 8.27071 6.83819 8.25815C6.93334 8.20167 6.96798 8.11004 7.14748 8.10376C7.25129 8.1 7.35724 8.08118 7.45672 8.0636C7.48483 8.05858 7.51079 8.03222 7.51728 8.01339C7.51944 8.00335 7.48484 7.98452 7.45889 7.97573C7.36373 7.93933 7.25346 7.98327 7.1583 7.95817C7.12586 7.94938 7.08042 7.93683 7.07393 7.92176C7.06961 7.90796 7.10638 7.88536 7.13233 7.87155C7.15612 7.859 7.18854 7.84771 7.22098 7.84394C7.50644 7.81507 7.79195 7.78494 8.07742 7.76235C8.1942 7.75356 8.27636 7.72218 8.32826 7.66444C8.36719 7.62176 8.41477 7.59917 8.4883 7.5929C8.98786 7.54645 9.48742 7.49499 9.98914 7.45231C10.1146 7.44227 10.1795 7.40085 10.2314 7.34688C10.2725 7.3042 10.3201 7.28913 10.4001 7.2816C11.1159 7.21633 11.8274 7.14353 12.5432 7.08077C12.6751 7.06947 12.7141 7.0155 12.7811 6.96905C12.8049 6.95274 12.82 6.93265 12.8503 6.92261C12.8806 6.91257 12.9195 6.91381 12.9563 6.9113C13.5272 6.85733 14.0982 6.7996 14.6713 6.74939C14.8053 6.73809 14.8312 6.67532 14.9005 6.63139C14.9242 6.61758 14.9459 6.595 14.974 6.59123C15.4022 6.54855 15.8304 6.50839 16.2586 6.46697C16.5441 6.43935 16.8295 6.41173 17.115 6.38537C17.2555 6.37282 17.2556 6.37156 17.4459 6.25231C17.4675 6.2385 17.4978 6.22218 17.5259 6.21842C18.3477 6.13808 19.1673 6.06153 19.9891 5.98245C20.0583 5.97618 20.108 5.94729 20.1427 5.90461C20.1773 5.86194 20.227 5.83307 20.2941 5.82679C20.9364 5.76403 21.5787 5.70253 22.2231 5.64353C22.3399 5.63349 22.4221 5.60336 22.474 5.54688C22.5129 5.5042 22.5605 5.48161 22.634 5.47534C23.2763 5.41509 23.9186 5.35106 24.5631 5.29332C24.6864 5.28202 24.7469 5.23935 24.8074 5.18914C24.8291 5.17157 24.8464 5.1427 24.8723 5.14019C25.1924 5.10504 25.5103 5.06864 25.8325 5.04479C25.9666 5.03475 26.012 4.98202 26.0661 4.93182C26.1094 4.89165 26.1591 4.87784 26.2413 4.87282C26.4208 4.86153 26.5981 4.8402 26.7733 4.81886C26.7992 4.81509 26.8317 4.78748 26.8338 4.7699C26.8382 4.73727 26.7884 4.71467 26.7062 4.70337C25.8498 4.78496 24.9913 4.86654 24.1349 4.94813C23.9943 4.96194 23.9943 4.96195 23.804 5.0812C23.7824 5.095 23.7521 5.11132 23.7218 5.11509C22.9 5.19417 22.0804 5.27199 21.2586 5.35107C21.1894 5.35735 21.1397 5.38622 21.1051 5.42889C21.0705 5.47157 21.0207 5.50044 20.9536 5.50672C20.1686 5.58203 19.3836 5.6586 18.5964 5.73015C18.4796 5.74019 18.3975 5.76905 18.3456 5.82679C18.3066 5.86947 18.259 5.89207 18.1855 5.89835C17.4351 5.96864 16.6868 6.04269 15.9342 6.11047C15.8585 6.11675 15.8023 6.08034 15.8066 6.04645C15.8088 6.02888 15.8412 6.00002 15.8671 5.99751C16.2586 5.95609 16.6479 5.91341 17.0415 5.88203C17.1734 5.87199 17.2123 5.81675 17.2793 5.77031C17.301 5.75399 17.3183 5.73266 17.3464 5.72387C17.3767 5.71383 17.4156 5.71509 17.4524 5.71258C18.3801 5.62346 19.3079 5.53308 20.2378 5.44898C20.3719 5.43643 20.3978 5.37492 20.467 5.33098C20.4908 5.31592 20.5125 5.29333 20.5406 5.29082C20.8261 5.2607 21.1115 5.23433 21.397 5.20797C21.8965 5.16028 22.3961 5.11258 22.8978 5.06488C23.0427 5.05107 23.0427 5.05106 23.2287 4.93307C23.2503 4.91926 23.2806 4.9017 23.3088 4.89919C24.6301 4.77242 25.9515 4.64564 27.2729 4.52011C27.3421 4.51384 27.3918 4.48497 27.4264 4.44229C27.461 4.40087 27.5107 4.37074 27.5778 4.36321C29.3641 4.1925 31.1483 4.02178 32.9346 3.85358C33.0514 3.84229 33.1335 3.81593 33.1854 3.75693C33.2222 3.71425 33.2719 3.69166 33.3455 3.68413C35.3091 3.4971 37.2728 3.31008 39.2386 3.1218C40.56 2.99627 41.8814 2.86824 43.2027 2.74523C43.3238 2.73393 43.3887 2.69501 43.4492 2.64355C43.4687 2.62597 43.4882 2.5971 43.5141 2.59459C43.7974 2.56321 44.0807 2.53435 44.364 2.50548C44.4527 2.53937 44.5414 2.57201 44.63 2.6059C44.6971 2.5582 44.762 2.50925 44.829 2.46155C45.2572 2.42515 45.6789 2.36866 46.1114 2.35109C46.1396 2.34983 46.1698 2.37368 46.2001 2.38624C46.4012 2.46532 46.5159 2.45904 46.6434 2.3536C46.6889 2.31594 46.7278 2.28205 46.797 2.27578C47.0111 2.25318 47.2274 2.23812 47.4393 2.21176C47.5539 2.19795 47.6491 2.2105 47.7313 2.25569C47.7896 2.28832 47.8502 2.30214 47.9216 2.29461C48.3152 2.25695 48.7066 2.22055 49.1002 2.18038C49.1283 2.17787 49.1542 2.15652 49.1759 2.14146C49.2213 2.10882 49.2602 2.07369 49.3035 2.03979C49.3619 2.06113 49.4268 2.07745 49.4743 2.10507C49.5349 2.1377 49.5911 2.1377 49.6733 2.12891C51.2433 1.97703 52.8156 1.82891 54.3856 1.67578C54.5197 1.66322 54.5781 1.71595 54.669 1.74356C54.6992 1.75361 54.7295 1.76615 54.7619 1.76866C54.7965 1.77117 54.8333 1.76365 54.8679 1.75988C56.0465 1.64691 57.2252 1.53519 58.4038 1.42222C58.5595 1.40716 58.5595 1.40716 58.7909 1.48498C58.819 1.49502 58.8558 1.50632 58.8861 1.50256C59.4224 1.4536 59.9587 1.40089 60.4929 1.35068C60.5621 1.3444 60.6205 1.36448 60.6832 1.39335C60.8065 1.44984 60.8151 1.44984 60.9059 1.367C60.9492 1.32808 60.9946 1.30422 61.066 1.29293C61.1438 1.28038 61.2066 1.28415 61.2671 1.30675C61.3536 1.33813 61.4164 1.39084 61.5483 1.37703C62.1192 1.31804 62.6923 1.26909 63.2611 1.20884C63.3908 1.19503 63.46 1.23771 63.5465 1.26909C63.5768 1.28038 63.6049 1.29796 63.6374 1.30172C63.6698 1.30549 63.7087 1.29669 63.7433 1.29293C64.457 1.22515 65.1728 1.15863 65.8843 1.08583C66.0184 1.07202 66.0768 1.12598 66.1676 1.1536C66.1979 1.16364 66.2325 1.18122 66.2606 1.17871C66.6888 1.1398 67.1192 1.09837 67.5474 1.05695C67.7009 1.04188 67.7009 1.04314 67.9345 1.11971C67.9626 1.12975 67.9994 1.13979 68.0297 1.13728C68.5292 1.09084 69.0309 1.04314 69.5305 0.995441C69.6841 0.980378 69.6841 0.980381 70.1274 1.04565C70.1598 1.05067 70.1944 1.05821 70.2269 1.0557C70.7978 1.00173 71.3709 0.949003 71.9418 0.891263C72.0564 0.879966 72.1516 0.890004 72.2338 0.935192C72.2922 0.967828 72.3527 0.981643 72.4241 0.974112C73.0664 0.912606 73.7109 0.853613 74.351 0.788341C74.4743 0.775789 74.5543 0.803393 74.6408 0.839794C74.6689 0.852346 74.697 0.869923 74.7295 0.874944C74.7619 0.879965 74.7987 0.874941 74.8333 0.871175C75.4756 0.809669 76.12 0.751931 76.7601 0.685404C76.8899 0.671597 76.9591 0.714272 77.0456 0.745653C77.0759 0.75695 77.1083 0.779545 77.1343 0.77829C77.3851 0.756951 77.636 0.738129 77.8847 0.706749C78.0188 0.689176 78.0772 0.746905 78.168 0.77452C78.1983 0.783307 78.2329 0.802144 78.261 0.799634C78.7973 0.75068 79.3337 0.69922 79.8679 0.6465C79.9435 0.638969 79.9997 0.650256 80.0603 0.682891C80.1403 0.726824 80.2333 0.744398 80.3501 0.730591C80.5988 0.70172 80.8497 0.681642 81.1005 0.657793C81.2476 0.643986 81.2476 0.64399 81.6974 0.709262C81.7299 0.714282 81.7645 0.721808 81.7969 0.719298C82.2251 0.679131 82.6554 0.640221 83.0815 0.596289C83.1961 0.583736 83.2913 0.59503 83.3735 0.640218C83.4318 0.672854 83.4902 0.686669 83.5637 0.679137C83.9573 0.641481 84.3488 0.603821 84.7424 0.566164C84.8851 0.552357 85.0279 0.528502 85.1706 0.528502C85.2744 0.529757 85.3501 0.590005 85.4431 0.62013C85.4691 0.628917 85.5123 0.618887 85.5469 0.616376C86.0465 0.568678 86.5482 0.524741 87.0456 0.470766C87.1753 0.456959 87.2446 0.499634 87.3311 0.531015C87.3613 0.542311 87.3938 0.564907 87.4197 0.563652C87.5992 0.549844 87.7765 0.531014 87.956 0.514696C88.1701 0.494612 88.3864 0.47955 88.5983 0.451935C88.7713 0.429341 88.8362 0.538542 88.9746 0.542307C89.0806 0.546073 89.1887 0.524738 89.2947 0.514696C89.5088 0.494612 89.7229 0.472021 89.937 0.454448C90.0127 0.448172 90.0711 0.42808 90.0949 0.382892C90.0992 0.374105 90.0625 0.355285 90.0387 0.343988C89.751 0.215955 89.751 0.215949 89.4612 0.243564C89.2817 0.261137 89.1044 0.278713 88.9249 0.293776C88.8946 0.296286 88.86 0.286245 88.8298 0.278714C88.7432 0.257375 88.7519 0.232273 88.8254 0.187085C88.8989 0.141897 88.9552 0.0866719 89.0179 0.0352078C89.1065 0.0678436 89.1931 0.100468 89.2818 0.133104C89.3531 0.126827 89.4245 0.119307 89.4959 0.113031C89.8527 0.0803952 90.2095 0.0465017 90.5663 0.0163764C90.5923 0.013866 90.6247 0.0389741 90.655 0.0515263C90.7415 0.0879278 90.8194 0.1193 90.9448 0.105492C91.2649 0.0690909 91.5871 0.0427312 91.9072 0.0113506C92.0477 -0.00245682 92.0477 -0.00245559 92.2943 0.0753682C92.3224 0.0841547 92.3591 0.0941971 92.3894 0.0916867C92.7116 0.0628166 93.0317 0.0314397 93.3539 0.00131436C93.4231 -0.00496175 93.4902 0.0113555 93.5399 0.047757C93.5594 0.0628196 93.5551 0.0879192 93.6373 0.293776C93.8924 0.46072 94.0676 0.443156 94.245 0.428093C94.3207 0.421817 94.3877 0.415535 94.4374 0.39043C94.4634 0.376623 94.4958 0.356536 94.4958 0.340218C94.4958 0.327666 94.4483 0.307579 94.418 0.305068C94.2039 0.279964 94.0006 0.332691 93.7908 0.343988C93.6935 0.349008 93.6092 0.305075 93.5919 0.233527C93.5875 0.213444 93.581 0.192106 93.5745 0.172023C93.568 0.151939 93.5638 0.130602 93.5573 0.110518C93.4729 0.104242 93.4232 0.126832 93.3864 0.16951C93.3561 0.204656 93.3129 0.244823 93.2545 0.263652C93.1961 0.283735 93.1161 0.279976 93.0447 0.286252C92.9755 0.292528 92.8998 0.308844 92.8349 0.300058C92.7701 0.290016 92.7181 0.253609 92.6576 0.231015C92.6295 0.219718 92.5949 0.203406 92.5668 0.205916C92.3181 0.227255 92.0715 0.248586 91.825 0.276201C91.6952 0.291263 91.6304 0.238552 91.5482 0.205916C91.4833 0.180812 91.4184 0.18708 91.4076 0.24482C91.3795 0.382895 91.479 0.440632 91.6996 0.414272C91.8812 0.391678 92.0456 0.387924 92.1883 0.473279C92.2078 0.484576 92.2532 0.489595 92.2813 0.487085C92.4586 0.472022 92.6338 0.453192 92.8111 0.438129C92.8436 0.435619 92.8782 0.440632 92.9085 0.445653C93.3497 0.513435 93.3497 0.514697 93.4989 0.499634C93.5702 0.492103 93.6394 0.485826 93.6329 0.295032C93.7692 0.0904308 93.9855 0.0766259 94.1952 0.0465005C94.3315 0.0276722 94.3898 0.0829044 94.4785 0.111775C94.5088 0.121816 94.5412 0.141896 94.5694 0.139386C95.0343 0.0979634 95.4971 0.0540245 95.9599 0.00758128C96.0378 4.99451e-05 96.094 0.00758251 96.1545 0.0402183C96.2324 0.0816406 96.3189 0.108006 96.4422 0.0929431C96.6887 0.0628178 96.9396 0.0439938 97.1904 0.0188893C97.318 0.00633709 97.318 0.00632422 97.5754 0.084148C97.6035 0.0929346 97.6403 0.102977 97.6705 0.100467C97.9214 0.0791277 98.1701 0.052776 98.4188 0.030182C98.488 0.0239059 98.5507 0.0414772 98.6048 0.0753682C98.6589 0.109259 98.7238 0.12683 98.7908 0.120554C99.0417 0.0979603 99.2904 0.0728639 99.5391 0.0502699C99.5693 0.0477594 99.6061 0.0565454 99.6342 0.0653319C99.898 0.143156 99.8981 0.143143 100.019 0.130591C100.196 0.111762 100.378 0.102986 100.553 0.0778811C100.724 0.0527766 100.813 0.125573 100.93 0.165741C101.25 0.13687 101.572 0.113027 101.89 0.0778811C102.02 0.0628184 102.089 0.104237 102.175 0.136873C102.206 0.14817 102.236 0.172022 102.264 0.170766C102.372 0.165745 102.478 0.15194 102.584 0.141899C102.69 0.131857 102.798 0.121816 102.904 0.111775C103.025 0.148176 103.105 0.23353 103.278 0.20466C103.382 0.187087 103.492 0.183321 103.598 0.173279C103.704 0.163237 103.812 0.153197 103.918 0.143155C103.99 0.136879 104.063 0.133108 104.132 0.121811C104.26 0.102982 104.323 0.164496 104.414 0.192111C104.444 0.200897 104.478 0.21595 104.507 0.21344C104.721 0.195866 104.937 0.180805 105.147 0.151935C105.309 0.129341 105.419 0.167002 105.534 0.219722C105.558 0.231019 105.599 0.237294 105.629 0.234784C105.88 0.213445 106.129 0.187078 106.377 0.164484C106.444 0.158208 106.509 0.178291 106.563 0.210927C106.619 0.244818 106.682 0.261148 106.751 0.254872C107 0.232278 107.251 0.207166 107.5 0.184572C107.53 0.182061 107.567 0.192105 107.595 0.202147C107.837 0.279971 107.837 0.281227 107.98 0.266164C108.014 0.262399 108.051 0.259878 108.086 0.256113C108.263 0.23854 108.447 0.232272 108.62 0.202147C108.819 0.168256 108.964 0.210935 109.104 0.282483C109.282 0.26742 109.463 0.258632 109.636 0.233527C109.766 0.214699 109.835 0.262395 109.922 0.293776C109.952 0.305073 109.985 0.327667 110.01 0.325156C110.261 0.303817 110.512 0.284996 110.759 0.253615C110.893 0.236042 110.951 0.292517 111.042 0.321387C111.072 0.331429 111.105 0.349011 111.133 0.3465C111.276 0.336459 111.418 0.321389 111.561 0.307581C111.728 0.291263 111.728 0.292517 111.948 0.369086C112.052 0.405487 112.156 0.376616 112.257 0.367829C112.366 0.357788 112.467 0.350259 112.554 0.401723C112.608 0.434359 112.673 0.454443 112.74 0.449422C112.882 0.438125 113.027 0.426833 113.168 0.408005C113.28 0.392942 113.378 0.402979 113.46 0.449422C113.518 0.482058 113.579 0.498385 113.65 0.490854C113.97 0.460729 114.292 0.429337 114.613 0.400466C114.641 0.397956 114.68 0.409257 114.706 0.420554C114.766 0.443148 114.824 0.468247 114.883 0.493352C115.023 0.482055 115.168 0.477047 115.307 0.459474C115.454 0.4419 115.588 0.435623 115.703 0.50466C115.726 0.519722 115.761 0.54105 115.789 0.539794C115.897 0.534773 116.003 0.522225 116.109 0.512183C116.215 0.502141 116.323 0.492101 116.429 0.482059C116.552 0.51344 116.63 0.603814 116.803 0.574944C116.907 0.557371 117.017 0.553605 117.123 0.543564C117.229 0.533522 117.337 0.522226 117.443 0.51344C117.478 0.510929 117.517 0.504649 117.547 0.50967C117.58 0.514691 117.608 0.532268 117.636 0.54482C117.722 0.581222 117.802 0.617627 117.926 0.596289C118.029 0.578715 118.14 0.574948 118.246 0.563652C118.391 0.549844 118.391 0.549847 118.631 0.628926C118.728 0.661561 118.838 0.618886 118.931 0.6465C118.994 0.665329 119.048 0.696703 119.109 0.718041C119.135 0.726828 119.176 0.730588 119.206 0.728078C119.349 0.716781 119.494 0.705489 119.634 0.686661C119.749 0.671598 119.844 0.686659 119.924 0.731847C119.982 0.764483 120.041 0.778298 120.114 0.770766C120.471 0.73562 120.828 0.705485 121.183 0.666573C121.304 0.652766 121.401 0.67411 121.468 0.719298C121.583 0.797122 121.745 0.705492 121.864 0.768253C121.937 0.807165 122.011 0.852356 122.145 0.833527C122.392 0.800892 122.642 0.783309 122.891 0.760715C122.98 0.794606 123.068 0.828504 123.159 0.862395C123.302 0.848588 123.445 0.834772 123.587 0.822219C123.693 0.812178 123.802 0.800882 123.907 0.792095C123.942 0.789585 123.979 0.784563 124.011 0.790839C124.044 0.797115 124.07 0.813436 124.1 0.825989C124.249 0.887495 124.249 0.888756 124.496 0.863651C124.602 0.852354 124.703 0.844823 124.792 0.895032C124.874 0.941475 124.971 0.950256 125.084 0.936449C125.296 0.911344 125.51 0.892517 125.726 0.874944C125.793 0.868668 125.856 0.890007 125.912 0.922643C125.997 0.974107 126.1 0.969088 126.206 0.95528C126.347 0.937707 126.485 0.920138 126.604 0.99043C126.628 1.00549 126.665 1.02682 126.691 1.02556C126.868 1.01552 127.048 1.008 127.221 0.984148C127.394 0.960299 127.478 1.03812 127.597 1.07578C127.774 1.05946 127.954 1.04314 128.131 1.02682C128.166 1.02306 128.207 1.01177 128.237 1.01804C128.365 1.0444 128.438 1.13854 128.613 1.10967C128.715 1.09335 128.825 1.08834 128.931 1.08457C128.959 1.08332 128.996 1.10464 129.016 1.12096C129.026 1.12975 129.016 1.1536 129.003 1.16615C128.964 1.2013 128.916 1.23394 128.882 1.27034C128.877 1.27536 128.918 1.29795 128.942 1.30799C129 1.33058 129.068 1.32683 129.145 1.31678C129.212 1.308 129.282 1.32557 129.329 1.36323C129.349 1.37829 129.342 1.40339 129.301 1.48624C129.301 1.54774 129.346 1.52012 129.362 1.47995C129.385 1.42221 129.34 1.40339 129.253 1.43477C129.193 1.45736 129.163 1.49 129.178 1.51636C129.186 1.53017 129.228 1.54774 129.301 1.48624C129.491 1.41092 129.634 1.39712 129.777 1.38332C129.814 1.37955 129.857 1.36699 129.883 1.37452C129.976 1.40465 130.062 1.44105 130.153 1.47494C130.257 1.46741 130.354 1.44858 130.456 1.49753C130.599 1.56657 130.605 1.56029 130.744 1.54649C130.815 1.53895 130.886 1.53269 130.958 1.52641C131.029 1.52014 131.085 1.53896 131.148 1.56783C131.276 1.62682 131.286 1.62682 131.371 1.54649C131.42 1.49753 131.455 1.48122 131.518 1.50381C131.725 1.58038 131.728 1.5854 131.905 1.5628C132.052 1.54398 132.19 1.53895 132.298 1.6105C132.372 1.66071 132.396 1.64942 132.454 1.5967C132.61 1.45737 132.681 1.45987 132.973 1.56029C133.109 1.60799 133.25 1.55653 133.388 1.55025C133.505 1.54523 133.587 1.57535 133.596 1.65443C133.603 1.70339 133.622 1.73854 133.7 1.75486C133.73 1.76113 133.767 1.76992 133.797 1.76741C133.977 1.75234 134.154 1.73477 134.333 1.71719C134.424 1.70841 134.474 1.64942 134.457 1.5716C134.437 1.48875 134.472 1.45862 134.602 1.43477C134.68 1.42096 134.742 1.42348 134.805 1.44608C134.874 1.47118 134.855 1.49377 134.794 1.53896C134.649 1.64942 134.667 1.71719 134.853 1.79376C134.917 1.82012 134.969 1.84398 134.984 1.88289C134.993 1.90297 134.984 1.92933 135.004 1.9444C135.11 2.0285 135.257 2.08248 135.421 2.12264C135.579 2.08875 135.687 2.14523 135.808 2.19041C135.904 2.22556 136.016 2.19544 136.118 2.18289C136.232 2.16908 136.327 2.17912 136.41 2.22556C136.468 2.2582 136.529 2.27326 136.6 2.26698C136.743 2.25317 136.888 2.24439 137.028 2.22431C137.149 2.20673 137.24 2.23184 137.316 2.27452C137.411 2.32849 137.517 2.29209 137.616 2.29962C137.75 2.3084 137.818 2.42012 137.993 2.38999C138.096 2.37242 138.205 2.36614 138.313 2.36112C138.341 2.35987 138.375 2.38121 138.399 2.39627C138.514 2.46531 138.648 2.46154 138.795 2.44146C138.897 2.42765 138.996 2.4151 139.096 2.4628C139.26 2.54314 139.442 2.61344 139.615 2.68749C139.638 2.74523 139.621 2.813 139.744 2.84689C139.809 2.86447 139.87 2.89084 139.92 2.91971C139.98 2.9536 140.036 2.96239 140.114 2.9536C140.255 2.93603 140.402 2.93225 140.54 2.90965C140.668 2.88957 140.748 2.93101 140.826 2.96992C140.888 3.0013 140.947 3.01635 141.023 2.99376C141.1 2.97242 141.157 2.98622 141.219 3.02011C141.308 3.06656 141.314 3.06155 141.609 3.07535C141.639 3.07661 141.676 3.09543 141.693 3.11174C141.702 3.12053 141.682 3.14565 141.667 3.1582C141.648 3.17326 141.617 3.19083 141.589 3.19459C141.269 3.22723 140.947 3.2561 140.627 3.28873C140.594 3.2925 140.56 3.3013 140.536 3.31385C140.51 3.32766 140.478 3.34647 140.478 3.36404C140.478 3.3766 140.521 3.39166 140.551 3.40045C140.646 3.42932 140.759 3.38539 140.852 3.41803C140.914 3.43936 140.966 3.46948 141.029 3.48957C141.055 3.49835 141.096 3.4971 141.128 3.49459C141.237 3.48581 141.343 3.47326 141.451 3.46572C141.481 3.46447 141.516 3.47703 141.544 3.48707C141.751 3.56238 141.751 3.56238 141.931 3.54606C142.002 3.53978 142.078 3.52095 142.145 3.52849C142.21 3.53602 142.266 3.56991 142.324 3.59125C142.446 3.63644 142.56 3.68037 142.569 3.77827C142.573 3.81593 142.644 3.84856 142.716 3.85107C142.785 3.85358 142.859 3.83979 142.93 3.83226C143.099 3.81719 143.099 3.81719 143.317 3.89376C143.378 3.9151 143.442 3.9176 143.52 3.90505C143.551 3.90003 143.587 3.90506 143.62 3.91133C143.726 3.93016 143.726 3.95401 143.657 3.99919C143.559 4.06572 143.568 4.072 143.84 4.12849C143.944 4.14982 144.024 4.18999 144.111 4.22514C144.251 4.28163 144.249 4.28161 144.156 4.35567C144.135 4.37199 144.115 4.38957 144.093 4.40714C144.031 4.4561 143.981 4.50881 143.851 4.51383C143.708 4.51885 143.566 4.53894 143.423 4.55275C143.285 4.56656 143.248 4.59667 143.261 4.68203C143.276 4.78496 143.304 4.79626 143.553 4.795C143.624 4.795 143.687 4.80504 143.741 4.83893C143.715 4.8791 143.667 4.91048 143.598 4.91801C143.421 4.93684 143.241 4.95316 143.064 4.96948C142.921 4.98329 142.779 4.99709 142.636 5.0109C142.547 5.01968 142.491 5.08496 142.515 5.15776C142.528 5.19918 142.538 5.24061 142.549 5.28203C142.573 5.36487 142.618 5.38622 142.763 5.38245C142.8 5.3812 142.835 5.37115 142.869 5.37366C143.01 5.38244 143.077 5.48662 143.246 5.46529C143.386 5.44771 143.533 5.44395 143.672 5.42136C143.799 5.40127 143.871 5.44647 143.959 5.48036C143.99 5.49166 144.022 5.5155 144.048 5.51424C144.228 5.50043 144.407 5.48664 144.582 5.46279C144.664 5.45275 144.714 5.46027 144.779 5.4904C144.935 5.5632 144.939 5.55944 145.17 5.53684C145.339 5.51927 145.341 5.52178 145.558 5.59835C145.618 5.61969 145.683 5.61968 145.761 5.60964C145.862 5.59709 145.968 5.577 146.074 5.59583C146.107 5.60085 146.148 5.61592 146.159 5.63224C146.165 5.64354 146.135 5.67115 146.109 5.67994C145.919 5.74521 145.696 5.73391 145.488 5.76027C145.423 5.76781 145.359 5.74395 145.304 5.71006C145.248 5.67617 145.188 5.66237 145.114 5.66865C144.971 5.68245 144.827 5.69124 144.686 5.71132C144.565 5.72889 144.481 5.70002 144.396 5.66111C144.368 5.64856 144.336 5.6247 144.308 5.62596C143.987 5.65106 143.665 5.67617 143.347 5.71132C143.22 5.72638 143.146 5.68622 143.06 5.65233C143.029 5.64103 142.999 5.61718 142.971 5.61843C142.863 5.62346 142.757 5.63726 142.649 5.6473C142.255 5.68496 141.864 5.72262 141.47 5.75776C141.444 5.76027 141.412 5.73391 141.382 5.72261C141.323 5.70002 141.263 5.67868 141.202 5.65734C141.094 5.66738 140.988 5.67993 140.88 5.68746C140.802 5.69248 140.733 5.71006 140.722 5.75776C140.715 5.78914 140.787 5.81801 140.862 5.8155C140.936 5.81299 141.01 5.79792 141.07 5.81424C141.371 5.89458 141.371 5.89583 141.559 5.87951C141.723 5.86445 141.706 5.85189 141.851 5.92093C141.913 5.95106 141.97 5.96864 142.041 5.96111C142.218 5.94353 142.398 5.92596 142.577 5.9109C142.606 5.90838 142.642 5.92094 142.67 5.93098C142.882 6.0063 142.882 6.0088 143.058 5.98997C143.287 5.96738 143.295 5.96111 143.449 6.03767C143.555 6.09039 143.652 6.05399 143.754 6.05148C143.871 6.10043 143.998 6.14437 144.104 6.1996C144.23 6.26487 144.362 6.25357 144.504 6.23474C144.61 6.22093 144.714 6.21591 144.801 6.26737C144.883 6.31507 144.982 6.3201 145.095 6.30755C145.196 6.29625 145.3 6.2724 145.406 6.30001C145.434 6.30754 145.477 6.32638 145.475 6.33767C145.473 6.35525 145.445 6.38035 145.417 6.38789C145.218 6.43935 145 6.43809 144.79 6.46194C144.762 6.46571 144.725 6.45189 144.697 6.44185C144.636 6.41926 144.578 6.3929 144.519 6.36905C144.413 6.37659 144.305 6.37909 144.202 6.39415C144.122 6.40545 144.061 6.40421 144.003 6.37408C143.949 6.34647 143.89 6.31257 143.825 6.30378C143.76 6.29499 143.685 6.31382 143.613 6.32136C143.542 6.32889 143.46 6.32511 143.404 6.3452C143.347 6.36528 143.313 6.40922 143.276 6.44436C143.235 6.48328 143.179 6.49584 143.096 6.4996C143.021 6.50337 142.96 6.49834 142.904 6.4632C142.88 6.44813 142.848 6.43683 142.815 6.42679C142.785 6.418 142.75 6.40419 142.722 6.4067C142.4 6.43557 142.08 6.46696 141.758 6.49709C141.598 6.51215 141.6 6.51214 141.267 6.43808C141.237 6.43181 141.2 6.42302 141.17 6.42553C140.99 6.4406 140.813 6.45817 140.633 6.47575C140.452 6.49332 140.454 6.49081 140.144 6.41173C140.088 6.39667 140.006 6.41675 139.939 6.41424C139.798 6.40796 139.729 6.30253 139.565 6.32261C139.424 6.34019 139.277 6.34395 139.137 6.36654C139.009 6.38663 138.936 6.3427 138.849 6.30881C138.819 6.29751 138.786 6.2724 138.76 6.27491C138.438 6.30253 138.118 6.33391 137.69 6.33767C137.584 6.33767 137.632 6.36404 137.701 6.37282C137.8 6.38663 137.833 6.36027 137.779 6.31006C137.74 6.27492 137.683 6.25733 137.638 6.26612C137.614 6.27114 137.584 6.295 137.69 6.33767C137.802 6.38537 137.796 6.41173 137.815 6.42679C137.863 6.46319 137.93 6.47825 137.999 6.47323C138.107 6.46445 138.213 6.4519 138.321 6.44436C138.352 6.44185 138.388 6.45064 138.417 6.46068C138.654 6.53851 138.657 6.54353 138.91 6.51341C138.99 6.50462 139.048 6.50462 139.111 6.52847C139.197 6.56111 139.26 6.61633 139.392 6.59875C139.567 6.57491 139.747 6.56111 139.926 6.5473C139.954 6.54479 139.984 6.56738 140.017 6.57743C140.106 6.60755 140.17 6.66404 140.302 6.64019C140.404 6.62136 140.514 6.61633 140.622 6.61256C140.651 6.61131 140.694 6.63139 140.707 6.64771C140.733 6.67658 140.7 6.71048 140.627 6.73433C140.596 6.74437 140.555 6.74186 140.521 6.74562C140.378 6.75943 140.235 6.77448 140.093 6.78578C140.017 6.79206 139.946 6.81089 139.937 6.85734C139.93 6.88872 140.008 6.91633 140.082 6.91382C140.19 6.91005 140.298 6.90001 140.402 6.88369C140.586 6.85608 140.746 6.86361 140.895 6.94268C141.001 6.99791 140.994 6.97784 141.107 7.14102C141.135 7.18244 141.219 7.1862 141.293 7.18369C141.47 7.17742 141.552 7.19625 141.537 7.23516C141.518 7.28286 141.455 7.29791 141.375 7.30419C141.232 7.31423 141.09 7.33056 140.947 7.34436C140.912 7.34813 140.873 7.35565 140.841 7.35314C140.808 7.35063 140.778 7.33557 140.75 7.32428C140.689 7.30043 140.638 7.26402 140.573 7.25523C140.508 7.24645 140.432 7.26528 140.361 7.27281C140.289 7.27908 140.214 7.29791 140.149 7.28913C140.084 7.28034 140.03 7.24269 139.971 7.2201C139.943 7.2088 139.909 7.19122 139.881 7.19247C139.738 7.20251 139.595 7.21884 139.452 7.23139C139.277 7.24771 139.277 7.24771 139.065 7.16989C139.005 7.14729 138.942 7.14855 138.862 7.15859C138.689 7.17868 138.687 7.1749 138.371 7.1021C138.341 7.09457 138.304 7.08578 138.274 7.08955C137.952 7.11842 137.631 7.1498 137.311 7.17992C137.037 7.20628 137.037 7.20629 136.885 7.33182C136.773 7.4247 136.771 7.4247 136.881 7.46737C136.97 7.50252 137.05 7.55398 137.147 7.57281C137.238 7.59038 137.35 7.5339 137.45 7.59164C137.5 7.62051 137.564 7.65189 137.627 7.65691C137.727 7.66319 137.833 7.62678 137.928 7.68201C137.975 7.70963 138.047 7.73851 138.107 7.73976C138.213 7.74227 138.321 7.72218 138.427 7.71339C138.46 7.71088 138.497 7.71089 138.527 7.71716C138.559 7.72469 138.587 7.73976 138.615 7.75231C138.702 7.79499 138.795 7.81507 138.907 7.79373C139.091 7.75858 139.256 7.77616 139.398 7.85649C139.418 7.86779 139.465 7.86905 139.496 7.86403C139.574 7.85148 139.641 7.85022 139.699 7.87406C139.723 7.88411 139.757 7.90167 139.753 7.91297C139.747 7.9318 139.721 7.9569 139.692 7.96318C139.489 8.00586 139.271 8.01089 139.061 8.03348C139.033 8.03599 138.998 8.01966 138.97 8.00837C138.91 7.98577 138.858 7.94813 138.793 7.93934C138.728 7.93055 138.652 7.94687 138.581 7.95314C138.51 7.95942 138.434 7.97825 138.369 7.97072C138.304 7.96193 138.244 7.93055 138.192 7.90293C138.131 7.87155 138.073 7.86779 137.993 7.88035C137.889 7.89667 137.781 7.89917 137.675 7.90796C137.616 7.88411 137.558 7.85774 137.497 7.83515C137.469 7.82385 137.435 7.81005 137.404 7.8113C137.262 7.82135 137.119 7.8364 136.976 7.85021C136.833 7.86402 136.834 7.86403 136.591 7.78621C136.563 7.77742 136.526 7.76738 136.496 7.76989C136.317 7.78495 136.139 7.80376 135.96 7.81883C135.891 7.8251 135.828 7.80753 135.772 7.77364C135.718 7.73975 135.653 7.72092 135.586 7.7272C135.3 7.75356 135.015 7.77867 134.729 7.81005C134.615 7.8226 134.517 7.81131 134.439 7.76612C134.349 7.71465 134.247 7.72721 134.141 7.73725C133.901 7.76235 133.899 7.76109 133.745 7.69707C133.715 7.68452 133.685 7.66067 133.657 7.66192C133.408 7.68075 133.157 7.69833 132.911 7.72845C132.781 7.74477 132.712 7.70084 132.625 7.66821C132.595 7.65691 132.562 7.63306 132.536 7.63557C132.357 7.64938 132.177 7.66193 132.002 7.68704C131.827 7.71214 131.76 7.59541 131.628 7.59667C131.449 7.59792 131.271 7.62679 131.094 7.64436C130.951 7.65817 130.808 7.67197 130.666 7.68578C130.523 7.69959 130.38 7.71088 130.237 7.7272C130.162 7.73598 130.106 7.72469 130.043 7.6933C129.963 7.65188 129.868 7.61926 129.781 7.5816C129.649 7.52763 129.649 7.52762 129.489 7.54268C129.455 7.54645 129.418 7.54895 129.383 7.55272C129.122 7.58034 129.122 7.57783 128.789 7.49875C128.773 7.49499 128.734 7.5088 128.719 7.51884C128.674 7.55148 128.633 7.58662 128.592 7.62051C128.533 7.60042 128.462 7.58913 128.423 7.56026C128.313 7.47867 128.14 7.59038 128.027 7.51005C127.986 7.47992 127.915 7.45356 127.85 7.44603C127.783 7.4385 127.707 7.45607 127.638 7.4636C127.459 7.48243 127.459 7.48118 127.305 7.5929C127.227 7.64813 127.115 7.63808 127.013 7.65063C126.907 7.66444 126.805 7.67197 126.717 7.62051C126.637 7.57406 126.539 7.56277 126.425 7.57783C126.284 7.59666 126.139 7.60795 125.997 7.61925C125.966 7.62176 125.93 7.61549 125.899 7.60796C125.568 7.5339 125.568 7.53265 125.408 7.54897C125.337 7.5565 125.263 7.559 125.194 7.5703C125.077 7.59038 124.989 7.56402 124.904 7.52385C124.876 7.5113 124.844 7.48746 124.816 7.48872C124.673 7.49499 124.532 7.50629 124.392 7.51759C124.284 7.52637 124.176 7.53139 124.072 7.54897C123.899 7.57784 123.814 7.49624 123.696 7.45858C123.518 7.4749 123.339 7.4862 123.161 7.50879C123.079 7.51883 123.025 7.51507 122.962 7.48495C122.882 7.44729 122.809 7.40462 122.679 7.42344C122.506 7.44855 122.324 7.45734 122.147 7.4724C122.028 7.43349 121.942 7.3544 121.771 7.38327C121.667 7.40084 121.557 7.40461 121.451 7.41465C121.308 7.42846 121.165 7.44102 121.023 7.45608C120.869 7.47114 120.871 7.46738 120.635 7.39332C120.499 7.34939 120.359 7.39834 120.22 7.40587C120.112 7.41215 120.058 7.46988 120.084 7.54394C120.11 7.618 120.052 7.67574 119.952 7.68578C119.703 7.70963 119.452 7.73473 119.204 7.75607C119.174 7.75858 119.137 7.74979 119.109 7.741C118.843 7.66192 118.843 7.66319 118.724 7.67449C118.546 7.69332 118.365 7.70335 118.19 7.7272C118.068 7.74352 117.98 7.71717 117.902 7.67449C117.841 7.64185 117.785 7.63432 117.707 7.64185C116.851 7.72595 115.994 7.80377 115.14 7.89038C115.013 7.90294 114.939 7.86654 114.853 7.83265C114.822 7.82135 114.794 7.7975 114.764 7.7975C114.693 7.7975 114.621 7.8088 114.55 7.81633C114.23 7.84645 113.91 7.88285 113.587 7.90545C113.451 7.91549 113.414 7.97323 113.356 8.02093C113.311 8.05733 113.259 8.07239 113.179 8.07741C113.101 8.08243 113.045 8.07615 112.984 8.04352C112.906 8.00084 112.818 7.97448 112.696 7.99205C112.556 8.01213 112.413 8.02093 112.268 8.03474C112.195 8.04101 112.138 8.0636 112.115 8.10879C112.11 8.11632 112.156 8.13516 112.182 8.14645C112.268 8.18411 112.35 8.22804 112.448 8.2544C112.547 8.28076 112.655 8.25062 112.759 8.24309C112.796 8.24058 112.831 8.23306 112.865 8.23431C112.898 8.23557 112.937 8.24185 112.96 8.25314C113.073 8.30963 113.192 8.34854 113.347 8.31465C113.481 8.33097 113.551 8.43515 113.722 8.40753C113.825 8.39122 113.933 8.38369 114.042 8.37741C114.07 8.37615 114.1 8.39875 114.13 8.41005C114.217 8.44143 114.286 8.49163 114.416 8.47029C114.554 8.4477 114.701 8.44394 114.842 8.42636C114.92 8.41632 114.976 8.42511 115.036 8.45775C115.114 8.49917 115.203 8.53054 115.324 8.51046C115.428 8.49288 115.538 8.48911 115.644 8.47782C115.783 8.46401 115.783 8.46527 116.029 8.54309C116.057 8.55188 116.094 8.56192 116.124 8.55941C116.304 8.54435 116.481 8.52552 116.661 8.51046C116.73 8.50418 116.797 8.5205 116.844 8.5569C116.864 8.57196 116.857 8.59708 116.864 8.61842C116.507 8.65231 116.15 8.68117 115.795 8.7226C115.661 8.73891 115.601 8.68745 115.512 8.65858C115.482 8.64854 115.449 8.6272 115.421 8.62971C115.17 8.65105 114.922 8.67364 114.673 8.70125C114.595 8.71004 114.537 8.70502 114.478 8.66861C114.329 8.57196 114.148 8.62468 113.979 8.63849C113.849 8.64853 113.808 8.68745 113.823 8.7703C113.843 8.8682 113.92 8.89833 114.119 8.88076C114.191 8.87448 114.262 8.86569 114.334 8.86067C114.403 8.85565 114.465 8.87196 114.522 8.90585C114.576 8.93974 114.641 8.95732 114.708 8.9523C114.85 8.941 114.995 8.92971 115.134 8.91088C115.248 8.89582 115.344 8.90837 115.424 8.95481C115.512 9.00627 115.616 8.99497 115.72 8.98368C115.962 8.95857 115.964 8.95983 116.116 9.0226C116.146 9.03515 116.176 9.059 116.204 9.05775C116.453 9.03892 116.704 9.0226 116.948 8.99247C117.076 8.97741 117.149 9.01757 117.234 9.05021C117.264 9.0615 117.294 9.08661 117.322 9.0841C117.502 9.07029 117.681 9.05648 117.856 9.03263C117.939 9.02133 117.988 9.02886 118.055 9.05899C118.215 9.13305 118.22 9.13054 118.447 9.10669C118.516 9.09915 118.592 9.08535 118.657 9.09539C118.722 9.10543 118.773 9.14184 118.834 9.16444C118.862 9.17448 118.897 9.18828 118.927 9.18577C119.07 9.17572 119.212 9.16067 119.355 9.14686C119.489 9.13305 119.489 9.13431 119.74 9.21214C119.842 9.24477 119.948 9.21715 120.049 9.20711C120.16 9.19581 120.259 9.19582 120.343 9.24477C120.428 9.29373 120.529 9.29121 120.638 9.28116C120.739 9.27112 120.843 9.24352 120.947 9.27741C121.185 9.35523 121.185 9.35647 121.332 9.34141C121.546 9.32007 121.758 9.29999 121.974 9.28116C122.002 9.27865 122.039 9.29372 122.067 9.30376C122.128 9.32636 122.18 9.36401 122.244 9.37279C122.309 9.38283 122.385 9.36777 122.454 9.36024C122.677 9.33639 122.692 9.32761 122.841 9.41045C122.967 9.47824 123.122 9.38033 123.239 9.45815C123.306 9.50209 123.397 9.53723 123.523 9.51589C123.626 9.49832 123.734 9.49329 123.843 9.48325C124.013 9.46693 124.013 9.4682 124.23 9.54352C124.258 9.55356 124.295 9.5661 124.323 9.56359C124.465 9.55355 124.61 9.54477 124.749 9.52217C124.911 9.49581 125.015 9.54352 125.136 9.58996C125.231 9.62636 125.343 9.59623 125.445 9.58368C125.555 9.57112 125.655 9.57488 125.737 9.62384C125.824 9.67405 125.925 9.66777 126.033 9.65773C126.135 9.64894 126.239 9.62007 126.343 9.65522C126.565 9.73304 126.565 9.73304 126.728 9.71798C126.87 9.70417 127.013 9.68912 127.156 9.67907C127.184 9.67656 127.218 9.69288 127.247 9.70417C127.307 9.72677 127.359 9.76443 127.424 9.77322C127.489 9.782 127.564 9.76569 127.636 9.75941C127.707 9.75313 127.783 9.7343 127.848 9.74184C127.913 9.74937 127.973 9.78075 128.025 9.80837C128.086 9.841 128.142 9.84476 128.224 9.83221C128.328 9.81589 128.436 9.81213 128.542 9.80334C128.6 9.82719 128.661 9.85103 128.717 9.87739C128.776 9.90501 128.838 9.9025 128.918 9.89371C129.184 9.86359 129.186 9.86736 129.409 9.94518C129.511 9.98033 129.617 9.95146 129.718 9.94267C129.827 9.93263 129.928 9.92761 130.013 9.97782C130.095 10.0255 130.196 10.0318 130.305 10.0167C130.374 10.0067 130.447 10.0004 130.519 9.99665C130.551 9.99539 130.59 10.0004 130.614 10.0105C130.728 10.0632 130.841 10.1109 130.999 10.077C131.137 10.087 131.206 10.19 131.373 10.1699C131.513 10.1523 131.66 10.1485 131.799 10.1259C131.926 10.1058 132.017 10.141 132.082 10.1849C132.199 10.2628 132.363 10.1573 132.48 10.2339C132.547 10.2778 132.634 10.313 132.763 10.2941C132.906 10.2741 132.952 10.3004 132.993 10.3795C133.016 10.4247 133.012 10.4611 132.969 10.4962C132.926 10.5326 132.878 10.5264 132.809 10.4849C132.729 10.4385 132.634 10.4297 132.519 10.4397C132.407 10.4498 132.337 10.3845 132.244 10.3594C132.151 10.3331 132.041 10.377 131.944 10.3431C131.715 10.264 131.715 10.264 131.559 10.2791C131.453 10.2891 131.343 10.2941 131.239 10.3117C131.116 10.333 131.036 10.2941 130.951 10.259C130.921 10.2464 130.891 10.2226 130.865 10.2238C130.616 10.2427 130.365 10.2602 130.119 10.2916C129.989 10.3079 129.92 10.2628 129.833 10.2314C129.803 10.2201 129.77 10.1975 129.744 10.2C129.53 10.2176 129.318 10.2402 129.104 10.2615C129.063 10.2954 129.018 10.328 128.979 10.3644C128.938 10.4021 128.882 10.4184 128.799 10.4171C128.663 10.4171 128.529 10.4699 128.393 10.4033C128.252 10.3356 128.241 10.3393 128.105 10.3556C127.932 10.377 127.748 10.372 127.586 10.4209C127.558 10.4297 127.528 10.4535 127.528 10.4711C127.526 10.4824 127.571 10.4987 127.599 10.5088C127.694 10.5389 127.805 10.495 127.9 10.5263C127.962 10.5464 128.014 10.5766 128.077 10.5979C128.103 10.6067 128.142 10.6054 128.176 10.6042C128.213 10.6029 128.248 10.5941 128.282 10.5954C128.315 10.5966 128.35 10.6042 128.376 10.6155C128.494 10.6632 128.62 10.7071 128.726 10.7636C128.83 10.8188 128.927 10.7812 129.031 10.7787C129.446 10.8665 129.446 10.8678 129.725 10.8402C129.794 10.8339 129.866 10.8264 129.937 10.8276C129.967 10.8276 129.995 10.8502 130.026 10.8627C130.112 10.9004 130.194 10.9343 130.315 10.9142C130.419 10.8966 130.529 10.8929 130.635 10.8816C130.778 10.8678 130.778 10.8678 131.02 10.9468C131.081 10.9669 131.146 10.9644 131.224 10.9544C131.291 10.9456 131.36 10.9644 131.407 11.0008C131.427 11.0159 131.42 11.041 131.427 11.0623C131.213 11.0824 130.997 11.0962 130.789 11.1263C130.655 11.1452 130.594 11.0912 130.506 11.0623C130.475 11.0523 130.443 11.031 130.415 11.0335C130.203 11.0523 129.991 11.0736 129.779 11.0987C129.753 11.1012 129.721 11.1301 129.718 11.1477C129.714 11.1803 129.768 11.2117 129.846 11.2104C129.95 11.2092 130.052 11.1878 130.145 11.2393C130.222 11.2845 130.32 11.3046 130.434 11.2845C130.503 11.2732 130.577 11.2732 130.646 11.2632C130.83 11.233 130.997 11.2393 131.135 11.3247C131.241 11.3473 131.345 11.3259 131.446 11.3146C131.522 11.3058 131.596 11.2971 131.65 11.3209C131.764 11.3711 131.877 11.4213 132.035 11.3874C132.205 11.4226 132.335 11.4966 132.478 11.5569C132.545 11.5858 132.597 11.6021 132.675 11.5833C132.707 11.5757 132.746 11.5757 132.781 11.5719C132.852 11.5657 132.928 11.5468 132.993 11.5544C133.058 11.5632 133.112 11.5996 133.17 11.6222C133.198 11.6335 133.231 11.6523 133.259 11.651C133.367 11.6447 133.473 11.6322 133.579 11.6222C133.685 11.6134 133.791 11.6046 133.897 11.5958C133.985 11.6284 134.076 11.6611 134.165 11.6937C134.308 11.6799 134.45 11.6661 134.591 11.6535C134.749 11.6385 134.749 11.6397 134.976 11.7176C135.077 11.7527 135.186 11.7301 135.283 11.7138C135.445 11.6874 135.553 11.7351 135.668 11.7853C135.692 11.7954 135.735 11.8017 135.763 11.7966C135.875 11.7791 135.973 11.7929 136.055 11.8393C136.113 11.8719 136.172 11.887 136.243 11.8807C136.492 11.8569 136.74 11.8318 136.989 11.8104C137.019 11.8079 137.054 11.8192 137.082 11.8293C137.303 11.9058 137.305 11.9096 137.467 11.8895C137.612 11.8719 137.746 11.8644 137.861 11.9334C137.885 11.9485 137.921 11.9699 137.947 11.9686C138.125 11.956 138.304 11.9422 138.479 11.9209C138.559 11.9109 138.615 11.9146 138.678 11.9435C138.758 11.9799 138.83 12.0238 138.962 12.0075C139.327 11.9611 139.329 11.9686 139.762 12.0552C139.792 12.0615 139.833 12.0514 139.868 12.0464C139.941 12.0339 139.995 12.0514 140.06 12.0803C140.205 12.1456 140.209 12.1418 140.348 12.128C140.454 12.1167 140.564 12.1142 140.668 12.0954C140.828 12.0678 140.934 12.1167 141.053 12.1632C141.148 12.1996 141.258 12.1694 141.36 12.1581C141.47 12.1456 141.57 12.1493 141.652 12.197C141.708 12.2297 141.769 12.2473 141.84 12.241C142.089 12.2184 142.337 12.1933 142.586 12.1707C142.616 12.1682 142.653 12.1782 142.681 12.187C142.928 12.2648 142.928 12.2686 143.172 12.2397C143.25 12.2309 143.315 12.2284 143.373 12.2548C143.429 12.2799 143.49 12.3037 143.548 12.3276C143.654 12.3188 143.763 12.3163 143.866 12.3012C143.946 12.2899 144.003 12.295 144.065 12.3213C144.147 12.3552 144.217 12.4142 144.346 12.3853C144.413 12.3715 144.491 12.3753 144.558 12.3627C144.638 12.3464 144.692 12.3565 144.755 12.3891C144.833 12.428 144.913 12.4682 145.038 12.4481C145.177 12.4255 145.324 12.4217 145.465 12.4042C145.542 12.3941 145.596 12.4042 145.659 12.4368C145.737 12.4782 145.826 12.5046 145.947 12.4883C146.193 12.4569 146.195 12.4631 146.436 12.5422C146.496 12.5623 146.561 12.5598 146.639 12.5498C146.706 12.541 146.775 12.5598 146.823 12.5962C146.868 12.6364 146.864 12.6615 146.868 12.6828ZM127.597 1.36197C127.526 1.36825 127.454 1.37578 127.35 1.26657C127.344 1.24774 127.348 1.22516 127.333 1.20884C127.299 1.17495 127.244 1.1511 127.18 1.14733C127.063 1.14231 126.922 1.18498 126.924 1.21762C126.926 1.24523 126.963 1.26908 127.035 1.29167C127.065 1.30046 127.089 1.31552 127.117 1.32556C127.199 1.35443 127.264 1.41093 127.383 1.38206C127.361 1.30424 127.372 1.34315 127.383 1.38206C127.372 1.42976 127.404 1.46365 127.482 1.47746C127.504 1.48122 127.536 1.47871 127.554 1.47117C127.621 1.44356 127.632 1.40591 127.582 1.30675C127.573 1.32307 127.58 1.35193 127.599 1.35946C127.619 1.36699 127.666 1.36072 127.69 1.35193C127.75 1.32809 127.781 1.2967 127.766 1.27034C127.757 1.25653 127.716 1.23896 127.69 1.23896C127.645 1.23896 127.603 1.26657 127.597 1.36197ZM145.084 15.9188C144.926 15.9426 144.744 15.9338 144.587 15.9828C144.558 15.9916 144.53 16.0142 144.528 16.0318C144.526 16.043 144.569 16.0594 144.595 16.0682C144.654 16.0882 144.718 16.082 144.794 16.0757C144.909 16.0669 144.976 16.1246 145.064 16.1535C145.093 16.1623 145.129 16.1686 145.16 16.1661C145.335 16.151 145.508 16.1347 145.683 16.1171C145.713 16.1133 145.746 16.1046 145.772 16.0933C145.858 16.0569 145.849 16.033 145.765 16.0054C145.672 15.9753 145.599 15.9251 145.503 15.9012C145.367 15.8673 145.229 15.9125 145.084 15.9188ZM132.802 16.8351C132.696 16.8451 132.593 16.8552 132.487 16.8652C132.452 16.869 132.415 16.8702 132.383 16.8753C132.316 16.884 132.266 16.9104 132.234 16.9518C132.283 16.9845 132.344 17.0033 132.411 16.9995C132.517 16.992 132.621 16.9757 132.727 16.9719C132.841 16.9669 132.908 17.0234 132.997 17.0522C133.025 17.061 133.06 17.0623 133.092 17.0635C133.252 17.0686 133.35 17.0033 133.319 16.9117C133.298 16.8401 133.215 16.7974 133.116 16.8062C133.012 16.815 132.906 16.8251 132.802 16.8351ZM145.824 14.0636C145.849 14.0422 145.878 14.0272 145.891 14.0083C145.93 13.9443 145.914 13.8966 145.843 13.8464C145.756 13.7849 145.651 13.8263 145.553 13.8326C145.529 13.8339 145.503 13.8602 145.49 13.8765C145.482 13.8878 145.482 13.9117 145.495 13.918C145.601 13.9682 145.713 14.0146 145.824 14.0636ZM127.063 10.3556C126.959 10.3657 126.853 10.3732 126.749 10.387C126.723 10.3908 126.699 10.4146 126.684 10.431C126.656 10.4611 126.686 10.5025 126.775 10.5063C126.877 10.5113 126.983 10.4899 127.089 10.4799C127.223 10.4674 127.303 10.4209 127.253 10.3807C127.205 10.3418 127.141 10.3343 127.063 10.3556ZM13.2244 7.67323C13.2936 7.66696 13.365 7.66193 13.4342 7.65314C13.4991 7.64436 13.5488 7.61674 13.5813 7.57532C13.5272 7.54269 13.4666 7.52511 13.3996 7.52888C13.2936 7.53641 13.1898 7.54645 13.086 7.559C13.0212 7.56653 12.9585 7.59415 12.9433 7.63683C12.9282 7.66946 13.073 7.68829 13.2244 7.67323ZM117.917 7.47992C117.945 7.49122 117.973 7.51382 118.001 7.51382C118.071 7.51382 118.142 7.50628 118.207 7.49373C118.235 7.48871 118.257 7.46612 118.27 7.44854C118.278 7.43725 118.276 7.41717 118.263 7.40713C118.2 7.34688 117.949 7.36821 117.908 7.43725C117.904 7.4498 117.915 7.46612 117.917 7.47992ZM111.094 0.606325C111.1 0.626408 111.103 0.646489 111.111 0.666573C111.129 0.70423 111.176 0.73185 111.245 0.750678C111.299 0.719298 111.328 0.684157 111.325 0.6465C111.323 0.626417 111.317 0.606321 111.308 0.586237C111.291 0.54858 111.243 0.520975 111.174 0.502147C111.12 0.532272 111.094 0.567413 111.094 0.606325ZM150.821 17.0535C150.802 17.0698 150.782 17.0861 150.761 17.1012C150.819 17.1376 150.873 17.1489 150.914 17.1288C150.94 17.1163 150.955 17.0974 150.975 17.0811C150.917 17.0447 150.865 17.0347 150.821 17.0535ZM149.476 17.2242C149.504 17.2355 149.53 17.2506 149.561 17.2581C149.61 17.2707 149.656 17.2493 149.69 17.2041C149.662 17.1928 149.636 17.1778 149.606 17.1702C149.556 17.1577 149.511 17.179 149.476 17.2242ZM150.328 16.9945C150.313 17.0246 150.343 17.0497 150.423 17.0711C150.443 17.0548 150.469 17.0397 150.482 17.0221C150.503 16.9933 150.467 16.9669 150.389 16.9468C150.367 16.9619 150.348 16.9782 150.328 16.9945ZM145.763 15.6414C145.748 15.6715 145.778 15.6966 145.858 15.7179C145.878 15.7016 145.904 15.6866 145.917 15.669C145.938 15.6401 145.901 15.6138 145.824 15.5937C145.802 15.6087 145.782 15.6251 145.763 15.6414ZM139.543 6.75943C139.524 6.77574 139.504 6.79206 139.483 6.80713C139.541 6.84353 139.595 6.85482 139.636 6.83474C139.662 6.82218 139.677 6.80336 139.697 6.78704C139.638 6.75064 139.587 6.7406 139.543 6.75943ZM133.585 2.04732C133.637 2.0561 133.68 2.03854 133.717 1.9921C133.689 1.9808 133.663 1.96573 133.633 1.9582C133.583 1.94565 133.538 1.96699 133.503 2.01218C133.531 2.02474 133.559 2.03602 133.585 2.04732ZM130.421 1.75234C130.402 1.76866 130.382 1.78498 130.361 1.80004C130.419 1.83644 130.473 1.84774 130.514 1.82765C130.54 1.8151 130.555 1.79627 130.575 1.77995C130.516 1.74355 130.465 1.73477 130.421 1.75234ZM108.966 0.605068C108.946 0.621386 108.927 0.637705 108.905 0.652767C108.964 0.689169 109.018 0.700462 109.059 0.680379C109.085 0.667826 109.1 0.648997 109.119 0.63268C109.061 0.596278 109.009 0.587495 108.966 0.605068ZM2.13448 10.8176C2.10637 10.8063 2.07828 10.795 2.05233 10.7824C1.98961 10.8163 1.97015 10.8477 2.00476 10.8715C2.02638 10.8866 2.0588 10.8954 2.08691 10.9067C2.15179 10.8728 2.16692 10.8427 2.13448 10.8176Z" fill="#1A73E8" fill-opacity="0.5"/>
<path d="M14.6775 6.38532C14.4288 6.40917 14.1823 6.43928 13.9336 6.45434C13.8016 6.46188 13.7541 6.51585 13.7 6.56606C13.6568 6.60623 13.607 6.61878 13.527 6.62631C12.8523 6.68782 12.1797 6.75309 11.5071 6.81711C11.4228 6.80079 11.3817 6.77443 11.4011 6.74305C11.4119 6.72422 11.4379 6.69786 11.4639 6.69535C11.9245 6.64891 12.3829 6.60121 12.8457 6.5648C12.9777 6.55476 13.0145 6.49953 13.0815 6.45434C13.1031 6.43928 13.1204 6.41669 13.1485 6.4079C13.1767 6.39786 13.2177 6.39912 13.2545 6.39661C13.9985 6.32506 14.7424 6.25478 15.4864 6.18323C15.5707 6.19955 15.6118 6.2259 15.5923 6.25728C15.5815 6.27611 15.5555 6.30247 15.5296 6.30498C15.2441 6.33134 14.9608 6.3577 14.6775 6.38532Z" fill="#1A73E8" fill-opacity="0.5"/>
<path d="M150.85 13.0694C150.737 13.0845 150.594 13.1058 150.478 13.033C150.421 12.9979 150.361 12.9866 150.287 12.9941C150.181 13.0067 150.073 13.0167 149.965 13.0242C149.937 13.0255 149.9 13.0117 149.872 13.0004C149.811 12.9778 149.76 12.9401 149.695 12.9301C149.63 12.92 149.552 12.9477 149.485 12.9414C149.396 12.9326 149.36 12.8987 149.383 12.8673C149.396 12.8497 149.422 12.8246 149.45 12.8209C149.85 12.7744 149.853 12.7744 149.965 12.8196C150.052 12.8548 150.132 12.8937 150.255 12.8723C150.359 12.8548 150.469 12.851 150.575 12.8397C150.722 12.8246 150.722 12.8259 150.96 12.905C151.02 12.9251 151.085 12.9238 151.163 12.9125C151.23 12.9037 151.295 12.9238 151.349 12.9577C151.315 13.0004 151.265 13.028 151.198 13.0355C151.09 13.0481 150.984 13.0569 150.85 13.0694Z" fill="#1A73E8" fill-opacity="0.5"/>
<path d="M146.868 12.6826C147.141 12.6563 147.415 12.6337 147.688 12.6036C147.8 12.591 147.889 12.6048 147.967 12.6475C148.051 12.6939 148.146 12.6902 148.25 12.6814C148.315 12.6764 148.378 12.6964 148.421 12.7316C148.438 12.7454 148.434 12.7705 148.44 12.7906C148.203 12.8132 147.962 12.837 147.722 12.8571C147.694 12.8596 147.66 12.8471 147.634 12.837C147.575 12.8157 147.526 12.778 147.463 12.7705C147.329 12.7529 147.195 12.7868 147.059 12.7931C146.994 12.7956 146.931 12.7768 146.888 12.7429C146.87 12.7266 146.875 12.7027 146.868 12.6826Z" fill="#1A73E8" fill-opacity="0.5"/>
<path d="M48.3935 1.89029C48.6768 1.86268 48.9601 1.83633 49.2434 1.80872C49.3277 1.82629 49.3667 1.85139 49.3494 1.88277C49.3385 1.9016 49.3126 1.92796 49.2866 1.93047C48.72 1.98695 48.1534 2.04092 47.589 2.09489C47.5047 2.07732 47.4657 2.05222 47.483 2.02084C47.4938 2.00201 47.5198 1.97565 47.5458 1.97314C47.8269 1.94427 48.1102 1.91791 48.3935 1.89029Z" fill="#1A73E8" fill-opacity="0.5"/>
<path d="M4.7384 8.86571C4.61081 8.86822 4.47675 8.91466 4.33402 8.87951C4.3059 8.87324 4.26697 8.85315 4.26913 8.84185C4.27345 8.82302 4.29941 8.79917 4.32752 8.79164C4.45079 8.76026 4.60435 8.75649 4.66707 8.66863C4.69735 8.62344 4.75358 8.60839 4.82927 8.5996C4.90928 8.58956 4.9655 8.59331 5.02821 8.61967C5.11039 8.65356 5.17961 8.71633 5.30936 8.68369C5.31585 8.70377 5.33095 8.72637 5.32446 8.74519C5.31798 8.76402 5.28991 8.7816 5.26396 8.79541C5.24017 8.80796 5.2077 8.81925 5.17742 8.82302C5.03469 8.83808 4.89195 8.85064 4.7384 8.86571Z" fill="#1A73E8" fill-opacity="0.5"/>
<path d="M117.212 8.61322C117.318 8.60318 117.428 8.59816 117.532 8.58058C117.614 8.56678 117.666 8.57556 117.731 8.60568C117.841 8.6584 117.848 8.65339 118.118 8.66092C118.149 8.66218 118.185 8.68099 118.203 8.69731C118.213 8.7061 118.198 8.72996 118.185 8.74251C118.166 8.75883 118.138 8.78016 118.112 8.78016C117.941 8.78393 117.768 8.85799 117.601 8.77264C117.517 8.72996 117.424 8.70986 117.309 8.72869C117.24 8.73999 117.167 8.74502 117.095 8.75004C117.026 8.75506 116.955 8.74125 116.912 8.70359C116.849 8.64836 116.886 8.62703 116.998 8.6308C117.069 8.63331 117.141 8.6195 117.212 8.61322Z" fill="#1A73E8" fill-opacity="0.5"/>
<path d="M156.407 17.266C156.544 17.2534 156.68 17.2384 156.818 17.2283C156.846 17.2258 156.881 17.2396 156.907 17.2484C157.011 17.2861 156.996 17.3501 157 17.4066C157.002 17.4656 156.762 17.5133 156.66 17.4731C156.548 17.4279 156.446 17.3764 156.291 17.4041C156.23 17.4141 156.159 17.3915 156.12 17.3551C156.061 17.3024 156.094 17.281 156.204 17.2848C156.269 17.2873 156.338 17.2735 156.407 17.266Z" fill="#1A73E8" fill-opacity="0.5"/>
<path d="M87.7487 0.18095C87.8893 0.167143 88.0299 0.145814 88.1704 0.144559C88.2526 0.143304 88.2937 0.184718 88.2742 0.214844C88.2634 0.233672 88.2375 0.260032 88.2115 0.262543C87.9304 0.292668 87.6492 0.317777 87.3681 0.345392C87.2859 0.327818 87.2448 0.301463 87.2643 0.271338C87.2751 0.252509 87.3011 0.227404 87.327 0.223639C87.4676 0.206066 87.6082 0.194758 87.7487 0.18095Z" fill="#1A73E8" fill-opacity="0.5"/>
<path d="M153.71 13.1798C153.847 13.1672 153.985 13.1484 154.121 13.1421C154.193 13.1396 154.249 13.1685 154.257 13.2011C154.262 13.2162 154.227 13.2425 154.199 13.2488C154.004 13.2915 153.795 13.2965 153.591 13.3179C153.527 13.3241 153.457 13.304 153.418 13.2689C153.36 13.2149 153.392 13.1948 153.503 13.1986C153.572 13.1999 153.641 13.1861 153.71 13.1798Z" fill="#1A73E8" fill-opacity="0.5"/>
<path d="M120.785 8.78305C120.854 8.77677 120.925 8.76045 120.992 8.76547C121.064 8.77175 121.109 8.80815 121.131 8.84455C121.155 8.88597 121.152 8.92489 121.131 8.96004C121.096 9.02029 121.062 9.01778 120.982 8.97761C120.858 8.91485 120.85 8.92238 120.605 8.92489C120.577 8.92489 120.543 8.90606 120.521 8.88974C120.489 8.86463 120.506 8.82573 120.582 8.80313C120.638 8.78682 120.716 8.78932 120.785 8.78305Z" fill="#1A73E8" fill-opacity="0.5"/>
<path d="M148.644 12.768C148.746 12.7579 148.847 12.7416 148.949 12.7416C149.02 12.7404 149.076 12.7692 149.083 12.8006C149.085 12.8157 149.053 12.8408 149.027 12.8483C148.903 12.8822 148.765 12.8847 148.631 12.896C148.568 12.901 148.499 12.8809 148.46 12.8458C148.402 12.7931 148.436 12.7692 148.542 12.7768C148.575 12.7793 148.609 12.7717 148.644 12.768Z" fill="#1A73E8" fill-opacity="0.5"/>
<path d="M132.647 11.2282C132.495 11.2432 132.353 11.2244 132.363 11.1918C132.379 11.1491 132.441 11.1215 132.506 11.1139C132.61 11.1014 132.714 11.0913 132.82 11.0838C132.887 11.0788 132.947 11.0976 133.001 11.1303C132.969 11.1704 132.919 11.1993 132.854 11.2081C132.787 11.2169 132.716 11.2219 132.647 11.2282Z" fill="#1A73E8" fill-opacity="0.5"/>
<path d="M131.654 11.0675C131.756 11.0575 131.858 11.0412 131.959 11.0412C132.031 11.0399 132.087 11.0688 132.093 11.1002C132.095 11.1152 132.063 11.1403 132.037 11.1479C131.914 11.1818 131.775 11.1843 131.641 11.1956C131.579 11.2006 131.509 11.1805 131.47 11.1454C131.412 11.0926 131.447 11.0688 131.553 11.0763C131.585 11.0788 131.62 11.0713 131.654 11.0675Z" fill="#1A73E8" fill-opacity="0.5"/>
<path d="M119.558 8.77278C119.66 8.76274 119.762 8.74641 119.863 8.74516C119.935 8.7439 119.991 8.77278 119.997 8.80416C120 8.81923 119.967 8.84308 119.941 8.85186C119.818 8.88575 119.68 8.88826 119.546 8.89956C119.483 8.90458 119.414 8.8845 119.375 8.84935C119.316 8.79663 119.351 8.77278 119.457 8.78031C119.489 8.78282 119.524 8.77529 119.558 8.77278Z" fill="#1A73E8" fill-opacity="0.5"/>
<path d="M118.99 8.69881C119.098 8.68877 119.132 8.6825 119.167 8.6825C119.232 8.6825 119.299 8.69756 119.338 8.73396C119.396 8.78668 119.362 8.80175 119.256 8.80426C119.119 8.80677 118.985 8.83314 118.849 8.83816C118.778 8.84067 118.721 8.81053 118.717 8.77915C118.715 8.76409 118.747 8.73773 118.773 8.73271C118.864 8.71388 118.964 8.70258 118.99 8.69881Z" fill="#1A73E8" fill-opacity="0.5"/>
<path d="M130.774 1.31428C130.705 1.32055 130.631 1.33813 130.566 1.33185C130.48 1.32306 130.445 1.28918 130.467 1.2578C130.48 1.24022 130.503 1.21512 130.529 1.21135C130.668 1.19378 130.808 1.18247 130.947 1.16992C131.029 1.18875 131.066 1.21511 131.044 1.24649C131.031 1.26406 131.007 1.28791 130.981 1.29293C130.914 1.30548 130.843 1.308 130.774 1.31428Z" fill="#1A73E8" fill-opacity="0.5"/>
<path d="M46.8421 2.03852C46.9092 2.03726 46.9697 2.05358 47.0216 2.08496C46.9891 2.12513 46.9416 2.15149 46.8767 2.16279C46.8443 2.16781 46.8075 2.17157 46.7729 2.17282C46.7059 2.17533 46.6453 2.15776 46.5934 2.12638C46.6258 2.08621 46.6755 2.05985 46.7383 2.04856C46.7707 2.04353 46.8075 2.04229 46.8421 2.03852Z" fill="#1A73E8" fill-opacity="0.5"/>
<path d="M152.971 13.1749C152.969 13.1385 153.101 13.097 153.22 13.0983C153.283 13.0995 153.348 13.1171 153.385 13.151C153.441 13.2025 153.408 13.2226 153.302 13.2188C153.237 13.2163 153.168 13.2376 153.103 13.2339C153.03 13.2326 152.987 13.205 152.971 13.1749Z" fill="#1A73E8" fill-opacity="0.5"/>
<path d="M121.411 8.93477C121.409 8.92096 121.398 8.90465 121.405 8.89209C121.446 8.82306 121.695 8.80172 121.76 8.86197C121.77 8.87327 121.775 8.89209 121.766 8.90339C121.753 8.92096 121.729 8.94355 121.703 8.94857C121.636 8.96112 121.567 8.9674 121.498 8.96866C121.468 8.96866 121.439 8.94732 121.411 8.93477Z" fill="#1A73E8" fill-opacity="0.5"/>
<path d="M5.50788 8.66471C5.25269 8.69107 5.24837 8.68855 5.29379 8.62579C5.33488 8.5693 5.41058 8.53542 5.52087 8.53542C5.55331 8.53542 5.5879 8.53291 5.61602 8.53793C5.64629 8.54421 5.68957 8.55674 5.69606 8.57181C5.70903 8.60068 5.67223 8.63206 5.60736 8.6534C5.57924 8.66344 5.54249 8.66094 5.50788 8.66471Z" fill="#1A73E8" fill-opacity="0.5"/>
<path d="M50.0366 1.86161C49.961 1.88294 49.8961 1.87542 49.8485 1.83525C49.8009 1.79508 49.8766 1.74738 50.0086 1.73608C50.0432 1.73357 50.0799 1.72354 50.1124 1.72856C50.1448 1.73233 50.1773 1.74738 50.1967 1.76244C50.2313 1.78754 50.2097 1.82144 50.1405 1.85031C50.1124 1.86161 50.0712 1.8591 50.0366 1.86161Z" fill="#1A73E8" fill-opacity="0.5"/>
<path d="M152.521 13.0804C152.54 13.0641 152.56 13.0478 152.581 13.0327C152.661 13.0541 152.696 13.0792 152.674 13.108C152.661 13.1256 152.635 13.1407 152.616 13.157C152.536 13.1356 152.503 13.1093 152.521 13.0804Z" fill="#1A73E8" fill-opacity="0.5"/>
<path d="M8.93408 22.9543C8.93408 22.9392 8.96436 22.9153 8.98815 22.9103C9.03356 22.9015 9.08977 22.9191 9.1287 22.9543C9.18276 23.0045 9.15035 23.0308 9.05087 23.017C8.98167 23.007 8.93408 22.9819 8.93408 22.9543Z" fill="#1A73E8" fill-opacity="0.5"/>
<path d="M122.292 7.76622C122.32 7.77752 122.348 7.78882 122.374 7.80137C122.337 7.84782 122.292 7.86789 122.244 7.85534C122.214 7.84781 122.188 7.83274 122.16 7.82145C122.197 7.775 122.24 7.75744 122.292 7.76622Z" fill="#1A73E8" fill-opacity="0.5"/>
<path d="M121.544 7.70973C121.587 7.69091 121.639 7.70096 121.699 7.73736C121.68 7.75368 121.663 7.77251 121.639 7.78506C121.598 7.80514 121.544 7.79509 121.485 7.75743C121.503 7.74237 121.522 7.72605 121.544 7.70973Z" fill="#1A73E8" fill-opacity="0.5"/>
<path d="M120.971 7.76496C120.999 7.77625 121.027 7.78755 121.053 7.80011C121.016 7.84655 120.973 7.86662 120.923 7.85407C120.893 7.84654 120.867 7.83148 120.839 7.82018C120.876 7.77374 120.919 7.75491 120.971 7.76496Z" fill="#1A73E8" fill-opacity="0.5"/>
<path d="M120.549 7.69848C120.581 7.72358 120.564 7.7537 120.501 7.7876C120.473 7.7763 120.44 7.76752 120.419 7.75246C120.384 7.72861 120.402 7.69722 120.466 7.66333C120.492 7.67588 120.52 7.68718 120.549 7.69848Z" fill="#1A73E8" fill-opacity="0.5"/>
</svg>
