<svg width="274" height="32" viewBox="0 0 274 32" fill="none" xmlns="http://www.w3.org/2000/svg">
<path d="M255.451 16.6016C255.079 16.6279 254.703 16.646 254.338 16.6854C254.101 16.7101 253.999 16.6378 253.841 16.6C253.789 16.5868 253.732 16.5605 253.683 16.5638C253.315 16.5901 252.946 16.6197 252.577 16.6493C252.464 16.7134 252.393 16.7988 252.22 16.83C252.051 16.8596 251.851 16.8596 251.663 16.8744C251.415 16.8924 251.167 16.9105 250.919 16.927C250.794 16.9352 250.693 16.9664 250.652 17.0255C250.644 17.0354 250.727 17.06 250.772 17.0748C250.922 17.1241 251.069 17.18 251.234 17.2178C251.392 17.2539 251.588 17.1948 251.757 17.2408C252.137 17.3443 252.141 17.3426 252.431 17.3229C252.679 17.3049 252.927 17.2851 253.175 17.272C253.224 17.2687 253.281 17.2934 253.333 17.3065C253.491 17.3426 253.593 17.4248 253.826 17.3936C254.003 17.3689 254.199 17.364 254.383 17.3509C254.537 17.3985 254.68 17.4527 254.846 17.4905C255 17.5267 255.045 17.5546 254.962 17.6023C254.887 17.6466 254.782 17.6647 254.642 17.668C254.518 17.6696 254.394 17.6844 254.27 17.6926C254.206 17.6975 254.146 17.7008 254.086 17.7058C253.849 17.7238 253.849 17.7238 253.416 17.6187C253.247 17.5776 253.055 17.6351 252.893 17.5957C252.784 17.5694 252.69 17.53 252.585 17.502C252.54 17.4905 252.468 17.4889 252.412 17.4922C252.224 17.5037 252.036 17.5119 251.855 17.5332C251.727 17.548 251.652 17.594 251.667 17.64C251.671 17.6581 251.761 17.6844 251.814 17.6861C251.934 17.6893 252.062 17.6663 252.179 17.6778C252.291 17.6893 252.408 17.7222 252.491 17.7583C252.66 17.8339 252.852 17.7666 253.014 17.7863C253.183 17.8076 253.322 17.8734 253.484 17.9128C253.525 17.9227 253.604 17.9062 253.668 17.9013C253.852 17.8898 254.037 17.8799 254.221 17.8684C254.375 17.9161 254.541 17.9588 254.68 18.013C254.932 18.1116 255.203 18.1494 255.53 18.1017C255.714 18.0755 255.895 18.0853 256.042 18.1494C256.192 18.2151 256.365 18.2085 256.557 18.1954C256.734 18.1823 256.914 18.1461 257.095 18.1921C257.486 18.294 257.49 18.2989 257.953 18.2595C258.092 18.248 258.197 18.2447 258.302 18.2825C258.4 18.317 258.505 18.3466 258.607 18.3794C258.791 18.3679 258.979 18.3564 259.164 18.3433C259.401 18.3252 259.532 18.3482 259.589 18.4402C259.623 18.4961 259.638 18.547 259.72 18.5848C259.818 18.6308 259.924 18.6292 260.066 18.616C260.202 18.6045 260.3 18.5865 260.356 18.5273C260.379 18.5027 260.424 18.4797 260.465 18.4599C260.499 18.4452 260.552 18.4222 260.582 18.4254C260.638 18.432 260.713 18.4501 260.732 18.4714C260.917 18.6702 260.917 18.6719 261.105 18.7294C261.312 18.7935 261.526 18.851 261.714 18.9233C261.883 18.9874 262.053 18.9594 262.237 18.9594C262.376 18.9594 262.466 19.0022 262.455 19.0449C262.448 19.0695 262.395 19.1057 262.35 19.1089C261.981 19.1418 261.609 19.1697 261.236 19.1927C261.191 19.196 261.135 19.1665 261.082 19.1517C260.977 19.1221 260.883 19.0761 260.77 19.0662C260.657 19.0564 260.525 19.081 260.401 19.0892C260.277 19.0974 260.146 19.1188 260.033 19.1057C259.92 19.0925 259.83 19.0449 259.724 19.0137C259.675 18.9989 259.608 18.9775 259.566 18.9824C259.292 19.0219 259.089 18.9676 258.893 18.8954C258.852 18.8806 258.78 18.8707 258.727 18.874C258.291 18.9019 257.859 18.9348 257.422 18.966C257.245 18.9791 257.102 18.9216 257.065 18.8247C257.046 18.7705 257.008 18.7163 257.008 18.662C257.008 18.5634 256.802 18.5092 256.651 18.5207C256.403 18.5372 256.151 18.5503 255.906 18.5749C255.707 18.5947 255.538 18.5749 255.402 18.5158C255.244 18.4484 255.064 18.4616 254.883 18.4797C254.748 18.4928 254.71 18.547 254.718 18.6834C254.725 18.7935 254.661 18.828 254.417 18.8461C254.108 18.8691 253.796 18.8921 253.484 18.9101C253.435 18.9134 253.379 18.8855 253.33 18.8707C253.224 18.8411 253.13 18.7935 253.017 18.7836C252.905 18.7721 252.773 18.7968 252.649 18.8066C252.525 18.8148 252.393 18.8378 252.28 18.8263C252.167 18.8148 252.073 18.7656 251.972 18.7343C251.923 18.7195 251.863 18.6982 251.814 18.7015C251.565 18.7146 251.317 18.7343 251.069 18.7524C250.791 18.7721 250.791 18.7721 250.396 18.6703C250.215 18.6242 250.035 18.6604 249.858 18.6735C249.67 18.6867 249.493 18.6933 249.346 18.6275C249.248 18.5848 249.139 18.5585 249.023 18.5667C248.711 18.5865 248.402 18.6111 248.09 18.6308C248.037 18.6341 247.966 18.6259 247.924 18.6111C247.725 18.5421 247.529 18.4879 247.251 18.5224C247.01 18.552 246.751 18.5536 246.51 18.5815C246.378 18.5963 246.318 18.6489 246.345 18.69C246.36 18.7113 246.439 18.736 246.491 18.736C246.612 18.7376 246.743 18.713 246.856 18.7228C247.089 18.7425 247.206 18.8806 247.511 18.8428C247.691 18.8198 247.879 18.8116 248.067 18.805C248.116 18.8033 248.169 18.8346 248.221 18.851C248.372 18.8954 248.504 18.9528 248.722 18.9233C248.902 18.9003 249.094 18.8937 249.279 18.8806C249.572 18.8592 249.572 18.8609 249.952 18.9611C250.132 19.0087 250.313 18.9709 250.49 18.9594C250.621 18.9512 250.745 18.9348 250.851 18.9578C251.013 18.9923 251.129 19.0711 251.328 19.0662C251.517 19.0613 251.701 19.0383 251.889 19.0301C252.006 19.0251 252.115 19.0514 252.209 19.0958C252.307 19.1402 252.412 19.1599 252.54 19.15C252.724 19.1369 252.912 19.1204 253.1 19.1122C253.153 19.1106 253.213 19.1254 253.262 19.1385C253.367 19.1681 253.469 19.2026 253.57 19.2338C253.755 19.224 253.943 19.2207 254.123 19.201C254.263 19.1862 254.36 19.1928 254.473 19.2256C254.616 19.27 254.733 19.3488 254.966 19.3111C255.083 19.293 255.218 19.2979 255.335 19.2815C255.477 19.2601 255.575 19.2683 255.677 19.3176C255.869 19.4113 256.109 19.4129 256.358 19.3768C256.629 19.3373 256.832 19.3834 257.035 19.4556C257.249 19.5312 257.249 19.5296 257.415 19.712C257.464 19.7645 257.603 19.7892 257.719 19.7793C257.915 19.7629 258.084 19.7711 258.227 19.8335C258.378 19.9009 258.558 19.8927 258.742 19.8746C258.987 19.85 259.231 19.8286 259.431 19.9239C259.529 19.9699 259.634 19.9814 259.766 19.9699C260.138 19.9403 260.514 19.9223 260.879 19.8861C261.101 19.8631 261.229 19.9157 261.379 19.9601C261.582 20.0209 261.804 20.0751 261.804 20.2049C261.804 20.2262 261.857 20.2509 261.902 20.2673C262 20.3018 262.105 20.3314 262.207 20.3642C262.357 20.4135 262.504 20.4546 262.711 20.4283C262.891 20.407 263.083 20.4004 263.268 20.3856C263.452 20.3708 263.621 20.3626 263.787 20.425C263.978 20.4957 264.182 20.5631 264.4 20.6156C264.554 20.6534 264.757 20.5894 264.923 20.6403C265.024 20.6715 265.122 20.7076 265.231 20.7339C265.276 20.7454 265.348 20.7372 265.408 20.7339C265.532 20.7274 265.66 20.7224 265.78 20.706C265.919 20.6879 266.025 20.6912 266.13 20.729C266.228 20.7635 266.326 20.8112 266.439 20.821C266.608 20.8358 266.796 20.7701 266.965 20.8457C267.052 20.8835 267.161 20.9196 267.274 20.9311C267.386 20.9426 267.518 20.918 267.638 20.9196C267.691 20.9196 267.755 20.9459 267.785 20.9673C267.804 20.9788 267.778 21.01 267.751 21.0264C267.717 21.0461 267.668 21.0724 267.62 21.0757C267.247 21.1053 266.875 21.1299 266.502 21.1579C266.281 21.1743 266.28 21.1743 265.833 21.0708C265.728 21.0461 265.611 21.0511 265.479 21.0626C265.303 21.0773 265.122 21.1053 264.938 21.0757C264.697 20.964 264.4 20.9541 264.084 20.9968C263.952 21.0149 263.832 21.0149 263.734 20.9837C263.527 20.9213 263.309 20.8638 263.125 20.7898C262.982 20.7323 262.914 20.7274 262.854 20.8062C262.835 20.8309 262.816 20.8572 262.82 20.8802C262.842 20.9623 262.884 21.0428 262.906 21.125C262.914 21.148 262.884 21.1743 262.865 21.1989C262.805 21.2679 262.726 21.263 262.594 21.2055C262.463 21.148 262.305 21.1102 262.094 21.1365C261.913 21.1595 261.718 21.1562 261.537 21.1809C261.259 21.217 261.063 21.1644 260.864 21.0938C260.823 21.079 260.751 21.0708 260.698 21.0741C260.138 21.1119 259.581 21.1546 259.021 21.1924C258.9 21.2006 258.791 21.1759 258.697 21.1316C258.6 21.0872 258.49 21.0642 258.37 21.0724C257.874 21.1069 257.377 21.1381 256.88 21.1809C256.677 21.1989 256.516 21.1776 256.376 21.1201C256.271 21.0773 256.173 21.0642 256.042 21.0691C255.899 21.0741 255.797 21.0905 255.726 21.1381C255.658 21.1842 255.707 21.2121 255.857 21.2482C256.019 21.2877 256.17 21.3386 256.324 21.3846C256.448 21.378 256.572 21.3649 256.692 21.3665C256.745 21.3665 256.794 21.3961 256.847 21.4125C256.997 21.4602 257.136 21.5078 257.351 21.4815C257.531 21.4585 257.723 21.4536 257.907 21.4388C258.163 21.4207 258.163 21.4207 258.577 21.5243C258.682 21.5506 258.795 21.5489 258.93 21.5341C259.047 21.5226 259.167 21.5456 259.25 21.5949C259.284 21.6146 259.273 21.6475 259.201 21.7559C259.201 21.8365 259.28 21.8003 259.307 21.7477C259.348 21.6721 259.269 21.6475 259.119 21.6886C259.013 21.7181 258.961 21.7609 258.987 21.7954C259.002 21.8134 259.073 21.8365 259.201 21.7559C259.532 21.6574 259.784 21.6458 260.025 21.6196C260.168 21.6048 260.258 21.6113 260.371 21.6541C260.507 21.705 260.642 21.7592 260.864 21.7329C261.105 21.7034 261.36 21.7001 261.605 21.6754C261.831 21.6524 261.947 21.7247 262.09 21.7674C262.263 21.8184 262.455 21.7609 262.613 21.7904C262.779 21.82 262.895 21.8923 263.087 21.9054C263.365 21.8611 263.542 21.9432 263.753 21.9975C263.918 22.0385 264.114 22.0024 264.291 21.9843C264.49 21.9646 264.656 21.9827 264.795 22.0418C264.953 22.1092 265.13 22.0944 265.31 22.0796C265.731 22.0468 265.746 22.0418 265.991 22.1322C266.168 22.1979 266.337 22.1683 266.514 22.1601C266.668 22.2045 266.818 22.2521 266.98 22.2916C267.022 22.3014 267.101 22.285 267.164 22.2801C267.349 22.2669 267.537 22.2538 267.721 22.2406C267.845 22.2324 267.977 22.2078 268.09 22.2176C268.203 22.2291 268.297 22.2768 268.398 22.308C268.5 22.3392 268.605 22.3704 268.703 22.4033C268.853 22.4526 268.996 22.4937 269.207 22.469C269.387 22.4477 269.576 22.4411 269.764 22.4263C270.001 22.4082 269.993 22.4132 270.433 22.5117C270.67 22.566 270.915 22.5002 271.155 22.4937C271.276 22.4904 271.392 22.5085 271.475 22.5561C271.509 22.5758 271.498 22.6087 271.509 22.6366C270.888 22.681 270.264 22.7188 269.651 22.773C269.414 22.7943 269.29 22.7352 269.162 22.6859C268.951 22.607 268.673 22.722 268.473 22.6202C268.353 22.5594 268.18 22.5249 267.973 22.5545C267.853 22.5709 267.725 22.5692 267.601 22.584C267.285 22.6202 266.995 22.6218 266.743 22.5085C266.657 22.469 266.533 22.4477 266.442 22.4099C266.337 22.3688 266.235 22.3458 266.111 22.354C265.551 22.3934 264.994 22.4329 264.437 22.4756C264.388 22.4789 264.34 22.5035 264.298 22.5216C264.193 22.5676 264.227 22.6038 264.396 22.6333C264.452 22.6432 264.498 22.6645 264.55 22.681C264.652 22.7122 264.746 22.7615 264.859 22.773C264.971 22.7845 265.103 22.7615 265.227 22.7533C265.351 22.7451 265.483 22.7204 265.596 22.7303C265.709 22.7418 265.803 22.7894 265.908 22.819C265.957 22.8338 266.017 22.8584 266.066 22.8568C266.314 22.8469 266.559 22.8289 266.807 22.8141C266.961 22.8584 267.093 22.9225 267.277 22.9373C267.394 22.9472 267.518 22.9291 267.638 22.9324C267.691 22.934 267.759 22.9587 267.785 22.98C267.8 22.9932 267.751 23.026 267.714 23.0425C267.571 23.1049 267.375 23.0934 267.198 23.1131C267.007 23.1345 266.833 23.1279 266.687 23.0638C266.589 23.0211 266.48 22.9981 266.359 23.0063C266.047 23.0277 265.739 23.0523 265.427 23.0704C265.374 23.0737 265.31 23.0589 265.261 23.0474C264.866 22.9472 264.866 22.9439 264.588 22.9652C264.178 22.9965 264.178 22.9964 263.903 22.9094C263.851 22.8929 263.794 22.8617 263.749 22.8634C263.313 22.8897 262.88 22.9159 262.448 22.9537C262.305 22.9652 262.207 22.9652 262.102 22.9225C262.011 22.8864 261.906 22.8453 261.793 22.8354C261.676 22.8256 261.549 22.8502 261.424 22.8584C261.3 22.8666 261.169 22.888 261.06 22.8749C260.947 22.8617 260.849 22.8157 260.751 22.7829C260.65 22.7484 260.54 22.75 260.401 22.7631C259.972 22.8009 259.969 22.796 259.544 22.6941C259.495 22.6826 259.431 22.6695 259.378 22.6728C259.066 22.6925 258.758 22.7171 258.445 22.7368C258.325 22.7451 258.208 22.7237 258.126 22.6761C258.092 22.6563 258.103 22.6235 258.08 22.5594C258.054 22.5446 258.084 22.5709 258.092 22.5955C258.148 22.5923 258.216 22.5955 258.257 22.5824C258.363 22.5512 258.415 22.5101 258.389 22.4756C258.374 22.4575 258.302 22.4345 258.257 22.4345C258.174 22.4345 258.103 22.4707 258.08 22.5594C257.844 22.6136 257.591 22.6251 257.347 22.6514C257.204 22.6678 257.114 22.6596 257.001 22.6169C256.865 22.5643 256.726 22.5134 256.504 22.5397C256.264 22.5692 256.008 22.5742 255.76 22.5972C255.474 22.6235 255.35 22.4756 255.109 22.4789C254.861 22.4822 254.612 22.5101 254.364 22.5298C254.146 22.5462 254.146 22.5462 253.695 22.4394C253.529 22.4 253.333 22.4575 253.172 22.4164C253.063 22.3901 252.969 22.3507 252.863 22.3228C252.818 22.3113 252.747 22.3113 252.69 22.3146C252.378 22.3343 252.062 22.3474 251.761 22.3836C251.419 22.4263 251.159 22.3803 250.915 22.2834C250.606 22.3014 250.294 22.3113 249.989 22.3425C249.768 22.3655 249.64 22.3113 249.489 22.2669C249.437 22.2521 249.391 22.2275 249.335 22.2209C249.279 22.2143 249.211 22.2275 249.151 22.2324C248.902 22.2505 248.647 22.2587 248.406 22.2883C248.109 22.3261 247.996 22.1913 247.766 22.1749C247.612 22.2554 247.529 22.3655 247.225 22.3737C246.976 22.3803 246.728 22.4066 246.48 22.4247C246.356 22.4329 246.232 22.4427 246.108 22.451C245.908 22.4657 245.814 22.5298 245.856 22.6284C245.878 22.6826 245.897 22.7368 245.916 22.7911C245.953 22.888 245.859 22.9702 245.701 22.9817C245.265 23.0129 244.832 23.0457 244.396 23.0737C244.279 23.0819 244.167 23.0539 244.073 23.0096C243.975 22.9652 243.866 22.9455 243.745 22.9537C243.309 22.9849 242.876 23.0178 242.44 23.0457C242.391 23.049 242.327 23.0326 242.278 23.0195C242.173 22.9899 242.071 22.9554 241.97 22.9242C241.722 22.9389 241.477 22.9488 241.233 22.9685C240.838 22.9981 240.838 22.9997 240.548 22.9094C240.495 22.8929 240.443 22.8617 240.394 22.8634C240.206 22.8699 240.021 22.8864 239.833 22.9012C239.28 22.9439 239.28 22.9439 239.119 22.8946C238.972 22.8486 238.84 22.7927 238.618 22.819C238.378 22.8486 238.122 22.8584 237.874 22.8749C237.689 22.8864 237.505 22.8995 237.321 22.9028C237.272 22.9044 237.219 22.8732 237.166 22.8568C237.016 22.8059 236.869 22.7648 236.662 22.7927C236.542 22.8091 236.414 22.8124 236.29 22.8206C235.967 22.8436 235.967 22.8436 235.436 22.7451C235.383 22.7352 235.32 22.7237 235.267 22.7286C234.831 22.7582 234.398 22.7911 233.962 22.819C233.909 22.8223 233.845 22.8124 233.792 22.8042C233.198 22.7089 233.198 22.7089 232.566 22.7549C232.325 22.7713 232.318 22.7779 232.066 22.6908C231.953 22.653 231.859 22.635 231.727 22.6465C231.231 22.6859 230.731 22.7122 230.238 22.7582C230.016 22.7779 229.888 22.7286 229.738 22.6843C229.685 22.6695 229.628 22.6366 229.583 22.6383C229.087 22.6695 228.59 22.7073 228.094 22.7385C228.049 22.7418 227.992 22.7089 227.939 22.6941C227.838 22.6646 227.74 22.6202 227.627 22.6103C227.511 22.6005 227.383 22.6251 227.255 22.6333C226.943 22.6547 226.943 22.6531 226.582 22.5561C226.533 22.543 226.469 22.5249 226.42 22.5282C225.923 22.561 225.423 22.589 224.93 22.6366C224.648 22.6629 224.456 22.6153 224.257 22.5462C224.216 22.5315 224.144 22.5249 224.091 22.5282C223.531 22.566 222.974 22.6087 222.414 22.6465C222.297 22.6547 222.184 22.6268 222.09 22.584C221.94 22.5167 221.763 22.5249 221.575 22.5397C221.143 22.5742 221.139 22.5725 220.883 22.4937C220.83 22.4772 220.785 22.4559 220.729 22.4477C220.676 22.4395 220.608 22.4444 220.552 22.4477C220.304 22.4641 220.055 22.4822 219.807 22.5002C219.559 22.5183 219.307 22.5282 219.062 22.5561C218.761 22.5906 218.618 22.4838 218.408 22.4345C218.099 22.4559 217.783 22.469 217.479 22.5035C217.246 22.5298 217.137 22.4575 216.982 22.4197C216.93 22.4066 216.873 22.3787 216.824 22.3819C216.264 22.4181 215.703 22.4575 215.147 22.5019C215.011 22.5117 214.921 22.4986 214.808 22.4592C214.556 22.3704 214.545 22.3737 214.124 22.4066C213.939 22.4214 213.762 22.4345 213.604 22.3672C213.465 22.3064 213.296 22.2916 213.097 22.3113C212.852 22.3359 212.6 22.3491 212.352 22.3655C212.104 22.3836 211.855 22.4082 211.607 22.4164C211.408 22.4247 211.287 22.3474 211.129 22.308C211.08 22.2965 211.013 22.2949 210.956 22.2981C210.708 22.3129 210.452 22.3244 210.212 22.3524C209.918 22.3869 209.756 22.2965 209.55 22.2439C209.504 22.2324 209.429 22.239 209.373 22.2439C208.936 22.2735 208.504 22.3064 208.067 22.3376C207.913 22.2932 207.755 22.2505 207.601 22.2061C207.353 22.2226 207.105 22.2406 206.856 22.2571C206.668 22.2702 206.476 22.2751 206.3 22.2998C206.07 22.3326 205.957 22.2554 205.803 22.2176C205.75 22.2045 205.694 22.1766 205.645 22.1798C205.333 22.1979 205.021 22.2176 204.712 22.2456C204.419 22.2735 204.302 22.1256 204.061 22.1273C203.813 22.1289 203.557 22.1503 203.317 22.1798C203.038 22.2143 202.843 22.1618 202.643 22.0911C202.602 22.0763 202.531 22.0681 202.478 22.0714C202.166 22.0911 201.857 22.1158 201.545 22.1355C201.492 22.1388 201.428 22.1306 201.376 22.1207C200.782 22.0238 200.781 22.0221 200.522 22.0418C200.338 22.055 200.15 22.0714 199.961 22.0796C199.909 22.0829 199.845 22.0681 199.796 22.055C199.405 21.9547 199.405 21.9531 199.123 21.9728C198.874 21.9909 198.626 22.009 198.378 22.027C198.224 21.9827 198.066 21.94 197.911 21.8956C197.603 21.917 197.287 21.9334 196.982 21.9629C196.839 21.9761 196.745 21.9712 196.636 21.9301C196.501 21.8808 196.365 21.8233 196.14 21.8512C195.899 21.8808 195.643 21.8841 195.399 21.9087C195.105 21.9383 194.985 21.7888 194.748 21.7904C194.5 21.7921 194.244 21.8134 194.003 21.843C193.725 21.8775 193.529 21.8249 193.33 21.7543C193.289 21.7395 193.217 21.7313 193.164 21.7346C192.48 21.7822 191.799 21.8299 191.114 21.8808C190.693 21.912 190.693 21.9137 189.892 21.8233C189.836 21.8167 189.775 21.8102 189.719 21.8134C189.471 21.8282 189.215 21.8397 188.974 21.8677C188.681 21.9022 188.519 21.8134 188.312 21.7592C188.267 21.7477 188.195 21.7543 188.135 21.7576C187.947 21.7691 187.763 21.7839 187.575 21.797C187.327 21.8151 187.078 21.8332 186.83 21.8512C186.676 21.8085 186.518 21.7641 186.364 21.7214C186.055 21.7428 185.739 21.7543 185.435 21.7888C185.201 21.8151 185.092 21.7461 184.938 21.7066C184.885 21.6935 184.829 21.6656 184.78 21.6672C184.22 21.7034 183.659 21.7411 183.102 21.7871C182.873 21.8069 182.768 21.7329 182.613 21.6951C182.561 21.6836 182.501 21.6623 182.452 21.6656C182.079 21.6886 181.707 21.7165 181.335 21.7444C181.124 21.7609 181.124 21.7609 180.665 21.659C180.612 21.6475 180.552 21.636 180.499 21.6393C179.318 21.7214 178.141 21.8085 176.96 21.8907C176.839 21.8989 176.73 21.8742 176.636 21.8299C176.539 21.7855 176.429 21.7625 176.309 21.7707C175.813 21.8052 175.312 21.8365 174.82 21.8792C174.616 21.8972 174.455 21.8759 174.316 21.8184C174.21 21.7756 174.112 21.7592 173.981 21.7691C173.733 21.7888 173.484 21.8052 173.236 21.8233C172.988 21.8414 172.739 21.8595 172.491 21.8775C172.243 21.8956 171.991 21.9055 171.746 21.9334C171.446 21.9679 171.299 21.866 171.092 21.8151C170.72 21.8397 170.347 21.8644 169.978 21.8907C169.482 21.9252 168.985 21.963 168.489 21.9958C168.444 21.9991 168.387 21.9695 168.335 21.9547C168.181 21.9137 168.068 21.8562 167.838 21.8742C166.725 21.9613 165.604 22.0353 164.487 22.1207C164.254 22.1388 164.152 22.0681 163.994 22.0303C163.941 22.0188 163.881 21.9958 163.832 21.9991C163.212 22.0402 162.591 22.0862 161.97 22.1305C161.718 22.1486 161.718 22.1486 161.297 22.0467C161.248 22.0352 161.184 22.0205 161.131 22.0237C160.323 22.0796 159.518 22.1388 158.709 22.1963C158.589 22.2045 158.48 22.1815 158.382 22.1371C158.288 22.0928 158.175 22.0681 158.058 22.0763C157.314 22.1289 156.565 22.1798 155.824 22.2373C155.625 22.2538 155.459 22.239 155.316 22.1798C155.215 22.1371 155.113 22.119 154.985 22.1289C153.868 22.2094 152.751 22.2867 151.634 22.3721C151.419 22.3885 151.269 22.3573 151.133 22.3031C151.024 22.2604 150.93 22.2521 150.795 22.2587C150.652 22.2669 150.565 22.285 150.486 22.3343C150.385 22.3984 150.321 22.4789 150.08 22.4838C149.832 22.4887 149.58 22.5085 149.335 22.5364C149.102 22.5643 148.993 22.4904 148.846 22.446C148.737 22.4148 148.636 22.4099 148.497 22.4247C148.369 22.4378 148.29 22.4657 148.214 22.5183C148.049 22.63 148.034 22.63 147.831 22.5594C147.722 22.5216 147.624 22.492 147.504 22.4986C147.007 22.5315 146.51 22.5676 146.014 22.6054C145.728 22.6268 145.724 22.63 145.51 22.5479C145.405 22.5068 145.303 22.4871 145.179 22.4969C143.813 22.5955 142.448 22.6908 141.083 22.7944C140.872 22.8108 140.729 22.7763 140.579 22.727C140.53 22.7105 140.481 22.6875 140.424 22.681C140.368 22.6744 140.304 22.681 140.244 22.6843C139.251 22.7549 138.254 22.8223 137.265 22.9012C137.039 22.9192 136.919 22.8667 136.764 22.8239C136.712 22.8091 136.667 22.7861 136.61 22.7796C136.554 22.7746 136.486 22.7861 136.426 22.7911C135.433 22.8617 134.436 22.9291 133.447 23.008C133.21 23.026 133.108 22.957 132.954 22.9209C132.901 22.9077 132.845 22.8831 132.796 22.8864C132.484 22.9044 132.175 22.9291 131.863 22.9504C131.118 23.0047 130.374 23.0556 129.629 23.1115C129.343 23.1328 129.219 22.9866 128.978 22.9932C128.666 23.0014 128.357 23.0342 128.045 23.0572C127.797 23.0753 127.549 23.0918 127.3 23.1115C127.056 23.1295 127.056 23.1295 126.447 23.0342C126.394 23.026 126.33 23.0145 126.277 23.0178C125.408 23.0786 124.536 23.1394 123.671 23.2051C123.471 23.2199 123.306 23.2117 123.163 23.1509C123.061 23.1082 122.956 23.0868 122.832 23.0967C121.527 23.1903 120.225 23.284 118.92 23.376C118.871 23.3793 118.807 23.3629 118.758 23.3497C118.653 23.3201 118.551 23.2856 118.45 23.2544C118.374 23.2922 118.277 23.3267 118.228 23.3694C118.16 23.4269 118.07 23.4434 117.927 23.4532C117.784 23.4631 117.694 23.4598 117.581 23.4171C117.445 23.3645 117.306 23.3234 117.084 23.3398C115.719 23.4434 114.353 23.537 112.988 23.6389C112.762 23.6553 112.657 23.583 112.499 23.5452C112.446 23.5337 112.386 23.5157 112.337 23.5189C111.777 23.5567 111.22 23.5978 110.66 23.6372C109.106 23.749 107.553 23.8558 106.003 23.9741C105.721 23.9954 105.529 23.9544 105.33 23.8837C105.288 23.8689 105.217 23.8607 105.164 23.864C102.99 24.0184 100.816 24.1745 98.6454 24.3306C98.5288 24.3388 98.4159 24.3125 98.3219 24.2698C98.2241 24.2255 98.115 24.2041 97.9947 24.2123C97.0016 24.283 96.0086 24.3536 95.0156 24.4259C94.7673 24.444 94.7635 24.4456 94.5077 24.3668C94.4551 24.3503 94.3987 24.3191 94.3573 24.3224C94.2708 24.3306 94.188 24.3717 94.1278 24.4276C94.0676 24.4867 93.9736 24.5031 93.8344 24.5146C93.6915 24.5261 93.5975 24.5212 93.4884 24.4818C93.3492 24.4325 93.2213 24.3848 92.9956 24.4013C90.1406 24.6116 87.2856 24.8137 84.4307 25.0223C84.2012 25.0388 84.0959 24.9698 83.9379 24.932C83.8852 24.9205 83.8326 24.904 83.7762 24.9008C83.716 24.8975 83.652 24.9073 83.5919 24.9123C78.9351 25.2458 74.2784 25.581 69.6217 25.9145C69.3433 25.9343 69.3471 25.9343 69.0424 26.0854C69.0048 26.1035 68.9558 26.1281 68.9032 26.1314C67.4776 26.2366 66.0482 26.3384 64.6189 26.4403C63.9982 26.4847 63.3776 26.5307 62.7569 26.5734C62.535 26.5882 62.535 26.5882 62.0046 26.7657C61.9595 26.7804 61.9068 26.8002 61.8541 26.8034C59.3715 26.9825 56.8889 27.1616 54.4026 27.3374C54.207 27.3506 54.049 27.3802 53.9587 27.459C53.8948 27.5149 53.812 27.5477 53.6879 27.5576C51.9501 27.6825 50.2123 27.809 48.4708 27.9306C48.2639 27.9454 48.1397 27.9914 48.0381 28.0604C48.0043 28.0834 47.9742 28.1097 47.9253 28.1261C47.8801 28.1409 47.8124 28.1458 47.756 28.1507C46.2665 28.2575 44.7769 28.3676 43.2836 28.4695C43.0617 28.4843 42.9714 28.5451 42.8623 28.6092C42.8247 28.6305 42.7983 28.6601 42.7494 28.6749C42.7005 28.688 42.6291 28.688 42.5689 28.6913C41.3276 28.78 40.0863 28.8704 38.845 28.9591C38.6043 28.9509 38.5516 29.0462 38.435 29.1037C38.3936 29.1235 38.3636 29.1497 38.3147 29.1629C38.262 29.176 38.1942 29.1744 38.1303 29.1777C37.1373 29.2483 36.1443 29.3239 35.1475 29.3896C34.918 29.4044 34.8728 29.4882 34.7487 29.5457C34.7073 29.5638 34.666 29.5917 34.6171 29.5967C33.9965 29.6443 33.3758 29.6887 32.7552 29.7314C32.5483 29.7462 32.5483 29.7445 32.1834 29.9072C32.1421 29.9253 32.0931 29.945 32.0405 29.9499C31.1114 30.0189 30.1785 30.0846 29.2457 30.152C29.1253 30.1602 29.0426 30.1997 28.9824 30.2555C28.9222 30.3114 28.8357 30.3475 28.7153 30.3558C27.9706 30.41 27.2257 30.4658 26.4809 30.5151C26.2741 30.5283 26.1387 30.5694 26.0484 30.6433C25.9807 30.6992 25.8979 30.7271 25.7663 30.7369C25.0215 30.7895 24.2768 30.847 23.5282 30.893C23.31 30.9062 23.1972 30.962 23.1069 31.031C23.0354 31.0869 22.9527 31.1066 22.8135 31.1165C21.448 31.2118 20.0789 31.3071 18.7172 31.4122C18.4878 31.4303 18.3712 31.3728 18.2207 31.3317C18.0063 31.2742 17.807 31.2118 17.807 31.0836C17.807 31.0639 17.743 31.0409 17.6979 31.0245C17.3631 30.9012 17.3631 30.9013 17.3104 30.7698C17.2803 30.6893 17.2465 30.6071 17.2202 30.525C17.1713 30.3903 17.0509 30.3558 16.7048 30.3804C16.5807 30.3886 16.4565 30.4001 16.3324 30.4067C16.1481 30.4182 16.0089 30.364 15.9751 30.2654C15.9563 30.2112 15.9337 30.1569 15.9149 30.1027C16.103 30.0896 16.0992 30.0879 16.4302 29.8891C16.5694 29.8053 16.5695 29.8053 16.3024 29.7215C16.2008 29.6903 16.103 29.6558 15.9939 29.6262C15.945 29.6131 15.8811 29.6049 15.8284 29.6081C15.5162 29.6279 15.2078 29.6509 14.8994 29.6739C14.4028 29.71 14.4028 29.71 13.8987 29.5424C13.8574 29.5293 13.7934 29.5046 13.8009 29.4915C13.8423 29.4307 13.9439 29.4044 14.0717 29.3978C14.2598 29.388 14.4441 29.3715 14.6284 29.3584C14.7526 29.3502 14.8767 29.3403 15.0008 29.3321C15.1174 29.2697 15.2379 29.2089 15.3469 29.1448C15.52 29.0462 15.5199 29.0429 15.2829 28.9739C15.1325 28.9279 14.9707 28.8868 14.8165 28.8441C14.6322 28.8573 14.4441 28.872 14.2598 28.8835C14.0266 28.8983 13.9326 28.8671 13.8724 28.7603C13.8197 28.6667 13.8837 28.5862 14.0642 28.5664C14.2485 28.5467 14.4216 28.5336 14.5157 28.4498C14.6059 28.3693 14.7639 28.3381 14.9595 28.3315C15.0836 28.3266 15.2078 28.3151 15.3319 28.3052C15.4936 28.2921 15.5802 28.2083 15.5463 28.1146C15.5275 28.0538 15.4899 28.0029 15.3432 27.9897C14.6924 27.9322 14.6849 27.9339 14.3614 27.8221C14.3313 27.8123 14.3088 27.7827 14.3201 27.7679C14.3389 27.7433 14.3803 27.7071 14.4254 27.7022C14.858 27.666 15.2905 27.6332 15.7231 27.6085C15.866 27.6003 15.9714 27.5888 16.0203 27.528C16.088 27.4442 16.0579 27.367 15.9262 27.3095C15.8849 27.2914 15.8171 27.2684 15.772 27.2701C15.2754 27.2996 14.7827 27.3374 14.2862 27.367C14.241 27.3703 14.1583 27.3424 14.1395 27.321C14.1019 27.2816 14.1583 27.229 14.2899 27.2109C14.463 27.1863 14.6398 27.1846 14.7564 27.1025C14.9181 26.9858 15.1174 26.879 15.298 26.7673C15.3281 26.7476 15.3771 26.7098 15.3658 26.7065C15.2717 26.6703 15.1626 26.6424 15.0648 26.6079C14.8993 26.5504 14.8993 26.4699 14.9369 26.3927C14.967 26.3302 15.0798 26.3056 15.219 26.3056C15.2792 26.3056 15.3544 26.3056 15.4033 26.2908C15.5312 26.2547 15.5726 26.2086 15.5087 26.1741C15.4711 26.1544 15.4034 26.1265 15.3582 26.1298C14.5533 26.184 13.7445 26.2366 12.9433 26.3039C12.7063 26.3237 12.5973 26.2612 12.4544 26.2169C12.3453 26.1824 12.2437 26.1692 12.1083 26.1938C11.9804 26.2169 11.8563 26.2037 11.7773 26.1495C11.7133 26.1051 11.8262 26.0673 12.1308 26.0246C12.1873 26.0164 12.2512 26.0115 12.2926 25.995C12.7289 25.8176 12.7289 25.816 13.0298 25.7929C13.3232 25.7716 13.3233 25.77 13.4775 25.6747C13.549 25.6303 13.6279 25.5859 13.6956 25.5399C13.7219 25.5218 13.7671 25.489 13.7521 25.4791C13.6693 25.4282 13.5564 25.4167 13.4248 25.4282C13.1314 25.4561 12.7854 25.4331 12.6312 25.5892C12.571 25.6484 12.4769 25.6648 12.3415 25.6747C10.9798 25.77 9.61814 25.8718 8.25271 25.9638C8.03079 25.9786 7.92928 26.0394 7.84277 26.1068C7.76754 26.1626 7.68477 26.1791 7.54183 26.1889C7.39889 26.1988 7.28599 26.2037 7.20324 26.1495C7.15434 26.1166 7.19573 26.0706 7.30857 26.0246C7.47032 25.9589 7.44021 25.8768 7.38755 25.7995C7.34994 25.7486 7.23333 25.7124 7.1092 25.7157C6.92489 25.7223 6.74815 25.7404 6.59392 25.6747C6.50365 25.6369 6.39078 25.6106 6.28922 25.5777C6.09362 25.5103 5.89802 25.4413 5.62343 25.4857C5.43535 25.4693 5.3037 25.4101 5.15324 25.3641C4.90122 25.2885 4.87865 25.277 5.0592 25.1965C5.26232 25.1061 5.10431 24.9878 5.21716 24.8991C5.33752 24.8038 5.50309 24.72 5.64978 24.6313C5.6874 24.6083 5.72127 24.5869 5.75888 24.5639C5.67237 24.5311 5.59339 24.49 5.49183 24.467C5.36018 24.4374 5.29247 24.4013 5.29999 24.2994C5.27366 24.2846 5.28487 24.3224 5.31496 24.3323C5.34881 24.3421 5.43163 24.3339 5.473 24.3224C5.57833 24.2912 5.63093 24.2501 5.6046 24.2156C5.58956 24.1975 5.51814 24.1745 5.473 24.1745C5.39025 24.1745 5.31879 24.2107 5.29622 24.2994C4.87494 24.3668 4.43853 24.3996 4.0022 24.4259C3.95706 24.4292 3.90067 24.3963 3.84801 24.3799C3.67498 24.3241 3.67496 24.3257 3.16716 24.3093C3.11449 24.3076 3.04306 24.2846 3.01673 24.2616C2.90765 24.1614 2.91144 24.0513 2.85878 23.9445C2.95658 23.8755 3.0543 23.8081 3.15586 23.7408C3.35898 23.6044 3.62234 23.4844 3.78033 23.3349C3.74647 23.2544 3.70133 23.1739 3.86684 23.1082C4.33702 23.026 4.33329 23.026 4.46118 22.9472C4.82605 22.7237 5.18713 22.4986 5.56704 22.2784C5.6686 22.2209 5.66862 22.1897 5.48806 22.1651C5.43164 22.1585 5.37138 22.1568 5.31119 22.1601C5.12312 22.1716 4.93505 22.2012 4.75073 22.1946C4.56642 22.1897 4.43101 22.1174 4.28055 22.073C4.12632 22.027 3.97211 21.9794 3.81789 21.9317C3.6411 21.9367 3.46434 21.9827 3.28755 21.9087C3.15214 21.8512 2.98288 21.8101 2.82866 21.7625C2.94526 21.6376 3.16346 21.5423 3.33273 21.4322C3.48695 21.332 3.49063 21.3337 3.9044 21.2564C4.09999 21.2203 4.1677 21.0346 4.0022 20.9804C3.80284 20.9147 3.59224 20.8539 3.38912 20.7914C3.21233 20.7964 3.03181 20.8407 2.86254 20.7668C2.73089 20.7109 2.5804 20.6731 2.36223 20.6945C1.99361 20.7307 1.61747 20.7487 1.24508 20.7783C1.11719 20.7882 0.977972 20.7816 0.92155 20.7257C0.883935 20.6863 0.993026 20.6321 1.11716 20.6206C1.30523 20.6041 1.47448 20.5844 1.56852 20.5023C1.65879 20.4201 1.82428 20.3955 2.01988 20.384C2.07254 20.3807 2.13277 20.361 2.1591 20.3412C2.29451 20.2459 2.44498 20.1638 2.73462 20.1671C2.85499 20.1342 2.91889 20.0931 2.88128 20.0537C2.85871 20.0323 2.77976 20.0044 2.73462 20.0077C2.42241 20.0241 2.11022 20.0406 1.80554 20.0702C1.6626 20.0833 1.55346 20.0866 1.46318 20.0373C1.39924 20.0044 1.43309 19.9601 1.55346 19.9124C1.65878 19.8713 1.6889 19.8237 1.68138 19.7678C1.66257 19.638 1.54971 19.6002 1.1886 19.6084C0.929058 19.615 0.865109 19.5936 0.808686 19.4819C0.79364 19.4556 0.756091 19.4195 0.782422 19.4014C0.944166 19.2897 1.0495 19.1517 1.35418 19.0991C1.47455 19.0794 1.60239 19.0794 1.67762 19.0367C1.75285 18.9939 1.82059 18.9446 1.89958 18.9036C1.99738 18.8543 2.06502 18.8083 2.01988 18.7771C1.94465 18.7212 1.82432 18.7163 1.68515 18.736C1.56478 18.7524 1.43689 18.754 1.31276 18.7639C1.09083 18.782 0.91032 18.7393 0.88399 18.667C0.812521 18.4764 0.737269 18.2874 0.673324 18.0968C0.665801 18.0738 0.684557 18.0442 0.714649 18.0245C0.819971 17.9555 0.93286 17.8898 1.04194 17.8224C1.16983 17.7452 1.37299 17.76 1.54602 17.7452C1.79052 17.7238 1.79043 17.7255 2.11768 17.5677C2.24557 17.5053 2.46751 17.53 2.59916 17.4741C2.64054 17.456 2.70449 17.4264 2.6932 17.41C2.67816 17.3887 2.60297 17.3722 2.54654 17.3624C2.49388 17.3525 2.42995 17.3476 2.37353 17.3525C1.68894 17.4002 1.00812 17.4511 0.32353 17.4971C0.206923 17.5053 0.0790283 17.4692 0.0376518 17.4182C-0.00372477 17.3706 0.007523 17.3131 0 17.2588C0.109084 17.1915 0.233165 17.129 0.327203 17.0568C0.398671 17.0009 0.481439 16.9762 0.624376 16.973C0.812451 16.968 0.996783 16.9483 1.20743 16.9335C1.59862 16.6936 1.98227 16.4423 2.40356 16.2024C2.57283 16.1054 2.53152 16.0068 2.56537 15.9033C2.59922 15.808 2.85123 15.8228 3.0205 15.7949C3.15591 15.7719 3.20099 15.7193 3.14833 15.6831C3.11824 15.6618 3.05057 15.6371 2.99791 15.6371C2.87378 15.6371 2.74965 15.6519 2.62552 15.6601C2.50139 15.6684 2.35846 15.6634 2.2569 15.6914C2.1591 15.7177 2.09512 15.7735 2.03117 15.8212C1.95971 15.8737 1.86573 15.8918 1.7228 15.8951C1.53848 15.8984 1.35418 15.9132 1.16987 15.9247C0.966746 15.8606 0.756058 15.7982 0.56046 15.7308C0.522845 15.7177 0.515282 15.6799 0.519043 15.6552C0.526566 15.5912 0.470158 15.5517 0.346029 15.5205C0.240707 15.4942 0.154185 15.4564 0.0563858 15.4236C0.131616 15.3792 0.214398 15.3365 0.274582 15.2888C0.406235 15.1886 0.571759 15.1163 0.857634 15.1196C0.970479 15.0555 1.06073 14.9766 1.20743 14.9323C1.3466 14.8896 1.58359 14.9323 1.68891 14.8353C1.74157 14.7877 1.82061 14.7335 1.92217 14.7137C2.08391 14.6825 2.29455 14.699 2.38859 14.607C2.44501 14.5544 2.52773 14.5067 2.63682 14.4936C2.76095 14.4788 2.8888 14.4755 2.97908 14.4443C3.02798 14.4279 3.08065 14.4016 3.08065 14.3786C3.08065 14.3638 3.00548 14.3408 2.95282 14.3309C2.90392 14.3194 2.8399 14.3112 2.78347 14.3145C2.5954 14.3243 2.41109 14.3424 2.22301 14.3523C2.17035 14.3556 2.11019 14.3441 2.05377 14.3342C1.88826 14.3079 1.89952 14.2751 2.03117 14.2159C2.16283 14.1584 2.25692 14.0844 2.366 14.0171C2.48637 14.0056 2.63681 14.0105 2.71956 13.9793C2.85873 13.9284 2.95651 13.8544 3.06935 13.7903C3.19348 13.7805 3.32137 13.7772 3.43797 13.7591C3.48687 13.7526 3.50946 13.7164 3.55084 13.695C3.62607 13.654 3.69006 13.5948 3.79162 13.5751C3.95713 13.5455 4.16025 13.557 4.25805 13.4667C4.31447 13.4141 4.40095 13.3582 4.50627 13.3549C4.79967 13.3484 4.9238 13.258 5.07426 13.1725C5.18711 13.1085 5.42785 13.1413 5.55198 13.0772C5.63473 13.0362 5.69495 12.9852 5.77771 12.9458C5.81156 12.9294 5.883 12.9212 5.93943 12.9162C6.24787 12.8916 6.56006 12.8735 6.86851 12.8472C6.91741 12.8423 6.96258 12.8176 7.0002 12.7979C7.07919 12.7552 7.12803 12.6961 7.22583 12.6681C7.32363 12.6402 7.46279 12.6402 7.58316 12.632C7.97059 12.6073 8.00071 12.6139 8.1775 12.4742C8.32044 12.3609 8.6703 12.4414 8.78691 12.3165C8.85462 12.2442 8.97869 12.1851 9.20062 12.1768C9.51282 12.1653 9.82126 12.1341 10.1335 12.1128C10.4118 12.093 10.4081 12.093 10.709 11.9402C10.8444 11.8712 11.0438 11.8811 11.2206 11.868C11.4087 11.8548 11.5817 11.8351 11.672 11.7529C11.7622 11.6724 11.9277 11.6461 12.1195 11.6346C12.2963 11.6231 12.4957 11.6314 12.6349 11.5656C12.9735 11.4079 12.9697 11.4062 13.2067 11.3898C13.5791 11.3635 13.9514 11.3372 14.3238 11.3093C14.5721 11.2912 14.8316 11.2879 15.0648 11.2518C15.2341 11.2255 15.3093 11.1335 15.4184 11.0694C15.7268 11.0448 16.0353 11.0201 16.3437 10.9971C16.7763 10.9643 17.2126 10.9347 17.6489 10.9035C17.837 10.841 17.8634 10.703 18.1794 10.6964C18.3674 10.6932 18.5518 10.6718 18.7398 10.6587C19.052 10.6357 19.3605 10.6061 19.6727 10.5946C19.9096 10.5864 19.951 10.4976 20.0751 10.4418C20.1165 10.422 20.1541 10.3941 20.203 10.3892C20.692 10.3432 21.196 10.3333 21.6737 10.266C21.7226 10.2594 21.7678 10.2249 21.7791 10.2002C21.7866 10.1871 21.7226 10.1625 21.6813 10.151C21.6324 10.1378 21.5684 10.1247 21.5158 10.1279C19.9623 10.238 18.4088 10.3498 16.8553 10.4599C16.6371 10.4763 16.6371 10.4746 16.1068 10.6554C16.0616 10.6702 16.0089 10.6866 15.9525 10.6915C15.7042 10.7112 15.4522 10.7227 15.2077 10.7474C15.0084 10.7671 14.8429 10.7474 14.7 10.6882C14.5984 10.6455 14.493 10.6324 14.3652 10.6356C14.2222 10.6406 14.1282 10.6587 14.0455 10.703C13.9364 10.7638 13.88 10.8427 13.6505 10.8591C12.5935 10.9298 11.5365 11.0086 10.4833 11.0842C10.3366 11.0612 10.2651 11.0267 10.3027 10.9856C10.3253 10.961 10.3704 10.9281 10.4156 10.9248C10.8482 10.8903 11.2845 10.8608 11.717 10.8279C11.7772 10.823 11.86 10.8262 11.8938 10.8098C12.0593 10.7359 12.1196 10.6159 12.4318 10.6077C12.6123 10.6028 12.7966 10.5781 12.9697 10.5551C13.0186 10.5486 13.0637 10.5141 13.075 10.4894C13.0787 10.4763 13.0186 10.4516 12.9734 10.4401C12.8079 10.3925 12.6161 10.45 12.4506 10.4171C12.3942 10.4056 12.3151 10.3892 12.3039 10.3695C12.2963 10.3514 12.3603 10.3218 12.4054 10.3037C12.4468 10.2873 12.5032 10.2725 12.5596 10.2676C13.0561 10.2298 13.5527 10.1904 14.0492 10.1608C14.2524 10.1493 14.3953 10.1082 14.4855 10.0326C14.5533 9.97677 14.636 9.94721 14.7639 9.93899C15.6328 9.8782 16.5017 9.81083 17.3744 9.75497C17.5925 9.74182 17.7054 9.68761 17.7957 9.61696C17.8672 9.56109 17.9499 9.54137 18.0891 9.53151C19.3342 9.44607 20.5717 9.35078 21.8167 9.26863C22.0462 9.25384 22.1139 9.18318 22.2305 9.12239C22.2719 9.10103 22.2982 9.07474 22.3508 9.0616C22.4035 9.04845 22.4712 9.05008 22.5351 9.0468C23.5282 8.97614 24.5213 8.90058 25.5181 8.83485C25.7513 8.82007 25.7963 8.7379 25.9167 8.6804C25.9581 8.66232 25.9957 8.63276 26.0446 8.62783C26.7894 8.57196 27.5342 8.51939 28.2789 8.46516C28.7755 8.42902 29.272 8.39287 29.7685 8.35836C30.013 8.34193 30.013 8.34028 30.344 8.18419C30.3816 8.16611 30.4343 8.14475 30.4832 8.13982C31.9126 8.03466 33.3382 7.93446 34.7675 7.83094C34.8879 7.82273 34.9744 7.78492 35.0346 7.72905C35.0948 7.67319 35.1814 7.6354 35.298 7.62718C36.4151 7.54503 37.5323 7.46453 38.6532 7.3873C38.8563 7.37416 38.9992 7.33472 39.0895 7.26078C39.1572 7.20492 39.24 7.17535 39.3678 7.16714C40.485 7.08827 41.6022 7.00446 42.7232 6.92888C42.9376 6.91409 43.0429 6.85823 43.1482 6.79251C43.1858 6.76951 43.2159 6.73172 43.261 6.72843C43.8177 6.68242 44.3707 6.63477 44.9311 6.60356C45.1643 6.59041 45.2434 6.5214 45.3374 6.45568C45.4126 6.4031 45.4992 6.38503 45.6421 6.37846C45.9543 6.36367 46.2627 6.33575 46.5674 6.30782C46.6126 6.30289 46.669 6.26674 46.6727 6.24373C46.6803 6.20101 46.5937 6.17143 46.4508 6.15665C44.9612 6.26345 43.468 6.37024 41.9784 6.47704C41.7339 6.49511 41.7339 6.49512 41.4029 6.65121C41.3653 6.66928 41.3126 6.69065 41.2599 6.69558C39.8305 6.79909 38.405 6.90096 36.9756 7.00447C36.8552 7.01269 36.7687 7.05048 36.7085 7.10634C36.6483 7.16221 36.5618 7.2 36.4452 7.20821C35.0797 7.3068 33.7143 7.40703 32.3452 7.50068C32.142 7.51383 31.9991 7.5516 31.9089 7.62718C31.8411 7.68305 31.7584 7.71263 31.6305 7.72085C30.3253 7.81286 29.0237 7.90979 27.7147 7.99852C27.5831 8.00673 27.4853 7.95908 27.4929 7.91472C27.4966 7.89172 27.553 7.85394 27.5981 7.85066C28.2789 7.79644 28.9561 7.74057 29.6407 7.69949C29.8701 7.68634 29.9378 7.61405 30.0544 7.55325C30.092 7.53189 30.1221 7.50396 30.171 7.49246C30.2237 7.47932 30.2914 7.48096 30.3553 7.47768C31.969 7.36102 33.5827 7.24272 35.2002 7.13264C35.4334 7.11621 35.4784 7.03569 35.5988 6.97818C35.6402 6.95846 35.6778 6.9289 35.7267 6.92561C36.2233 6.88618 36.7198 6.85167 37.2163 6.81716C38.0852 6.75473 38.9541 6.69229 39.8267 6.62985C40.0788 6.61178 40.0788 6.61177 40.4023 6.45732C40.4399 6.43925 40.4926 6.41626 40.5415 6.41297C42.8398 6.24702 45.1381 6.08107 47.4363 5.91676C47.5567 5.90855 47.6432 5.87076 47.7034 5.8149C47.7636 5.76067 47.8501 5.72124 47.9667 5.71138C51.0737 5.48792 54.1769 5.26446 57.2839 5.04429C57.4871 5.0295 57.63 4.99499 57.7202 4.91777C57.7842 4.8619 57.8707 4.83233 57.9986 4.82248C61.414 4.57766 64.8295 4.33284 68.2487 4.08638C70.547 3.92208 72.8453 3.75448 75.1435 3.59346C75.3542 3.57868 75.467 3.52773 75.5723 3.46037C75.6062 3.43736 75.64 3.39957 75.6852 3.39628C76.1779 3.35521 76.6707 3.31742 77.1634 3.27963C77.3176 3.324 77.4719 3.36672 77.6261 3.41109C77.7427 3.34865 77.8556 3.28457 77.9722 3.22213C78.717 3.17448 79.4504 3.10054 80.2027 3.07754C80.2516 3.0759 80.3043 3.10712 80.3569 3.12355C80.7067 3.22706 80.9061 3.21885 81.1281 3.08083C81.207 3.03154 81.2747 2.98717 81.3951 2.97896C81.7675 2.94938 82.1437 2.92966 82.5124 2.89516C82.7117 2.87709 82.8772 2.89351 83.0201 2.95266C83.1217 2.99538 83.227 3.01347 83.3512 3.00361C84.0358 2.95432 84.7166 2.90666 85.4012 2.85408C85.4501 2.8508 85.4951 2.82286 85.5328 2.80314C85.6117 2.76042 85.6795 2.71442 85.7547 2.67006C85.8563 2.69799 85.9691 2.71936 86.0519 2.7555C86.1572 2.79822 86.255 2.79821 86.3979 2.78671C89.1288 2.5879 91.8634 2.39402 94.5943 2.19357C94.8275 2.17714 94.929 2.24615 95.087 2.2823C95.1397 2.29544 95.1923 2.31187 95.2487 2.31515C95.3089 2.31844 95.3729 2.30859 95.4331 2.30366C97.4831 2.15578 99.5331 2.00954 101.583 1.86166C101.854 1.84195 101.854 1.84195 102.256 1.94382C102.305 1.95696 102.369 1.97175 102.422 1.96682C103.355 1.90274 104.288 1.83374 105.217 1.76802C105.337 1.7598 105.439 1.78609 105.548 1.82388C105.762 1.89782 105.777 1.89782 105.935 1.78938C106.01 1.73844 106.089 1.70721 106.213 1.69242C106.349 1.67599 106.458 1.68094 106.563 1.71052C106.714 1.75159 106.823 1.82059 107.052 1.80252C108.045 1.72529 109.042 1.66122 110.031 1.58235C110.257 1.56428 110.378 1.62014 110.528 1.66121C110.581 1.676 110.63 1.69901 110.686 1.70394C110.742 1.70887 110.81 1.69735 110.87 1.69242C112.112 1.6037 113.357 1.51663 114.594 1.42133C114.827 1.40326 114.929 1.4739 115.087 1.51005C115.14 1.52319 115.2 1.54621 115.249 1.54292C115.993 1.49198 116.742 1.43775 117.487 1.38353C117.754 1.36381 117.754 1.36545 118.16 1.46568C118.209 1.47882 118.273 1.49197 118.326 1.48868C119.195 1.42789 120.067 1.36545 120.936 1.30302C121.203 1.2833 121.203 1.2833 121.974 1.36874C122.031 1.37532 122.091 1.38519 122.147 1.3819C123.14 1.31125 124.137 1.24223 125.13 1.16665C125.329 1.15186 125.495 1.165 125.638 1.22415C125.74 1.26687 125.845 1.28496 125.969 1.2751C127.086 1.19459 128.207 1.11737 129.32 1.03193C129.535 1.0155 129.674 1.05163 129.824 1.09928C129.873 1.11571 129.922 1.13872 129.979 1.14529C130.035 1.15186 130.099 1.14528 130.159 1.14036C131.276 1.05984 132.397 0.984267 133.511 0.897184C133.736 0.879111 133.857 0.934972 134.007 0.976048C134.06 0.990836 134.116 1.02041 134.161 1.01877C134.598 0.990838 135.034 0.9662 135.467 0.925124C135.7 0.902121 135.801 0.977688 135.959 1.01384C136.012 1.02534 136.072 1.05 136.121 1.04671C137.054 0.98263 137.987 0.915269 138.916 0.84626C139.048 0.836401 139.145 0.851175 139.251 0.893895C139.39 0.951402 139.552 0.974406 139.755 0.956332C140.187 0.918542 140.624 0.89226 141.06 0.861042C141.316 0.842968 141.316 0.842974 142.098 0.928413C142.155 0.934985 142.215 0.944837 142.271 0.94155C143.016 0.888972 143.765 0.83804 144.506 0.780533C144.705 0.764102 144.87 0.778886 145.013 0.838036C145.115 0.880756 145.217 0.89884 145.344 0.888981C146.029 0.839689 146.71 0.790393 147.395 0.741101C147.643 0.723027 147.891 0.691801 148.139 0.691801C148.32 0.693444 148.451 0.772308 148.613 0.811742C148.658 0.823243 148.734 0.810114 148.794 0.806828C149.663 0.744391 150.535 0.686878 151.4 0.616226C151.626 0.598152 151.747 0.654014 151.897 0.69509C151.95 0.709878 152.006 0.739455 152.051 0.737812C152.363 0.719738 152.672 0.695089 152.984 0.67373C153.356 0.64744 153.733 0.627724 154.101 0.591576C154.402 0.562001 154.515 0.704943 154.756 0.709872C154.94 0.714801 155.128 0.686874 155.312 0.67373C155.685 0.64744 156.057 0.617868 156.43 0.594866C156.561 0.58665 156.663 0.56035 156.704 0.501199C156.712 0.489698 156.648 0.465062 156.606 0.450275C156.106 0.282682 156.106 0.282674 155.602 0.318821C155.29 0.341824 154.981 0.364831 154.669 0.384548C154.617 0.387834 154.556 0.37469 154.504 0.364832C154.353 0.3369 154.368 0.304042 154.496 0.244891C154.624 0.185741 154.722 0.113452 154.831 0.0460865C154.985 0.0888063 155.136 0.131511 155.29 0.174231C155.414 0.166015 155.538 0.156171 155.662 0.147956C156.283 0.105236 156.904 0.0608701 157.524 0.0214365C157.569 0.0181504 157.626 0.0510165 157.678 0.0674472C157.829 0.115096 157.964 0.156162 158.182 0.138088C158.739 0.0904389 159.3 0.0559345 159.856 0.0148578C160.101 -0.00321594 160.101 -0.00321434 160.53 0.0986559C160.579 0.110157 160.642 0.123303 160.695 0.120017C161.256 0.082226 161.812 0.0411541 162.373 0.00172048C162.493 -0.00649486 162.61 0.0148642 162.696 0.0625132C162.73 0.08223 162.723 0.115085 162.866 0.384548C163.309 0.603076 163.614 0.580084 163.923 0.560368C164.054 0.552152 164.171 0.543929 164.257 0.511067C164.302 0.492994 164.359 0.466701 164.359 0.445341C164.359 0.42891 164.276 0.402616 164.223 0.39933C163.851 0.366469 163.497 0.435487 163.133 0.450275C162.963 0.456847 162.817 0.399339 162.787 0.305684C162.779 0.279395 162.768 0.251464 162.756 0.225175C162.745 0.198886 162.738 0.170956 162.726 0.144667C162.58 0.136451 162.493 0.166022 162.429 0.221886C162.377 0.267892 162.301 0.32047 162.2 0.345116C162.098 0.371405 161.959 0.366485 161.835 0.3747C161.714 0.382915 161.583 0.404273 161.47 0.392771C161.357 0.379627 161.267 0.33197 161.162 0.302395C161.113 0.287607 161.052 0.266255 161.004 0.269541C160.571 0.297473 160.142 0.325395 159.713 0.361543C159.488 0.38126 159.375 0.312261 159.232 0.269541C159.119 0.23668 159.006 0.244885 158.987 0.320466C158.938 0.501203 159.112 0.576781 159.495 0.542276C159.811 0.512701 160.097 0.507787 160.345 0.619516C160.379 0.634303 160.458 0.640873 160.507 0.637587C160.815 0.61787 161.12 0.593222 161.429 0.573505C161.485 0.570219 161.545 0.576781 161.598 0.583353C162.365 0.672078 162.365 0.67373 162.625 0.654014C162.749 0.644155 162.869 0.635939 162.858 0.386193C163.095 0.118373 163.471 0.100302 163.836 0.0608685C164.073 0.0362225 164.174 0.108521 164.329 0.146311C164.381 0.159456 164.438 0.18574 164.487 0.182454C165.295 0.128233 166.1 0.0707173 166.905 0.00992378C167.041 6.53774e-05 167.139 0.00992539 167.244 0.0526452C167.379 0.106866 167.53 0.141378 167.744 0.121661C168.173 0.0822276 168.609 0.0575872 169.046 0.0247258C169.268 0.00829516 169.268 0.00827831 169.715 0.110149C169.764 0.12165 169.828 0.134795 169.881 0.131509C170.317 0.103577 170.75 0.069083 171.182 0.0395078C171.303 0.0312925 171.412 0.054293 171.506 0.0986559C171.6 0.143019 171.713 0.166019 171.829 0.157804C172.266 0.128229 172.698 0.0953778 173.131 0.0658025C173.183 0.0625164 173.247 0.0740171 173.296 0.0855185C173.755 0.187389 173.755 0.187372 173.966 0.170941C174.274 0.146295 174.59 0.134807 174.895 0.101945C175.192 0.0690839 175.346 0.164374 175.549 0.216952C176.106 0.179161 176.666 0.147951 177.219 0.101945C177.445 0.0822284 177.565 0.136445 177.716 0.179165C177.769 0.193952 177.821 0.225174 177.87 0.223531C178.058 0.216958 178.243 0.198888 178.427 0.185743C178.611 0.172599 178.799 0.159456 178.984 0.146311C179.194 0.19396 179.333 0.305687 179.634 0.267897C179.815 0.244894 180.007 0.239965 180.191 0.22682C180.375 0.213675 180.563 0.200532 180.748 0.187388C180.872 0.179173 181 0.174236 181.12 0.159449C181.342 0.134803 181.451 0.215322 181.609 0.25147C181.662 0.262971 181.722 0.282675 181.771 0.279389C182.143 0.256386 182.519 0.236671 182.884 0.198881C183.166 0.169305 183.358 0.218604 183.558 0.287613C183.599 0.3024 183.67 0.310615 183.723 0.307329C184.159 0.279397 184.592 0.244882 185.024 0.215307C185.141 0.207092 185.254 0.23338 185.348 0.2761C185.446 0.320463 185.555 0.341839 185.675 0.333623C186.108 0.304048 186.544 0.271177 186.977 0.241602C187.029 0.238316 187.093 0.251463 187.142 0.264607C187.564 0.366477 187.564 0.368122 187.812 0.348405C187.872 0.343476 187.936 0.340177 187.996 0.335248C188.305 0.312245 188.624 0.304041 188.925 0.264607C189.271 0.220244 189.523 0.276111 189.768 0.369766C190.076 0.350049 190.392 0.338545 190.693 0.305684C190.919 0.281038 191.039 0.343471 191.19 0.384548C191.242 0.399336 191.299 0.428911 191.344 0.425625C191.78 0.397693 192.216 0.373055 192.645 0.331979C192.879 0.308976 192.98 0.3829 193.138 0.420691C193.191 0.433835 193.247 0.45685 193.296 0.453564C193.544 0.44042 193.793 0.420693 194.041 0.402619C194.331 0.38126 194.33 0.382901 194.714 0.483128C194.895 0.530777 195.075 0.492985 195.252 0.481483C195.44 0.468339 195.617 0.458484 195.767 0.525849C195.861 0.568569 195.974 0.594859 196.091 0.588287C196.339 0.573499 196.591 0.558719 196.836 0.534073C197.031 0.514356 197.2 0.527493 197.343 0.588287C197.445 0.631007 197.55 0.652379 197.674 0.642521C198.231 0.603087 198.792 0.561995 199.348 0.524205C199.397 0.520919 199.465 0.535712 199.51 0.550499C199.615 0.580075 199.717 0.612929 199.819 0.64579C200.063 0.631003 200.315 0.624447 200.556 0.601444C200.812 0.578441 201.045 0.570224 201.244 0.660592C201.286 0.680309 201.346 0.708226 201.395 0.706583C201.583 0.700011 201.767 0.683585 201.951 0.67044C202.136 0.657296 202.324 0.644153 202.508 0.631008C202.722 0.672085 202.858 0.790384 203.159 0.752594C203.339 0.729591 203.531 0.724661 203.715 0.711517C203.9 0.698372 204.088 0.683586 204.272 0.672085C204.332 0.668799 204.4 0.660579 204.453 0.667151C204.509 0.673723 204.558 0.696731 204.607 0.713162C204.757 0.760811 204.897 0.808465 205.111 0.780533C205.292 0.75753 205.483 0.752599 205.668 0.737812C205.92 0.719738 205.92 0.719741 206.337 0.823254C206.506 0.865974 206.698 0.810112 206.86 0.84626C206.969 0.870906 207.063 0.911974 207.169 0.939906C207.214 0.951407 207.285 0.956329 207.338 0.953043C207.586 0.938255 207.838 0.923475 208.083 0.898829C208.282 0.879112 208.447 0.898827 208.587 0.957977C208.688 1.0007 208.79 1.01878 208.918 1.00892C209.538 0.962916 210.159 0.923469 210.776 0.872534C210.986 0.854461 211.156 0.8824 211.272 0.94155C211.472 1.04342 211.754 0.923479 211.961 1.00563C212.089 1.05657 212.216 1.11572 212.45 1.09108C212.878 1.04836 213.315 1.02534 213.747 0.995764C213.902 1.04013 214.056 1.0845 214.214 1.12886C214.462 1.11079 214.71 1.0927 214.959 1.07627C215.143 1.06313 215.331 1.04834 215.515 1.03684C215.575 1.03356 215.639 1.02698 215.696 1.0352C215.752 1.04341 215.797 1.06478 215.85 1.08121C216.11 1.16172 216.11 1.16337 216.538 1.13051C216.723 1.11572 216.9 1.10586 217.054 1.17158C217.197 1.23238 217.366 1.24387 217.561 1.2258C217.93 1.19294 218.303 1.16829 218.679 1.14529C218.795 1.13707 218.904 1.16501 219.002 1.20773C219.149 1.27509 219.329 1.26852 219.514 1.25045C219.758 1.22745 219.999 1.20445 220.206 1.29646C220.247 1.31618 220.311 1.34409 220.356 1.34245C220.665 1.3293 220.977 1.31945 221.278 1.28824C221.579 1.25702 221.726 1.35888 221.932 1.40818C222.241 1.38682 222.553 1.36545 222.861 1.34409C222.922 1.33916 222.993 1.32439 223.046 1.3326C223.268 1.36711 223.396 1.49033 223.7 1.45254C223.877 1.43118 224.069 1.42462 224.253 1.41969C224.302 1.41805 224.366 1.44596 224.4 1.46732C224.419 1.47883 224.4 1.51004 224.377 1.52647C224.31 1.57248 224.227 1.61521 224.167 1.66286C224.159 1.66943 224.231 1.699 224.272 1.71214C224.374 1.74171 224.49 1.7368 224.626 1.72365C224.742 1.71215 224.863 1.73515 224.945 1.78445C224.979 1.80416 224.968 1.83702 224.896 1.94546C224.896 2.02597 224.975 1.98982 225.002 1.93724C225.043 1.86166 224.964 1.83701 224.814 1.87809C224.708 1.90767 224.656 1.95039 224.682 1.98489C224.697 2.00297 224.769 2.02597 224.896 1.94546C225.227 1.84688 225.476 1.82881 225.724 1.81074C225.788 1.80581 225.863 1.78937 225.908 1.79923C226.07 1.83866 226.221 1.88632 226.379 1.93068C226.559 1.92082 226.728 1.89616 226.905 1.96024C227.153 2.05061 227.165 2.0424 227.405 2.02433C227.53 2.01447 227.654 2.00627 227.778 1.99805C227.902 1.98984 228 2.01448 228.109 2.05227C228.331 2.12949 228.35 2.12948 228.496 2.02433C228.583 1.96025 228.643 1.93889 228.752 1.96847C229.113 2.06869 229.117 2.07526 229.425 2.04569C229.681 2.02104 229.922 2.01447 230.11 2.10812C230.238 2.17385 230.279 2.15906 230.381 2.09005C230.652 1.90767 230.776 1.91095 231.283 2.0424C231.52 2.10483 231.765 2.03748 232.006 2.02926C232.209 2.02269 232.352 2.06211 232.367 2.16563C232.378 2.22971 232.412 2.27572 232.547 2.29708C232.6 2.3053 232.664 2.31679 232.717 2.31351C233.029 2.29379 233.337 2.27078 233.649 2.24778C233.807 2.23628 233.894 2.15907 233.864 2.0572C233.83 1.94876 233.89 1.90931 234.116 1.87809C234.251 1.86002 234.36 1.86332 234.47 1.89289C234.59 1.92575 234.556 1.95533 234.451 2.01448C234.199 2.15907 234.229 2.24778 234.552 2.34801C234.665 2.38251 234.755 2.41374 234.782 2.46468C234.797 2.49097 234.782 2.52547 234.816 2.54519C235 2.65527 235.256 2.72593 235.541 2.77851C235.816 2.73415 236.004 2.80807 236.215 2.86722C236.38 2.91323 236.576 2.8738 236.753 2.85737C236.952 2.8393 237.118 2.85244 237.261 2.91323C237.362 2.95595 237.467 2.97566 237.591 2.96745C237.84 2.94937 238.092 2.93788 238.336 2.91159C238.547 2.88858 238.705 2.92145 238.837 2.97731C239.002 3.04797 239.186 3.00031 239.359 3.01017C239.593 3.02167 239.709 3.1679 240.014 3.12846C240.195 3.10546 240.383 3.09725 240.571 3.09068C240.62 3.08903 240.68 3.11697 240.721 3.13669C240.92 3.22706 241.154 3.22212 241.409 3.19583C241.586 3.17776 241.759 3.16134 241.932 3.22377C242.218 3.32893 242.534 3.42095 242.835 3.51789C242.876 3.59347 242.846 3.68218 243.061 3.72654C243.174 3.74955 243.279 3.78406 243.365 3.82185C243.471 3.86622 243.569 3.87772 243.704 3.86622C243.948 3.84322 244.204 3.83827 244.445 3.8087C244.667 3.78241 244.806 3.83664 244.941 3.88758C245.051 3.92866 245.152 3.94836 245.284 3.91879C245.419 3.89086 245.517 3.90892 245.626 3.95329C245.78 4.01408 245.792 4.00752 246.303 4.02559C246.356 4.02724 246.42 4.05187 246.45 4.07323C246.465 4.08473 246.431 4.11761 246.405 4.13404C246.371 4.15376 246.318 4.17675 246.269 4.18168C245.713 4.22439 245.152 4.26219 244.595 4.30491C244.539 4.30983 244.479 4.32135 244.438 4.33778C244.392 4.35585 244.336 4.38048 244.336 4.40349C244.336 4.41992 244.411 4.43964 244.464 4.45114C244.629 4.48893 244.825 4.43143 244.987 4.47415C245.096 4.50208 245.186 4.5415 245.295 4.56779C245.34 4.57929 245.412 4.57766 245.468 4.57437C245.656 4.56287 245.841 4.54644 246.029 4.53658C246.081 4.53494 246.141 4.55138 246.19 4.56452C246.551 4.66311 246.551 4.6631 246.864 4.64174C246.988 4.63353 247.119 4.60888 247.236 4.61874C247.349 4.6286 247.447 4.67296 247.548 4.70089C247.759 4.76004 247.958 4.81755 247.973 4.94571C247.981 4.995 248.105 5.03771 248.229 5.041C248.349 5.04428 248.477 5.02623 248.601 5.01637C248.895 4.99665 248.895 4.99665 249.275 5.09688C249.38 5.12481 249.493 5.12809 249.628 5.11166C249.681 5.10508 249.745 5.11167 249.801 5.11988C249.986 5.14453 249.986 5.17574 249.865 5.23489C249.696 5.32197 249.711 5.33019 250.185 5.40413C250.366 5.43206 250.505 5.48464 250.655 5.53065C250.9 5.60459 250.896 5.60457 250.734 5.70151C250.697 5.72287 250.663 5.74588 250.625 5.76888C250.516 5.83296 250.43 5.90197 250.204 5.90854C249.956 5.91511 249.707 5.94141 249.459 5.95949C249.218 5.97756 249.154 6.01698 249.177 6.12871C249.203 6.26344 249.252 6.27823 249.685 6.27659C249.809 6.27659 249.918 6.28973 250.012 6.33409C249.967 6.38667 249.884 6.42775 249.764 6.4376C249.455 6.46225 249.143 6.48362 248.835 6.50498C248.586 6.52305 248.338 6.54112 248.09 6.55919C247.936 6.57069 247.838 6.65614 247.879 6.75144C247.902 6.80566 247.921 6.85988 247.939 6.9141C247.981 7.02254 248.06 7.05048 248.312 7.04555C248.376 7.04391 248.436 7.03075 248.496 7.03404C248.741 7.04554 248.857 7.18191 249.151 7.15398C249.395 7.13098 249.651 7.12605 249.892 7.09648C250.114 7.07019 250.238 7.12935 250.392 7.17372C250.445 7.1885 250.501 7.2197 250.546 7.21806C250.858 7.19999 251.171 7.18193 251.475 7.15071C251.618 7.13757 251.705 7.14742 251.818 7.18685C252.088 7.28215 252.096 7.27722 252.498 7.24765C252.792 7.22464 252.796 7.22793 253.172 7.32815C253.277 7.35609 253.39 7.35608 253.525 7.34294C253.702 7.32651 253.886 7.30022 254.071 7.32486C254.127 7.33144 254.199 7.35116 254.217 7.37252C254.229 7.38731 254.176 7.42346 254.131 7.43496C253.8 7.5204 253.412 7.50561 253.051 7.54012C252.938 7.54997 252.826 7.51875 252.732 7.47439C252.634 7.43003 252.528 7.41196 252.401 7.42018C252.152 7.43825 251.9 7.44975 251.656 7.47603C251.445 7.49904 251.298 7.46124 251.152 7.41031C251.103 7.39388 251.046 7.36265 250.998 7.3643C250.441 7.39716 249.88 7.43003 249.327 7.47603C249.106 7.49575 248.978 7.44318 248.827 7.39881C248.774 7.38403 248.722 7.35281 248.673 7.35445C248.485 7.36102 248.301 7.37909 248.112 7.39224C247.428 7.44153 246.747 7.49082 246.062 7.53683C246.017 7.54011 245.961 7.5056 245.908 7.49082C245.807 7.46124 245.701 7.43331 245.596 7.40537C245.408 7.41852 245.224 7.43495 245.036 7.44481C244.9 7.45138 244.78 7.47439 244.761 7.53683C244.75 7.5779 244.874 7.61569 245.005 7.6124C245.133 7.60912 245.261 7.5894 245.367 7.61076C245.889 7.71591 245.889 7.71756 246.217 7.6962C246.503 7.67648 246.472 7.66004 246.724 7.75041C246.834 7.78985 246.931 7.81286 247.055 7.803C247.364 7.78 247.676 7.75699 247.988 7.73728C248.037 7.73399 248.101 7.75043 248.15 7.76357C248.519 7.86215 248.519 7.86544 248.823 7.84079C249.222 7.81121 249.237 7.803 249.504 7.90323C249.689 7.97224 249.858 7.92459 250.035 7.9213C250.238 7.98538 250.46 8.0429 250.644 8.11519C250.862 8.20063 251.092 8.18583 251.34 8.16118C251.524 8.14311 251.705 8.13654 251.855 8.2039C251.998 8.26634 252.171 8.27292 252.367 8.25649C252.543 8.2417 252.724 8.21048 252.908 8.24662C252.957 8.25648 253.032 8.28114 253.029 8.29592C253.025 8.31893 252.976 8.35179 252.927 8.36165C252.581 8.42902 252.201 8.42737 251.836 8.45859C251.787 8.46351 251.724 8.44544 251.675 8.43229C251.569 8.40272 251.468 8.36822 251.366 8.337C251.182 8.34686 250.994 8.35014 250.813 8.36985C250.674 8.38464 250.569 8.38301 250.467 8.34358C250.373 8.30743 250.272 8.26306 250.159 8.25156C250.046 8.24006 249.914 8.2647 249.79 8.27456C249.666 8.28442 249.523 8.27948 249.425 8.30577C249.327 8.33206 249.267 8.38957 249.203 8.43558C249.132 8.48652 249.034 8.50296 248.891 8.50788C248.759 8.51281 248.654 8.50624 248.556 8.46023C248.515 8.44051 248.458 8.42572 248.402 8.41257C248.349 8.40107 248.289 8.38299 248.24 8.38628C247.68 8.42407 247.123 8.46516 246.563 8.5046C246.284 8.52431 246.288 8.5243 245.709 8.42736C245.656 8.41914 245.592 8.40764 245.54 8.41093C245.227 8.43065 244.919 8.45365 244.607 8.47666C244.291 8.49966 244.295 8.49637 243.757 8.39286C243.659 8.37314 243.516 8.39943 243.399 8.39615C243.155 8.38793 243.034 8.24992 242.749 8.27621C242.504 8.29921 242.248 8.30414 242.004 8.33371C241.782 8.36 241.654 8.3025 241.504 8.25814C241.451 8.24335 241.394 8.21048 241.349 8.21377C240.789 8.24992 240.232 8.29099 239.487 8.29592C239.303 8.29592 239.386 8.33043 239.506 8.34193C239.679 8.36001 239.736 8.3255 239.642 8.25978C239.574 8.21377 239.476 8.19076 239.397 8.20226C239.356 8.20883 239.303 8.24006 239.487 8.29592C239.683 8.35836 239.672 8.39286 239.705 8.41257C239.788 8.46022 239.905 8.47994 240.025 8.47337C240.213 8.46187 240.398 8.44544 240.586 8.43558C240.638 8.43229 240.702 8.4438 240.751 8.45694C241.165 8.55881 241.169 8.56539 241.609 8.52596C241.748 8.51445 241.85 8.51445 241.959 8.54567C242.109 8.58839 242.218 8.66068 242.448 8.63767C242.752 8.60646 243.065 8.5884 243.377 8.57032C243.426 8.56704 243.478 8.59661 243.535 8.60975C243.689 8.64919 243.802 8.72313 244.031 8.69191C244.208 8.66726 244.4 8.66068 244.588 8.65575C244.637 8.6541 244.712 8.6804 244.735 8.70176C244.78 8.73955 244.723 8.78392 244.595 8.81514C244.543 8.82828 244.471 8.82499 244.411 8.82992C244.163 8.84799 243.915 8.8677 243.666 8.88249C243.535 8.89071 243.411 8.91536 243.396 8.97616C243.384 9.01723 243.52 9.05337 243.648 9.05009C243.836 9.04516 244.024 9.03201 244.204 9.01065C244.524 8.97451 244.802 8.98436 245.062 9.08787C245.246 9.16017 245.235 9.13389 245.43 9.34749C245.479 9.40171 245.626 9.40664 245.754 9.40335C246.062 9.39513 246.205 9.41979 246.179 9.47072C246.145 9.53316 246.036 9.55286 245.897 9.56108C245.649 9.57422 245.4 9.59559 245.152 9.61367C245.092 9.6186 245.024 9.62845 244.968 9.62516C244.911 9.62187 244.859 9.60216 244.81 9.58737C244.705 9.55615 244.614 9.5085 244.501 9.49699C244.389 9.48549 244.257 9.51014 244.133 9.52C244.009 9.52822 243.877 9.55286 243.764 9.54136C243.651 9.52986 243.557 9.48058 243.456 9.451C243.407 9.43622 243.347 9.4132 243.298 9.41484C243.049 9.42799 242.801 9.44936 242.553 9.46579C242.248 9.48715 242.248 9.48715 241.88 9.38528C241.774 9.3557 241.665 9.35735 241.526 9.3705C241.225 9.39678 241.221 9.39184 240.672 9.29655C240.62 9.28669 240.556 9.27519 240.503 9.28012C239.942 9.31791 239.386 9.35898 238.829 9.39842C238.351 9.43292 238.351 9.43293 238.088 9.59724C237.892 9.71883 237.889 9.71882 238.081 9.77468C238.235 9.82069 238.374 9.88805 238.543 9.9127C238.701 9.9357 238.897 9.86176 239.07 9.93735C239.156 9.97514 239.269 10.0162 239.378 10.0228C239.551 10.031 239.736 9.98335 239.901 10.0556C239.984 10.0918 240.108 10.1296 240.213 10.1312C240.398 10.1345 240.586 10.1082 240.77 10.0967C240.826 10.0934 240.89 10.0934 240.943 10.1017C240.999 10.1115 241.048 10.1312 241.097 10.1477C241.248 10.2035 241.409 10.2298 241.605 10.2019C241.925 10.1559 242.211 10.1789 242.459 10.284C242.493 10.2988 242.576 10.3005 242.628 10.2939C242.764 10.2775 242.88 10.2758 242.982 10.307C243.023 10.3202 243.083 10.3432 243.076 10.358C243.064 10.3826 243.019 10.4155 242.97 10.4237C242.617 10.4796 242.237 10.4861 241.872 10.5157C241.823 10.519 241.763 10.4976 241.714 10.4828C241.609 10.4533 241.519 10.404 241.406 10.3925C241.293 10.381 241.161 10.4023 241.037 10.4106C240.913 10.4188 240.781 10.4434 240.668 10.4336C240.556 10.4221 240.45 10.381 240.36 10.3448C240.255 10.3037 240.153 10.2988 240.014 10.3153C239.833 10.3366 239.645 10.3399 239.461 10.3514C239.359 10.3202 239.258 10.2857 239.153 10.2561C239.104 10.2413 239.044 10.2232 238.991 10.2249C238.743 10.238 238.494 10.2577 238.246 10.2758C237.998 10.2939 237.998 10.2939 237.577 10.192C237.528 10.1805 237.464 10.1674 237.411 10.1707C237.099 10.1904 236.79 10.215 236.478 10.2347C236.358 10.2429 236.249 10.2199 236.151 10.1756C236.057 10.1312 235.944 10.1066 235.827 10.1148C235.331 10.1493 234.834 10.1822 234.338 10.2232C234.138 10.2397 233.969 10.2249 233.834 10.1657C233.676 10.0984 233.499 10.1148 233.315 10.1279C232.897 10.1608 232.893 10.1592 232.626 10.0754C232.574 10.0589 232.521 10.0277 232.472 10.0293C232.04 10.054 231.603 10.077 231.174 10.1164C230.949 10.1378 230.828 10.0803 230.678 10.0376C230.625 10.0228 230.569 9.99156 230.524 9.99485C230.212 10.0129 229.899 10.0294 229.595 10.0622C229.29 10.0951 229.173 9.94228 228.944 9.94392C228.632 9.94557 228.323 9.98336 228.015 10.0064C227.766 10.0244 227.518 10.0425 227.27 10.0606C227.022 10.0787 226.773 10.0934 226.525 10.1148C226.394 10.1263 226.296 10.1115 226.187 10.0704C226.048 10.0162 225.882 9.9735 225.732 9.92421C225.502 9.85356 225.502 9.85355 225.224 9.87326C225.164 9.87819 225.1 9.88147 225.039 9.8864C224.584 9.92255 224.584 9.91927 224.005 9.81576C223.979 9.81083 223.911 9.82891 223.885 9.84206C223.806 9.88478 223.734 9.93077 223.663 9.97513C223.561 9.94884 223.437 9.93406 223.369 9.89627C223.177 9.78947 222.877 9.9357 222.681 9.83054C222.609 9.79111 222.485 9.7566 222.372 9.74675C222.256 9.73689 222.124 9.75989 222.004 9.76975C221.692 9.7944 221.692 9.79276 221.425 9.93899C221.289 10.0113 221.094 9.99813 220.917 10.0146C220.732 10.0326 220.556 10.0425 220.401 9.97513C220.262 9.91434 220.093 9.89956 219.894 9.91928C219.649 9.94392 219.397 9.9587 219.149 9.97349C219.096 9.97678 219.032 9.96856 218.98 9.95871C218.404 9.86177 218.404 9.86013 218.126 9.88149C218.002 9.89135 217.874 9.89462 217.753 9.90941C217.55 9.9357 217.396 9.90119 217.249 9.84861C217.2 9.83218 217.144 9.80098 217.095 9.80262C216.847 9.81084 216.602 9.82562 216.358 9.84041C216.17 9.85191 215.982 9.85848 215.801 9.88149C215.5 9.91928 215.354 9.81246 215.147 9.76317C214.838 9.78453 214.526 9.79932 214.218 9.8289C214.075 9.84204 213.981 9.83712 213.872 9.79769C213.732 9.7484 213.604 9.69253 213.379 9.71718C213.078 9.75004 212.762 9.76155 212.453 9.78126C212.247 9.73033 212.096 9.6268 211.799 9.66459C211.618 9.68759 211.427 9.69252 211.242 9.70567C210.994 9.72374 210.746 9.74019 210.497 9.7599C210.23 9.77962 210.234 9.77469 209.824 9.67775C209.587 9.62024 209.343 9.68432 209.102 9.69418C208.914 9.70239 208.82 9.77797 208.865 9.87491C208.91 9.97185 208.808 10.0474 208.635 10.0606C208.203 10.0918 207.767 10.1246 207.334 10.1526C207.281 10.1559 207.217 10.1444 207.169 10.1329C206.706 10.0293 206.706 10.031 206.499 10.0458C206.19 10.0704 205.875 10.0836 205.57 10.1148C205.359 10.1362 205.205 10.1017 205.07 10.0458C204.964 10.0031 204.866 9.99321 204.731 10.0031C203.242 10.1132 201.752 10.215 200.266 10.3284C200.044 10.3448 199.916 10.2972 199.766 10.2528C199.713 10.238 199.664 10.2068 199.612 10.2068C199.487 10.2068 199.363 10.2216 199.239 10.2315C198.683 10.2709 198.126 10.3185 197.565 10.3481C197.328 10.3613 197.264 10.4368 197.163 10.4993C197.084 10.5469 196.994 10.5666 196.854 10.5732C196.719 10.5798 196.621 10.5716 196.516 10.5288C196.38 10.473 196.226 10.4385 196.016 10.4615C195.771 10.4878 195.523 10.4993 195.271 10.5174C195.143 10.5256 195.045 10.5551 195.004 10.6143C194.996 10.6241 195.075 10.6488 195.12 10.6636C195.271 10.7129 195.414 10.7704 195.583 10.8049C195.756 10.8394 195.944 10.7999 196.125 10.7901C196.189 10.7868 196.249 10.777 196.309 10.7786C196.365 10.7802 196.433 10.7885 196.475 10.8032C196.67 10.8772 196.877 10.9281 197.148 10.8838C197.381 10.9051 197.501 11.0415 197.799 11.0053C197.979 10.984 198.167 10.9741 198.355 10.9659C198.404 10.9643 198.457 10.9938 198.51 11.0086C198.66 11.0497 198.78 11.1154 199.006 11.0875C199.247 11.0579 199.503 11.053 199.747 11.03C199.882 11.0168 199.98 11.0283 200.086 11.0711C200.221 11.1253 200.375 11.1664 200.586 11.1401C200.766 11.1171 200.958 11.1121 201.143 11.0973C201.383 11.0793 201.383 11.0809 201.812 11.1828C201.861 11.1943 201.925 11.2074 201.978 11.2041C202.29 11.1844 202.598 11.1598 202.91 11.1401C203.031 11.1318 203.147 11.1532 203.23 11.2009C203.264 11.2206 203.253 11.2535 203.264 11.2814C202.643 11.3257 202.023 11.3635 201.406 11.4178C201.173 11.4391 201.067 11.3717 200.913 11.334C200.86 11.3208 200.804 11.2929 200.755 11.2962C200.319 11.3241 199.886 11.3537 199.454 11.3898C199.318 11.4013 199.217 11.3947 199.115 11.3471C198.856 11.2206 198.54 11.2896 198.246 11.3077C198.021 11.3208 197.949 11.3717 197.975 11.4802C198.009 11.6083 198.145 11.6478 198.491 11.6248C198.615 11.6166 198.739 11.6051 198.863 11.5985C198.983 11.5919 199.093 11.6133 199.19 11.6576C199.284 11.702 199.397 11.725 199.514 11.7184C199.762 11.7036 200.014 11.6889 200.255 11.6642C200.454 11.6445 200.62 11.6609 200.759 11.7217C200.913 11.7891 201.094 11.7743 201.274 11.7595C201.696 11.7266 201.699 11.7283 201.963 11.8104C202.015 11.8269 202.068 11.8581 202.117 11.8565C202.549 11.8318 202.986 11.8104 203.411 11.771C203.633 11.7513 203.761 11.8039 203.907 11.8466C203.96 11.8614 204.013 11.8942 204.061 11.891C204.374 11.8729 204.686 11.8548 204.991 11.8236C205.134 11.8088 205.22 11.8186 205.337 11.8581C205.615 11.955 205.622 11.9517 206.017 11.9205C206.138 11.9107 206.269 11.8926 206.382 11.9057C206.495 11.9189 206.585 11.9665 206.691 11.9961C206.74 12.0093 206.8 12.0273 206.852 12.024C207.101 12.0109 207.349 11.9912 207.597 11.9731C207.83 11.955 207.83 11.9567 208.267 12.0586C208.444 12.1013 208.628 12.0651 208.805 12.052C208.997 12.0372 209.17 12.0372 209.316 12.1013C209.463 12.1654 209.64 12.1621 209.828 12.1489C210.005 12.1358 210.185 12.0996 210.366 12.144C210.78 12.2459 210.78 12.2475 211.035 12.2278C211.408 12.1998 211.776 12.1736 212.152 12.1489C212.201 12.1456 212.265 12.1653 212.314 12.1785C212.42 12.2081 212.51 12.2573 212.623 12.2688C212.736 12.282 212.867 12.2623 212.988 12.2524C213.375 12.2212 213.401 12.2097 213.661 12.3181C213.879 12.4069 214.15 12.2787 214.353 12.3806C214.47 12.4381 214.628 12.4841 214.846 12.4562C215.026 12.4332 215.214 12.4266 215.402 12.4134C215.7 12.3921 215.7 12.3937 216.076 12.4923C216.125 12.5055 216.189 12.5219 216.237 12.5186C216.486 12.5055 216.738 12.494 216.979 12.4644C217.261 12.4299 217.441 12.4923 217.652 12.5531C217.817 12.6008 218.013 12.5613 218.19 12.5449C218.382 12.5285 218.555 12.5334 218.697 12.5975C218.848 12.6632 219.025 12.655 219.213 12.6418C219.39 12.6303 219.57 12.5925 219.751 12.6385C220.138 12.7404 220.138 12.7404 220.42 12.7207C220.669 12.7026 220.917 12.6829 221.165 12.6698C221.214 12.6665 221.274 12.6878 221.323 12.7026C221.428 12.7322 221.519 12.7815 221.631 12.793C221.744 12.8045 221.876 12.7831 222 12.7749C222.124 12.7667 222.256 12.7421 222.369 12.7519C222.482 12.7618 222.587 12.8029 222.677 12.839C222.782 12.8817 222.88 12.8866 223.023 12.8702C223.204 12.8489 223.392 12.8439 223.576 12.8324C223.678 12.8636 223.783 12.8949 223.881 12.9294C223.982 12.9655 224.091 12.9622 224.231 12.9507C224.693 12.9113 224.697 12.9162 225.084 13.0181C225.261 13.0641 225.446 13.0263 225.622 13.0148C225.811 13.0017 225.987 12.9951 226.134 13.0608C226.277 13.1233 226.454 13.1315 226.642 13.1117C226.762 13.0986 226.89 13.0904 227.014 13.0855C227.071 13.0838 227.138 13.0904 227.18 13.1035C227.379 13.1725 227.575 13.235 227.849 13.1906C228.09 13.2038 228.21 13.3385 228.5 13.3122C228.744 13.2892 229 13.2843 229.241 13.2547C229.463 13.2284 229.621 13.2744 229.734 13.3319C229.937 13.4338 230.223 13.2958 230.426 13.396C230.542 13.4535 230.693 13.4995 230.919 13.4749C231.167 13.4486 231.246 13.4831 231.317 13.5866C231.359 13.6457 231.351 13.6934 231.276 13.7394C231.201 13.7871 231.118 13.7788 230.998 13.7246C230.858 13.6638 230.693 13.6523 230.494 13.6655C230.298 13.6786 230.178 13.5932 230.016 13.5603C229.854 13.5258 229.662 13.5833 229.493 13.539C229.094 13.4354 229.094 13.4354 228.823 13.4552C228.639 13.4683 228.447 13.4749 228.267 13.4979C228.052 13.5258 227.913 13.4749 227.766 13.4289C227.714 13.4124 227.661 13.3812 227.616 13.3829C227.183 13.4075 226.747 13.4305 226.318 13.4716C226.093 13.4929 225.972 13.4338 225.822 13.3927C225.769 13.3779 225.713 13.3484 225.668 13.3516C225.295 13.3746 224.927 13.4042 224.554 13.4322C224.483 13.4765 224.404 13.5192 224.336 13.5669C224.264 13.6162 224.167 13.6375 224.024 13.6359C223.787 13.6359 223.554 13.7049 223.317 13.6178C223.072 13.5291 223.053 13.534 222.816 13.5554C222.515 13.5833 222.196 13.5767 221.914 13.6408C221.865 13.6523 221.812 13.6835 221.812 13.7065C221.808 13.7213 221.887 13.7427 221.936 13.7558C222.102 13.7953 222.293 13.7378 222.459 13.7788C222.568 13.8051 222.658 13.8446 222.767 13.8725C222.813 13.884 222.88 13.8824 222.94 13.8807C223.004 13.8791 223.065 13.8676 223.125 13.8692C223.181 13.8709 223.241 13.8807 223.287 13.8955C223.493 13.9579 223.712 14.0154 223.896 14.0894C224.076 14.1617 224.246 14.1124 224.426 14.1091C225.148 14.2241 225.149 14.2258 225.634 14.1896C225.754 14.1814 225.878 14.1715 226.002 14.1732C226.055 14.1732 226.104 14.2027 226.157 14.2192C226.307 14.2685 226.45 14.3128 226.661 14.2865C226.841 14.2635 227.033 14.2586 227.217 14.2438C227.466 14.2257 227.466 14.2257 227.887 14.3293C227.992 14.3556 228.105 14.3523 228.24 14.3391C228.357 14.3276 228.477 14.3523 228.56 14.3999C228.594 14.4196 228.583 14.4525 228.594 14.4804C228.222 14.5067 227.845 14.5248 227.484 14.5642C227.251 14.5889 227.146 14.5182 226.992 14.4804C226.939 14.4673 226.883 14.4394 226.834 14.4426C226.465 14.4673 226.096 14.4952 225.728 14.5281C225.683 14.5314 225.626 14.5691 225.622 14.5921C225.615 14.6349 225.709 14.6759 225.844 14.6743C226.025 14.6727 226.202 14.6447 226.363 14.7121C226.499 14.7712 226.668 14.7975 226.867 14.7713C226.988 14.7565 227.116 14.7565 227.236 14.7433C227.556 14.7039 227.845 14.7121 228.086 14.8238C228.27 14.8534 228.451 14.8255 228.628 14.8107C228.76 14.7992 228.887 14.7877 228.981 14.8189C229.181 14.8846 229.376 14.9503 229.651 14.906C229.948 14.952 230.174 15.0489 230.422 15.1278C230.539 15.1656 230.629 15.187 230.764 15.1623C230.821 15.1525 230.889 15.1524 230.949 15.1475C231.073 15.1393 231.204 15.1146 231.317 15.1245C231.43 15.136 231.524 15.1837 231.626 15.2132C231.675 15.228 231.731 15.2527 231.78 15.251C231.968 15.2428 232.152 15.2264 232.337 15.2132C232.521 15.2017 232.705 15.1902 232.89 15.1787C233.044 15.2215 233.202 15.2642 233.356 15.3069C233.604 15.2888 233.853 15.2707 234.097 15.2543C234.372 15.2346 234.372 15.2362 234.767 15.3381C234.943 15.3841 235.132 15.3545 235.301 15.3332C235.583 15.2987 235.771 15.3611 235.97 15.4268C236.012 15.44 236.087 15.4482 236.136 15.4416C236.331 15.4186 236.501 15.4367 236.644 15.4975C236.745 15.5402 236.847 15.5599 236.971 15.5517C237.403 15.5205 237.836 15.4876 238.269 15.4597C238.321 15.4564 238.381 15.4712 238.43 15.4843C238.814 15.5846 238.818 15.5895 239.1 15.5632C239.352 15.5402 239.585 15.5303 239.784 15.6207C239.826 15.6404 239.89 15.6684 239.935 15.6667C240.243 15.6503 240.556 15.6322 240.86 15.6043C240.999 15.5911 241.097 15.5961 241.206 15.6339C241.346 15.6815 241.47 15.739 241.699 15.7177C242.335 15.6569 242.339 15.6667 243.091 15.7801C243.144 15.7883 243.215 15.7752 243.275 15.7686C243.403 15.7522 243.497 15.7752 243.61 15.813C243.862 15.8984 243.869 15.8935 244.11 15.8754C244.295 15.8606 244.486 15.8573 244.667 15.8327C244.945 15.7965 245.13 15.8606 245.336 15.9214C245.502 15.9691 245.694 15.9296 245.871 15.9148C246.062 15.8984 246.235 15.9033 246.378 15.9658C246.476 16.0085 246.581 16.0315 246.706 16.0233C247.138 15.9937 247.571 15.9608 248.003 15.9313C248.056 15.928 248.12 15.9411 248.169 15.9526C248.598 16.0545 248.598 16.0594 249.023 16.0216C249.158 16.0101 249.271 16.0068 249.373 16.0413C249.47 16.0742 249.576 16.1054 249.677 16.1366C249.862 16.1251 250.05 16.1219 250.23 16.1021C250.369 16.0874 250.467 16.0939 250.576 16.1284C250.719 16.1728 250.84 16.25 251.065 16.2122C251.182 16.1941 251.317 16.1991 251.434 16.1826C251.573 16.1613 251.667 16.1744 251.776 16.2171C251.912 16.2681 252.051 16.3207 252.269 16.2944C252.51 16.2648 252.765 16.2599 253.01 16.2369C253.145 16.2237 253.239 16.2369 253.348 16.2796C253.484 16.3338 253.638 16.3683 253.849 16.347C254.278 16.3059 254.281 16.3141 254.699 16.4176C254.804 16.4439 254.917 16.4406 255.052 16.4275C255.169 16.416 255.289 16.4406 255.372 16.4883C255.451 16.5408 255.444 16.5737 255.451 16.6016ZM221.932 1.7828C221.808 1.79102 221.684 1.80087 221.504 1.65793C221.492 1.63328 221.5 1.60371 221.473 1.58235C221.413 1.53799 221.319 1.50677 221.206 1.50184C221.003 1.49527 220.759 1.55112 220.763 1.59384C220.766 1.62999 220.83 1.6612 220.954 1.69078C221.007 1.70228 221.048 1.722 221.097 1.73514C221.24 1.77294 221.353 1.84689 221.56 1.8091C221.522 1.70722 221.541 1.75816 221.56 1.8091C221.541 1.87153 221.598 1.9159 221.733 1.93397C221.771 1.9389 221.827 1.9356 221.857 1.92575C221.974 1.8896 221.993 1.84032 221.906 1.71052C221.891 1.73187 221.902 1.76965 221.936 1.77951C221.97 1.78937 222.053 1.78116 222.094 1.76966C222.199 1.73844 222.252 1.69736 222.226 1.66286C222.211 1.64479 222.139 1.62178 222.094 1.62178C222.015 1.62178 221.944 1.65793 221.932 1.7828ZM252.348 20.8375C252.073 20.8687 251.757 20.8572 251.483 20.9212C251.434 20.9328 251.385 20.9623 251.381 20.9853C251.377 21.0001 251.453 21.0215 251.498 21.033C251.599 21.0593 251.712 21.0511 251.844 21.0428C252.043 21.0313 252.16 21.1069 252.314 21.1447C252.363 21.1562 252.427 21.1644 252.48 21.1611C252.784 21.1414 253.085 21.1201 253.39 21.0971C253.442 21.0921 253.499 21.0806 253.544 21.0658C253.695 21.0182 253.679 20.987 253.533 20.9508C253.371 20.9114 253.243 20.8457 253.078 20.8144C252.841 20.7701 252.6 20.8292 252.348 20.8375ZM230.986 22.0369C230.802 22.05 230.621 22.0632 230.437 22.0763C230.377 22.0813 230.313 22.0829 230.257 22.0895C230.14 22.101 230.053 22.1355 229.997 22.1897C230.084 22.2324 230.189 22.2571 230.305 22.2521C230.49 22.2423 230.67 22.2209 230.855 22.216C231.054 22.2094 231.171 22.2834 231.325 22.3211C231.374 22.3326 231.434 22.3343 231.49 22.3359C231.769 22.3425 231.938 22.2571 231.885 22.1371C231.848 22.0435 231.705 21.9876 231.532 21.9991C231.351 22.0106 231.167 22.0238 230.986 22.0369ZM253.634 18.409C253.679 18.3811 253.728 18.3614 253.751 18.3367C253.819 18.2529 253.792 18.1905 253.668 18.1247C253.518 18.0442 253.333 18.0985 253.164 18.1067C253.123 18.1083 253.078 18.1428 253.055 18.1642C253.04 18.179 253.04 18.2102 253.063 18.2184C253.247 18.2841 253.443 18.3449 253.634 18.409ZM221.003 13.5554C220.823 13.5685 220.638 13.5784 220.458 13.5965C220.413 13.6014 220.371 13.6326 220.345 13.654C220.296 13.6934 220.349 13.7476 220.503 13.7525C220.68 13.7591 220.864 13.7312 221.048 13.718C221.282 13.7016 221.421 13.6408 221.334 13.5882C221.252 13.5373 221.139 13.5275 221.003 13.5554ZM23.0015 10.0441C23.1219 10.0359 23.246 10.0294 23.3664 10.0179C23.4792 10.0064 23.5658 9.97021 23.6223 9.91599C23.5282 9.87327 23.4229 9.85026 23.3063 9.85519C23.1219 9.86505 22.9414 9.87819 22.7609 9.89462C22.648 9.90448 22.539 9.94063 22.5126 9.99649C22.4863 10.0392 22.7382 10.0639 23.0015 10.0441ZM205.096 9.79111C205.145 9.8059 205.194 9.83548 205.243 9.83548C205.363 9.83548 205.487 9.82561 205.6 9.80918C205.649 9.80261 205.686 9.77304 205.709 9.75003C205.724 9.73525 205.72 9.70896 205.698 9.69582C205.589 9.61695 205.152 9.64488 205.081 9.73525C205.073 9.75168 205.092 9.77304 205.096 9.79111ZM193.228 0.79367C193.24 0.819959 193.243 0.846245 193.258 0.872534C193.289 0.921826 193.371 0.957981 193.492 0.982627C193.586 0.94155 193.635 0.895552 193.631 0.84626C193.627 0.819971 193.616 0.793665 193.601 0.767376C193.571 0.718084 193.488 0.681949 193.368 0.657303C193.274 0.696737 193.228 0.742735 193.228 0.79367ZM262.327 22.3228C262.293 22.3442 262.259 22.3655 262.222 22.3852C262.323 22.4329 262.417 22.4477 262.489 22.4214C262.534 22.4049 262.56 22.3803 262.594 22.3589C262.493 22.3113 262.402 22.2981 262.327 22.3228ZM259.987 22.5462C260.036 22.561 260.082 22.5808 260.134 22.5906C260.221 22.607 260.3 22.5791 260.36 22.52C260.311 22.5052 260.266 22.4854 260.213 22.4756C260.127 22.4592 260.048 22.4871 259.987 22.5462ZM261.469 22.2456C261.443 22.285 261.496 22.3179 261.635 22.3458C261.669 22.3244 261.714 22.3047 261.737 22.2817C261.774 22.2439 261.71 22.2094 261.575 22.1831C261.537 22.2029 261.503 22.2242 261.469 22.2456ZM253.529 20.4743C253.503 20.5138 253.555 20.5466 253.695 20.5746C253.728 20.5532 253.773 20.5335 253.796 20.5105C253.834 20.4727 253.77 20.4382 253.634 20.4119C253.597 20.4316 253.563 20.453 253.529 20.4743ZM242.711 8.84799C242.677 8.86935 242.643 8.89071 242.606 8.91043C242.707 8.95808 242.801 8.97286 242.873 8.94657C242.918 8.93014 242.944 8.90549 242.978 8.88413C242.876 8.83648 242.786 8.82335 242.711 8.84799ZM232.348 2.67991C232.438 2.69141 232.514 2.66842 232.577 2.60762C232.529 2.59284 232.483 2.57312 232.431 2.56326C232.344 2.54683 232.265 2.57477 232.205 2.63392C232.254 2.65035 232.303 2.66512 232.348 2.67991ZM226.845 2.29379C226.811 2.31515 226.777 2.33651 226.74 2.35623C226.841 2.40388 226.935 2.41866 227.007 2.39237C227.052 2.37594 227.078 2.35129 227.112 2.32993C227.01 2.28229 226.92 2.27079 226.845 2.29379ZM189.527 0.792026C189.493 0.813386 189.459 0.834746 189.422 0.854463C189.523 0.902112 189.617 0.916895 189.689 0.890606C189.734 0.874175 189.76 0.849528 189.794 0.828168C189.693 0.780519 189.602 0.769023 189.527 0.792026ZM3.71255 14.16C3.66366 14.1452 3.6148 14.1305 3.56966 14.114C3.46058 14.1584 3.42674 14.1995 3.48692 14.2307C3.52453 14.2504 3.58091 14.2619 3.62981 14.2767C3.74266 14.2323 3.76898 14.1929 3.71255 14.16Z" fill="#1A73E8"/>
<path d="M25.53 8.35846C25.0975 8.38968 24.6687 8.4291 24.2361 8.44882C24.0067 8.45868 23.924 8.52933 23.8299 8.59506C23.7547 8.64763 23.6682 8.66406 23.529 8.67392C22.3554 8.75443 21.1855 8.83987 20.0157 8.92367C19.869 8.90231 19.7976 8.86781 19.8314 8.82673C19.8502 8.80209 19.8954 8.76758 19.9405 8.7643C20.7417 8.7035 21.5391 8.64106 22.3441 8.59341C22.5735 8.58027 22.6375 8.50797 22.7541 8.44882C22.7917 8.4291 22.8218 8.39953 22.8707 8.38803C22.9196 8.37488 22.9911 8.37653 23.055 8.37325C24.349 8.27959 25.643 8.18759 26.9369 8.09393C27.0836 8.11529 27.1551 8.14979 27.1212 8.19087C27.1024 8.21551 27.0573 8.25002 27.0122 8.25331C26.5156 8.28781 26.0228 8.32232 25.53 8.35846Z" fill="#1A73E8"/>
<path d="M262.377 17.1077C262.181 17.1274 261.933 17.1554 261.73 17.0601C261.632 17.0141 261.526 16.9993 261.399 17.0092C261.214 17.0256 261.026 17.0387 260.838 17.0486C260.789 17.0502 260.725 17.0321 260.676 17.0174C260.571 16.9878 260.481 16.9385 260.368 16.9254C260.255 16.9122 260.12 16.9483 260.003 16.9401C259.849 16.9286 259.785 16.8843 259.826 16.8432C259.849 16.8202 259.894 16.7873 259.943 16.7824C260.639 16.7216 260.642 16.7216 260.838 16.7808C260.989 16.8268 261.128 16.8777 261.342 16.8498C261.523 16.8268 261.715 16.8218 261.899 16.807C262.155 16.7873 262.155 16.789 262.568 16.8925C262.674 16.9188 262.787 16.9171 262.922 16.9023C263.039 16.8908 263.151 16.9171 263.246 16.9615C263.185 17.0174 263.099 17.0535 262.982 17.0634C262.794 17.0798 262.61 17.0913 262.377 17.1077Z" fill="#1A73E8"/>
<path d="M255.45 16.6016C255.924 16.5671 256.402 16.5376 256.876 16.4981C257.071 16.4817 257.226 16.4998 257.361 16.5556C257.508 16.6164 257.673 16.6115 257.854 16.6C257.967 16.5934 258.076 16.6197 258.151 16.6657C258.181 16.6838 258.173 16.7167 258.185 16.743C257.771 16.7725 257.353 16.8037 256.936 16.83C256.887 16.8333 256.827 16.8169 256.782 16.8037C256.68 16.7758 256.594 16.7265 256.484 16.7167C256.251 16.6937 256.018 16.738 255.781 16.7462C255.668 16.7495 255.559 16.7249 255.484 16.6805C255.454 16.6592 255.461 16.6279 255.45 16.6016Z" fill="#1A73E8"/>
<path d="M84.1707 2.47455C84.6634 2.4384 85.1562 2.40391 85.6489 2.36777C85.7956 2.39077 85.8633 2.42363 85.8332 2.4647C85.8144 2.48935 85.7693 2.52385 85.7241 2.52714C84.7386 2.60108 83.7532 2.67172 82.7714 2.74237C82.6247 2.71937 82.557 2.68651 82.5871 2.64544C82.6059 2.62079 82.6511 2.58628 82.6962 2.583C83.1852 2.54521 83.6779 2.5107 84.1707 2.47455Z" fill="#1A73E8"/>
<path d="M8.24032 11.605C8.01839 11.6083 7.78522 11.6691 7.53696 11.6231C7.48806 11.6149 7.42034 11.5886 7.4241 11.5738C7.43162 11.5491 7.47677 11.5179 7.52567 11.5081C7.74007 11.467 8.00717 11.4621 8.11625 11.347C8.16891 11.2879 8.26671 11.2682 8.39836 11.2567C8.53754 11.2435 8.63531 11.2485 8.74439 11.283C8.88733 11.3273 9.00771 11.4095 9.23341 11.3668C9.24469 11.393 9.27095 11.4226 9.25967 11.4473C9.24838 11.4719 9.19957 11.4949 9.15443 11.513C9.11305 11.5294 9.05657 11.5442 9.00391 11.5491C8.75565 11.5689 8.50738 11.5853 8.24032 11.605Z" fill="#1A73E8"/>
<path d="M203.87 11.2746C204.054 11.2615 204.246 11.2549 204.427 11.2319C204.57 11.2138 204.66 11.2253 204.773 11.2648C204.965 11.3338 204.976 11.3272 205.446 11.3371C205.499 11.3387 205.563 11.3634 205.593 11.3847C205.612 11.3962 205.585 11.4275 205.563 11.4439C205.529 11.4652 205.48 11.4932 205.435 11.4932C205.138 11.4981 204.837 11.595 204.547 11.4833C204.4 11.4275 204.239 11.4011 204.039 11.4258C203.919 11.4406 203.791 11.4472 203.667 11.4537C203.546 11.4603 203.422 11.4422 203.347 11.3929C203.238 11.3206 203.302 11.2927 203.498 11.2976C203.622 11.3009 203.746 11.2829 203.87 11.2746Z" fill="#1A73E8"/>
<path d="M272.043 22.6007C272.28 22.5842 272.517 22.5645 272.758 22.5514C272.807 22.5481 272.867 22.5662 272.912 22.5777C273.092 22.627 273.066 22.7108 273.074 22.7847C273.077 22.8619 272.66 22.9244 272.483 22.8718C272.287 22.8126 272.111 22.7453 271.84 22.7814C271.735 22.7946 271.61 22.765 271.543 22.7173C271.441 22.6483 271.498 22.6204 271.689 22.6253C271.802 22.6286 271.923 22.6105 272.043 22.6007Z" fill="#1A73E8"/>
<path d="M152.623 0.236866C152.868 0.218792 153.112 0.190873 153.357 0.18923C153.5 0.187587 153.571 0.241798 153.537 0.281232C153.518 0.305878 153.473 0.340383 153.428 0.343669C152.939 0.383103 152.45 0.41597 151.961 0.452117C151.818 0.429114 151.747 0.394615 151.781 0.355182C151.799 0.330536 151.844 0.297673 151.89 0.292744C152.134 0.269741 152.379 0.254939 152.623 0.236866Z" fill="#1A73E8"/>
<path d="M267.353 17.2521C267.59 17.2356 267.831 17.211 268.068 17.2028C268.192 17.1995 268.29 17.2373 268.305 17.28C268.312 17.2997 268.252 17.3342 268.203 17.3424C267.865 17.3983 267.5 17.4049 267.146 17.4328C267.033 17.441 266.913 17.4147 266.845 17.3687C266.744 17.2981 266.8 17.2718 266.992 17.2767C267.113 17.2784 267.233 17.2603 267.353 17.2521Z" fill="#1A73E8"/>
<path d="M210.084 11.4967C210.204 11.4885 210.328 11.4671 210.445 11.4737C210.569 11.4819 210.648 11.5295 210.686 11.5772C210.727 11.6314 210.723 11.6823 210.686 11.7283C210.625 11.8072 210.565 11.8039 210.426 11.7514C210.212 11.6692 210.197 11.6791 209.772 11.6823C209.723 11.6823 209.662 11.6577 209.625 11.6363C209.568 11.6035 209.599 11.5525 209.73 11.523C209.828 11.5016 209.963 11.5049 210.084 11.4967Z" fill="#1A73E8"/>
<path d="M258.541 16.7132C258.717 16.7 258.894 16.6787 259.071 16.6787C259.195 16.677 259.293 16.7148 259.304 16.7559C259.308 16.7756 259.252 16.8085 259.206 16.8183C258.992 16.8627 258.751 16.866 258.518 16.8808C258.409 16.8873 258.289 16.861 258.221 16.815C258.119 16.746 258.18 16.7148 258.364 16.7247C258.42 16.7279 258.481 16.7181 258.541 16.7132Z" fill="#1A73E8"/>
<path d="M230.716 14.6974C230.453 14.7171 230.205 14.6925 230.223 14.6498C230.25 14.5939 230.359 14.5577 230.472 14.5479C230.652 14.5314 230.833 14.5183 231.017 14.5084C231.134 14.5019 231.239 14.5265 231.333 14.5692C231.277 14.6218 231.19 14.6596 231.077 14.6711C230.961 14.6826 230.837 14.6892 230.716 14.6974Z" fill="#1A73E8"/>
<path d="M228.988 14.4872C229.165 14.4741 229.342 14.4527 229.518 14.4527C229.643 14.4511 229.74 14.4889 229.752 14.53C229.755 14.5497 229.699 14.5825 229.654 14.5924C229.439 14.6368 229.199 14.6401 228.965 14.6548C228.856 14.6614 228.736 14.6351 228.668 14.5891C228.567 14.5201 228.627 14.4889 228.811 14.4988C228.868 14.502 228.928 14.4922 228.988 14.4872Z" fill="#1A73E8"/>
<path d="M207.952 11.4834C208.129 11.4703 208.306 11.4489 208.482 11.4473C208.607 11.4456 208.704 11.4834 208.716 11.5245C208.719 11.5442 208.663 11.5755 208.618 11.587C208.403 11.6313 208.163 11.6346 207.929 11.6494C207.82 11.656 207.7 11.6297 207.632 11.5837C207.531 11.5147 207.591 11.4834 207.775 11.4933C207.832 11.4966 207.892 11.4867 207.952 11.4834Z" fill="#1A73E8"/>
<path d="M206.962 11.3866C207.15 11.3735 207.21 11.3653 207.27 11.3653C207.383 11.3653 207.499 11.385 207.567 11.4327C207.669 11.5017 207.609 11.5214 207.424 11.5247C207.187 11.528 206.954 11.5625 206.717 11.569C206.593 11.5723 206.495 11.5329 206.488 11.4918C206.484 11.4721 206.54 11.4376 206.585 11.431C206.743 11.4064 206.916 11.3916 206.962 11.3866Z" fill="#1A73E8"/>
<path d="M227.457 1.72031C227.337 1.72853 227.209 1.75153 227.096 1.74332C226.946 1.73182 226.885 1.68746 226.923 1.64638C226.946 1.62338 226.987 1.59052 227.032 1.58559C227.273 1.56259 227.517 1.54779 227.758 1.53136C227.901 1.556 227.965 1.5905 227.927 1.63158C227.905 1.65458 227.863 1.6858 227.818 1.69237C227.702 1.7088 227.577 1.7121 227.457 1.72031Z" fill="#1A73E8"/>
<path d="M81.4745 2.66833C81.5911 2.66669 81.6964 2.68805 81.7866 2.72912C81.7302 2.7817 81.6475 2.81621 81.5346 2.83099C81.4782 2.83757 81.4143 2.84249 81.3541 2.84413C81.2375 2.84742 81.1321 2.82441 81.0419 2.78334C81.0983 2.73076 81.1848 2.69626 81.2939 2.68147C81.3503 2.6749 81.4143 2.67326 81.4745 2.66833Z" fill="#1A73E8"/>
<path d="M266.067 17.2456C266.064 17.1979 266.293 17.1437 266.5 17.1454C266.609 17.147 266.722 17.17 266.786 17.2144C266.884 17.2817 266.827 17.308 266.643 17.3031C266.53 17.2998 266.41 17.3277 266.297 17.3228C266.169 17.3212 266.094 17.285 266.067 17.2456Z" fill="#1A73E8"/>
<path d="M211.175 11.6956C211.171 11.6775 211.153 11.6561 211.164 11.6397C211.235 11.5493 211.668 11.5214 211.781 11.6003C211.8 11.6151 211.807 11.6397 211.792 11.6545C211.77 11.6775 211.728 11.7071 211.683 11.7136C211.566 11.7301 211.446 11.7383 211.326 11.7399C211.273 11.7399 211.224 11.712 211.175 11.6956Z" fill="#1A73E8"/>
<path d="M9.58092 11.3424C9.13706 11.3769 9.12954 11.3736 9.20853 11.2914C9.28 11.2175 9.41167 11.1731 9.60351 11.1731C9.65993 11.1731 9.72009 11.1699 9.76899 11.1764C9.82165 11.1846 9.89693 11.2011 9.90821 11.2208C9.93078 11.2586 9.86678 11.2996 9.75393 11.3276C9.70503 11.3407 9.6411 11.3374 9.58092 11.3424Z" fill="#1A73E8"/>
<path d="M87.0294 2.43691C86.8978 2.46484 86.785 2.45499 86.7022 2.40241C86.6195 2.34984 86.7511 2.28739 86.9806 2.2726C87.0408 2.26932 87.1047 2.25618 87.1611 2.26276C87.2176 2.26769 87.274 2.28739 87.3079 2.3071C87.3681 2.33996 87.3304 2.38434 87.2101 2.42213C87.1612 2.43692 87.0896 2.43363 87.0294 2.43691Z" fill="#1A73E8"/>
<path d="M265.283 17.1222C265.317 17.1009 265.351 17.0795 265.389 17.0598C265.528 17.0877 265.588 17.1206 265.55 17.1584C265.528 17.1814 265.483 17.2011 265.449 17.2224C265.31 17.1945 265.253 17.16 265.283 17.1222Z" fill="#1A73E8"/>
<path d="M15.5388 30.0467C15.5388 30.027 15.5915 29.9958 15.6329 29.9892C15.7118 29.9777 15.8096 30.0007 15.8773 30.0467C15.9714 30.1124 15.915 30.1469 15.742 30.1289C15.6216 30.1157 15.5388 30.0828 15.5388 30.0467Z" fill="#1A73E8"/>
<path d="M212.707 10.1659C212.756 10.1807 212.805 10.1955 212.85 10.212C212.786 10.2728 212.707 10.299 212.624 10.2826C212.571 10.2727 212.526 10.253 212.477 10.2382C212.541 10.1774 212.617 10.1544 212.707 10.1659Z" fill="#1A73E8"/>
<path d="M211.405 10.0921C211.48 10.0675 211.57 10.0806 211.676 10.1283C211.642 10.1496 211.612 10.1743 211.57 10.1907C211.499 10.217 211.405 10.2039 211.303 10.1546C211.333 10.1348 211.367 10.1135 211.405 10.0921Z" fill="#1A73E8"/>
<path d="M210.408 10.1643C210.457 10.1791 210.505 10.1939 210.551 10.2103C210.487 10.2711 210.411 10.2974 210.325 10.281C210.272 10.2711 210.227 10.2514 210.178 10.2366C210.242 10.1758 210.317 10.1512 210.408 10.1643Z" fill="#1A73E8"/>
<path d="M209.673 10.0772C209.73 10.11 209.7 10.1494 209.591 10.1938C209.542 10.179 209.485 10.1675 209.448 10.1478C209.387 10.1166 209.418 10.0755 209.53 10.0311C209.575 10.0476 209.624 10.0624 209.673 10.0772Z" fill="#1A73E8"/>
</svg>
